<?xml version="1.0" encoding="UTF-8"?>
<svg id="Layer_2" xmlns="http://www.w3.org/2000/svg" xmlns:xlink="http://www.w3.org/1999/xlink" viewBox="0 0 1920 584.53">
  <defs>
    <style>
      .cls-1 {
        fill: url(#linear-gradient-15);
      }

      .cls-2 {
        fill: url(#linear-gradient-13);
      }

      .cls-3 {
        fill: url(#linear-gradient-2);
      }

      .cls-4 {
        fill: url(#linear-gradient-10);
      }

      .cls-5 {
        fill: url(#linear-gradient-12);
      }

      .cls-6 {
        fill: #fff;
      }

      .cls-7 {
        fill: none;
      }

      .cls-8 {
        fill: url(#linear-gradient-4);
      }

      .cls-9 {
        fill: url(#linear-gradient-3);
      }

      .cls-10 {
        fill: url(#linear-gradient-5);
      }

      .cls-11 {
        fill: url(#linear-gradient-8);
      }

      .cls-12 {
        fill: url(#linear-gradient-14);
      }

      .cls-13 {
        fill: url(#linear-gradient-20);
      }

      .cls-14 {
        fill: url(#linear-gradient-17);
      }

      .cls-15 {
        fill: url(#linear-gradient-7);
      }

      .cls-16 {
        fill: url(#linear-gradient-9);
      }

      .cls-17 {
        fill: url(#linear-gradient-11);
      }

      .cls-18 {
        fill: url(#linear-gradient-19);
      }

      .cls-19 {
        fill: url(#linear-gradient-6);
      }

      .cls-20 {
        fill: url(#linear-gradient-21);
      }

      .cls-21 {
        fill: url(#linear-gradient-16);
      }

      .cls-22 {
        fill: url(#linear-gradient);
      }

      .cls-23 {
        clip-path: url(#clippath);
      }

      .cls-24 {
        fill: url(#linear-gradient-18);
      }
    </style>
    <clipPath id="clippath">
      <rect class="cls-7" x="0" y="29.65" width="1919.84" height="554.87"/>
    </clipPath>
    <linearGradient id="linear-gradient" x1="-647.89" y1="-229.26" x2="1901.03" y2="-229.26" gradientTransform="translate(0 137.77) scale(1 -1)" gradientUnits="userSpaceOnUse">
      <stop offset="0" stop-color="#4759f5"/>
      <stop offset=".7" stop-color="#0096d6"/>
      <stop offset="1" stop-color="#40defa"/>
    </linearGradient>
    <linearGradient id="linear-gradient-2" x1="-647.89" y1="-242.96" x2="1901.03" y2="-242.96" xlink:href="#linear-gradient"/>
    <linearGradient id="linear-gradient-3" x1="-647.89" y1="-256.63" x2="1901.03" y2="-256.63" xlink:href="#linear-gradient"/>
    <linearGradient id="linear-gradient-4" x1="-647.89" y1="-270.04" x2="1901.03" y2="-270.04" xlink:href="#linear-gradient"/>
    <linearGradient id="linear-gradient-5" x1="-647.89" y1="-283.98" x2="1901.03" y2="-283.98" xlink:href="#linear-gradient"/>
    <linearGradient id="linear-gradient-6" x1="-647.89" y1="-297.65" x2="1901.03" y2="-297.65" xlink:href="#linear-gradient"/>
    <linearGradient id="linear-gradient-7" x1="-647.89" y1="-311.24" x2="1901.03" y2="-311.24" xlink:href="#linear-gradient"/>
    <linearGradient id="linear-gradient-8" x1="-647.89" y1="-324.45" x2="1901.03" y2="-324.45" xlink:href="#linear-gradient"/>
    <linearGradient id="linear-gradient-9" x1="-647.89" y1="-337.97" x2="1901.03" y2="-337.97" xlink:href="#linear-gradient"/>
    <linearGradient id="linear-gradient-10" x1="-647.89" y1="-351.59" x2="1901.03" y2="-351.59" xlink:href="#linear-gradient"/>
    <linearGradient id="linear-gradient-11" x1="-647.89" y1="-365.21" x2="1901.03" y2="-365.21" xlink:href="#linear-gradient"/>
    <linearGradient id="linear-gradient-12" x1="-647.89" y1="-378.83" x2="1901.03" y2="-378.83" xlink:href="#linear-gradient"/>
    <linearGradient id="linear-gradient-13" x1="-647.89" y1="-392.3" x2="1901.03" y2="-392.3" xlink:href="#linear-gradient"/>
    <linearGradient id="linear-gradient-14" x1="-647.89" y1="-405.91" x2="1901.03" y2="-405.91" xlink:href="#linear-gradient"/>
    <linearGradient id="linear-gradient-15" x1="-647.89" y1="-419.53" x2="1901.03" y2="-419.53" xlink:href="#linear-gradient"/>
    <linearGradient id="linear-gradient-16" x1="-647.89" y1="-433.14" x2="1901.03" y2="-433.14" xlink:href="#linear-gradient"/>
    <linearGradient id="linear-gradient-17" x1="-647.89" y1="-446.76" x2="1901.03" y2="-446.76" xlink:href="#linear-gradient"/>
    <linearGradient id="linear-gradient-18" x1="-647.89" y1="-460.42" x2="1901.03" y2="-460.42" xlink:href="#linear-gradient"/>
    <linearGradient id="linear-gradient-19" x1="-647.89" y1="-473.68" x2="1901.03" y2="-473.68" xlink:href="#linear-gradient"/>
    <linearGradient id="linear-gradient-20" x1="-647.89" y1="-486.97" x2="1901.03" y2="-486.97" xlink:href="#linear-gradient"/>
    <linearGradient id="linear-gradient-21" x1="-784.36" y1="-500.69" x2="1920" y2="-500.69" xlink:href="#linear-gradient"/>
  </defs>
  <g id="Graphic_Overlay">
    <g>
      <path class="cls-6" d="M0,242.69c16.07,8.02,32.47,16.29,49.2,24.72,186.24,93.84,418.01,210.63,635.86,210.63,238.45,0,329.81-66.81,410.41-125.76,58.09-42.48,108.25-79.17,203.31-79.17,109.84,0,156.32,20.73,205.53,42.68,58.04,25.88,118.06,52.65,284.3,52.65h.1c.34-.02,6.94.11,131.29.11l-.16-368.55C1855.6,0,15.33,0,0,0"/>
      <g class="cls-23">
        <g>
          <path class="cls-22" d="M1920.22,365.69H-784.99c-.74,0-1.34.6-1.34,1.34,0,.74.6,1.34,1.34,1.34H1920.22c.74,0,1.34-.6,1.34-1.34s-.6-1.34-1.34-1.34Z"/>
          <path class="cls-3" d="M476.37,354.36c-19.88,0-30.79.44-31.91,1.37-8.59,5.26-280.59,25.67-443.11,37.86-77.25,5.8-133.07,9.99-137.61,10.77-8.25,1.52-338.42-19.25-579.52-34.42l-67.67-4.25-.17,2.68,67.67,4.25c313.73,19.73,573.94,35.94,580.24,34.36,4.32-.75,62.99-5.15,137.26-10.72,230.75-17.32,438.39-33.29,444.63-38.48,10.02-4.2,361.58,7.32,530.53,12.86,58.25,1.91,100.34,3.29,105.64,3.29,11.91,0,129.54-3.33,233.32-6.27,75.18-2.13,140.1-3.97,144.86-3.97,5.49,0,65.5,1.04,129.04,2.14,74.59,1.29,151.71,2.62,160.01,2.62h172.09s0-2.69,0-2.69h-172.09c-8.28,0-85.39-1.33-159.96-2.62-63.55-1.1-123.58-2.14-129.09-2.14-4.79,0-69.73,1.84-144.93,3.97-103.77,2.94-221.38,6.27-233.25,6.27-5.26,0-47.33-1.38-105.55-3.29-252.54-8.28-431.07-13.61-500.43-13.61Z"/>
          <path class="cls-9" d="M434.62,342.97c-19,0-30.36.77-32.41,2.47-10.47,8.71-178.64,39.59-499.83,91.77-18.94,3.08-31.45,5.11-35.42,5.8-11.85,2.95-288.91-31.9-511.55-59.89-48.9-6.15-96.11-12.09-138.85-17.42l-.33,2.67c42.74,5.33,89.95,11.27,138.85,17.42,234.47,29.49,500.22,62.88,512.44,59.86,3.86-.67,16.37-2.7,35.3-5.77,119.9-19.48,484.78-78.76,501.12-92.36,9.93-8.26,310.97,10.85,490.83,22.26,85.66,5.44,153.32,9.73,166.6,9.73,23.81,0,140.06-6.66,242.62-12.54,74.27-4.26,138.42-7.93,147.92-7.93,10.98,0,70.28,2.08,133.06,4.27,73.71,2.58,149.93,5.25,166.53,5.25h170.11s0-2.69,0-2.69h-170.11c-16.55,0-92.75-2.67-166.44-5.25-62.81-2.2-122.13-4.28-133.16-4.28-9.58,0-73.76,3.68-148.07,7.94-102.52,5.88-218.73,12.53-242.46,12.53-13.19,0-80.82-4.29-166.43-9.72-201.56-12.79-387.28-24.11-460.31-24.12Z"/>
          <path class="cls-8" d="M392.65,331.29c-19.18,0-31.01,1.12-34,3.61-28.67,23.86-450.34,139.66-489.78,146.5-16.82,4.2-261.42-42.02-477.22-82.79-63-11.9-121.32-22.88-175.2-32.89l-1.68,2.38c53.88,10.01,113.38,21.26,176.38,33.16,226.63,42.81,460.96,87.09,478.28,82.77,39.42-6.83,462.11-123.06,490.95-147.06,14.21-11.82,285.73,13.4,465.39,30.09,102.45,9.52,190.92,17.74,213.3,17.74,35.72,0,150.58-9.99,251.92-18.81,73.37-6.38,136.73-11.9,150.98-11.9,16.47,0,75.05,3.11,137.08,6.41,72.84,3.87,148.15,7.87,173.05,7.87h168.12s0-2.69,0-2.69h-168.12c-24.83,0-100.11-4-172.91-7.87-62.06-3.3-120.68-6.41-137.22-6.41-14.37,0-77.79,5.52-151.22,11.91-101.28,8.81-216.08,18.8-251.68,18.8-22.25,0-110.67-8.21-213.05-17.73-194.37-18.06-363.14-33.09-433.37-33.09Z"/>
          <path class="cls-10" d="M353.87,320.18c-19.48,0-32.19,1.43-36.11,4.69-38.63,32.15-387.44,185.57-444.31,195.43-21.67,5.38-242.93-50.46-456.92-104.49-68.27-17.24-138.87-35.06-199.9-50.08l-.64,2.61c61.03,15.03,131.62,32.85,199.89,50.08,214.31,54.1,435.92,110.02,458.14,104.51,56.94-9.87,406.73-163.75,445.48-195.99,18.25-15.19,256.3,13.71,447.58,36.93,118.16,14.35,220.2,26.74,252.38,26.74,47.63,0,161.1-13.33,261.21-25.08,72.47-8.51,135.05-15.86,154.05-15.86,21.95,0,79.82,4.15,141.09,8.55,71.96,5.16,146.37,10.5,179.58,10.5h166.14s0-2.69,0-2.69h-166.14c-33.11,0-107.47-5.33-179.38-10.49-61.32-4.4-119.24-8.55-141.29-8.55-19.16,0-81.81,7.36-154.36,15.88-100.04,11.75-213.43,25.06-260.9,25.06-32.01,0-133.98-12.38-252.06-26.72-160.44-19.48-337.91-41.02-413.51-41.02Z"/>
          <path class="cls-19" d="M313.43,308.81c-19.78,0-33.06,1.74-37.85,5.73-50.5,42.03-327.25,231.95-398.84,244.36-26.42,6.61-238.68-60.58-443.97-125.53-73.72-23.32-149.94-47.44-216.08-67.66l-.79,2.57c66.12,20.21,142.34,44.33,216.05,67.65,215.11,68.06,418.28,132.32,445.33,125.59,71.88-12.46,349.41-202.81,400.01-244.92,22.12-18.4,250.79,15.69,434.53,43.09,125.6,18.73,244.23,36.42,286.69,36.42,59.54,0,171.62-16.66,270.51-31.36,71.56-10.64,133.36-19.82,157.11-19.82,27.44,0,84.6,5.19,145.11,10.68,71.09,6.45,144.59,13.12,186.1,13.12h164.16s0-2.69,0-2.69h-164.16c-41.38,0-114.83-6.67-185.85-13.11-60.58-5.5-117.79-10.69-145.35-10.69-23.95,0-85.84,9.2-157.51,19.85-98.8,14.68-210.78,31.33-270.12,31.33-42.26,0-160.79-17.68-286.29-36.39-153.58-22.9-323.39-48.22-398.8-48.22Z"/>
          <path class="cls-15" d="M273.49,297.29c-20.38,0-34.38,2.11-40.16,6.93-14.39,11.98-38.58,35.75-69.2,65.85-87.65,86.15-220.11,216.34-284.18,227.44-31.09,7.75-236.31-70.39-434.77-145.95-77.82-29.63-158.28-60.27-228.49-85.85l-.92,2.53c70.19,25.57,150.65,56.21,228.46,85.83,208,79.19,404.45,153.98,436.29,146.07,64.8-11.23,197.62-141.77,285.51-228.16,30.58-30.05,54.73-53.79,69.04-65.7,25.87-21.53,237.78,15.8,424.75,48.74,136.09,23.97,264.63,46.61,317.73,46.61,71.45,0,182.14-19.99,279.81-37.63,70.66-12.76,131.68-23.78,160.18-23.78,32.93,0,89.37,6.23,149.13,12.82,70.21,7.74,142.81,15.75,192.62,15.75h162.18s0-2.69,0-2.69h-162.18c-49.66,0-122.19-8-192.33-15.74-59.83-6.6-116.34-12.83-149.42-12.83-28.74,0-89.87,11.04-160.66,23.82-97.55,17.62-208.13,37.59-279.33,37.59-52.86,0-181.29-22.62-317.26-46.57-154.28-27.18-312.68-55.08-386.78-55.08Z"/>
          <path class="cls-11" d="M232.01,285.47c-20.79,0-35.41,2.42-42.07,7.96-23.25,19.35-55.76,65.43-93.4,118.78-66.71,94.55-149.73,212.22-214.5,223.44-35.77,8.92-235.95-80.27-429.54-166.52-80.52-35.88-162.7-72.5-235.87-103.4l-2.13,2c73.14,30.9,156.4,67.99,236.91,103.86,202.93,90.41,394.6,175.81,431.19,166.69,65.77-11.4,149.15-129.57,216.15-224.52,37.53-53.2,69.95-99.14,92.92-118.26,29.51-24.56,226.67,15.37,417.34,53.99,145.22,29.41,282.39,57.2,346.4,57.2,83.35,0,192.67-23.33,289.11-43.91,69.75-14.88,129.99-27.74,163.24-27.74,38.42,0,94.14,7.26,153.14,14.95,69.34,9.03,141.04,18.38,199.14,18.38h160.19s0-2.69,0-2.69h-160.19c-57.93,0-129.54-9.33-198.8-18.36-59.09-7.7-114.9-14.97-153.49-14.97-33.53,0-93.9,12.88-163.8,27.8-96.31,20.55-205.48,43.85-288.55,43.85-63.74,0-200.78-27.76-345.87-57.15-149.54-30.29-303.06-61.38-377.52-61.39Z"/>
          <path class="cls-16" d="M192.27,273.85c-21.45,0-36.81,2.81-44.52,9.22-29.73,24.74-59.43,89.12-90.88,157.28-47.99,104-102.38,221.88-171.55,233.87-40.49,10.08-227.78-85.49-426.06-186.67-82.6-42.15-167.67-85.54-243.33-121.81l-1.5,2.24c75.63,36.25,161.02,79.83,243.61,121.97,198.75,101.42,386.49,197.21,427.84,186.9,70.47-12.21,125.17-130.77,173.44-235.38,31.32-67.87,60.9-131.99,90.16-156.34,33.08-27.53,225.56,16.43,411.71,58.94,146.57,33.48,298.13,68.09,373.29,68.09,95.26,0,203.19-26.66,298.41-50.18,68.85-17.01,128.31-31.7,166.3-31.7,43.9,0,98.91,8.3,157.16,17.08,68.47,10.33,139.26,21.01,205.67,21.01h158.21s0-2.69,0-2.69h-158.21c-66.21,0-136.9-10.66-205.27-20.98-58.34-8.8-113.45-17.11-157.56-17.11-38.32,0-97.93,14.73-166.95,31.78-95.07,23.49-202.83,50.11-297.76,50.11-74.85,0-226.26-34.58-372.69-68.02-151.25-34.54-296.02-67.6-369.51-67.61Z"/>
          <path class="cls-4" d="M152.08,262.43c-21.9,0-37.92,3.13-46.5,10.27-35.49,29.54-56.56,107.98-78.87,191.02-31.18,116.08-63.42,236.12-138.1,249.06-45.01,11.21-227.97-94.28-421.69-205.97-84.86-48.92-171.68-98.92-250.08-140.91-.66-.35-1.94-.18-2.29.48-.35.65-.55.95.1,1.3,78.36,41.98,166.09,92.56,250.93,141.47,194.2,111.96,377.66,217.71,423.59,206.27,76.27-13.22,108.74-134.1,140.14-250.99,22.19-82.62,43.16-160.66,77.99-189.65,36.59-30.45,225.13,17.38,407.47,63.64,153.54,38.95,312.31,79.23,398.79,79.23,107.17,0,213.71-30,307.7-56.46,67.94-19.13,126.62-35.65,169.37-35.65,49.39,0,103.68,9.33,161.17,19.22,67.59,11.62,137.48,23.63,212.2,23.63h156.23c.74,0,1.34-.6,1.34-1.34s-.6-1.34-1.34-1.34h-156.23c-74.48,0-144.26-12-211.74-23.59-57.6-9.9-112.01-19.26-161.62-19.26-43.11,0-101.96,16.57-170.1,35.75-93.83,26.42-200.17,56.36-306.97,56.36-86.14,0-244.75-40.24-398.13-79.15-147.76-37.49-289.21-73.37-363.35-73.37Z"/>
          <path class="cls-17" d="M111.91,251.02c-22.37,0-39.05,3.45-48.51,11.32C22.48,296.4,12.12,387.95,1.15,484.88c-14.05,124.13-28.57,252.49-109.25,266.48-49.63,12.38-230.33-103.74-421.65-226.66-85.84-55.16-173.69-111.63-253.64-158.95l-2.29,1.76c79.91,47.3,168.65,104.32,254.48,159.46,191.82,123.24,372.99,239.64,423.66,227.03C-24.97,739.67-10.33,610.3,3.83,485.18c10.9-96.37,21.2-187.4,61.29-220.77,40.04-33.33,216.99,15.96,404.34,68.13,159.89,44.53,325.23,90.58,423.19,90.58,119.08,0,224.23-33.33,317-62.74,67.04-21.25,124.94-39.61,172.43-39.61,54.87,0,108.46,10.37,165.18,21.35,65.83,12.74,133.87,25.91,215.41,26.26h0s157.55,0,157.55,0v-2.69s-154.24,0-154.24,0c-82.76,0-151.62-13.33-218.21-26.21-56.86-11-110.56-21.4-165.69-21.4-47.91,0-105.99,18.41-173.24,39.73-92.59,29.35-197.52,62.62-316.19,62.62-97.59,0-262.75-46-422.47-90.48-144.78-40.32-283.39-78.92-358.27-78.93Z"/>
          <path class="cls-5" d="M71.75,239.61c-22.86,0-40.19,3.76-50.53,12.36-46.17,38.43-44.64,142.56-43.02,252.8,1.95,132.78,3.97,270.07-83.01,285.15-54.2,13.5-231.73-112.38-419.68-245.67-87.34-61.94-176.86-125.43-258.98-178.5l-2.26,1.71c82.07,53.03,172.36,117.06,259.68,178.98,188.46,133.65,366.44,259.88,421.79,246.1,89.14-15.45,87.11-153.91,85.14-287.82-1.61-109.58-3.13-213.09,42.05-250.69,43.45-36.16,217.66,16.6,402.1,72.45,165.74,50.19,337.12,102.1,446.68,102.1,130.99,0,234.75-36.67,326.3-69.03,66.14-23.37,123.25-43.56,175.49-43.56,60.36,0,113.23,11.41,169.2,23.48,63.68,13.74,129.45,27.93,216.32,28.85v.05h161.19s0-2.69,0-2.69h-152.26c-91.03,0-158.97-14.66-224.68-28.83-56.11-12.11-109.12-23.54-169.76-23.54-52.7,0-110.02,20.26-176.39,43.71-91.34,32.28-194.87,68.87-325.4,68.87-109.16,0-280.35-51.84-445.9-101.98-142.21-43.07-278.38-84.3-354.07-84.31Z"/>
          <path class="cls-2" d="M32.18,227.88c-23.55,0-41.67,4.19-53.13,13.73-51.3,42.7-37.16,159.08-22.18,282.29,17.24,141.78,35.06,288.39-58.38,304.59-58.93,14.68-234.94-121.72-421.29-266.14-87.64-67.92-178.27-138.16-261.41-196.42l-1.54,2.2c83.09,58.22,173.69,128.44,261.31,196.34,186.88,144.83,363.38,281.62,423.49,266.64,95.86-16.61,77.88-164.51,60.5-307.54-14.23-117.07-28.95-238.13,21.23-279.9,46.82-38.97,218.67,17.18,400.61,76.63,163.19,53.32,348.16,113.76,469.43,113.76,142.9,0,245.28-40.01,335.6-75.31,65.23-25.5,121.57-47.51,178.55-47.51,65.85,0,118,12.44,173.21,25.61,61.48,14.66,124.93,29.8,215.98,31.39v.14s166.07,0,166.07,0v-2.69s-150.01,0-150.01,0c-99.57,0-166.59-15.99-231.41-31.45-55.37-13.21-107.67-25.68-173.83-25.68-57.49,0-114.05,22.1-179.53,47.7-90.1,35.21-192.23,75.13-334.62,75.13-120.85,0-305.6-60.37-468.6-113.62-145.04-47.39-275.05-89.87-350.03-89.87Z"/>
          <path class="cls-12" d="M-7.95,216.46c-24.05,0-42.84,4.51-55.19,14.79-56.36,46.9-27.84,181.29-.26,311.26,24.98,117.74,50.82,239.48,13.46,294.68-11.09,16.39-26.89,26.16-48.29,29.87-63.41,15.79-237.19-130.83-421.2-286.06-88.52-74.67-179.28-151.31-263.96-215.25l-2.4,1.56c84.63,63.91,176.13,141.1,264.63,215.75,184.55,155.69,358.87,302.73,423.49,286.63,21.76-3.77,38.6-14.2,49.96-30.99,38-56.14,12.05-178.46-13.06-296.74-27.41-129.18-55.76-262.77-.65-308.63,50.16-41.74,212.16,14.99,399.74,80.69,168.03,58.85,358.48,125.54,491.56,125.54,154.81,0,255.8-43.35,344.9-81.6,64.33-27.61,119.89-51.46,181.62-51.46,71.33,0,122.77,13.48,177.22,27.74,59.31,15.54,120.48,31.57,214.8,33.87v.28s171.79,0,171.79,0v-2.69s-148.04,0-148.04,0c-107.83,0-173.94-17.32-237.87-34.07-54.63-14.31-106.23-27.83-177.9-27.83-62.28,0-118.08,23.95-182.68,51.68-88.86,38.14-189.58,81.38-343.84,81.38-132.63,0-322.85-66.62-490.68-125.39C196.18,261.36,67.95,216.46-7.95,216.46Z"/>
          <path class="cls-1" d="M-48.06,205.04c-24.55,0-44.02,4.82-57.25,15.84-61.36,51.07-18.77,197.88,22.41,339.87,36.39,125.47,74.03,255.22,37.57,313.56-10.7,17.14-26.93,27.37-49.61,31.31-68,16.94-239.68-139.5-421.44-305.13-89.25-81.32-181.15-165.11-267.38-234.72l-2.08,1.78c86.17,69.56,178.43,153.63,267.65,234.93,182.31,166.12,354.5,323.02,423.81,305.77,23.05-3.99,40.35-14.94,51.33-32.51,37.09-59.36-.71-189.69-37.27-315.74-40.94-141.15-83.28-287.11-23.27-337.05,53.46-44.5,213.77,15.34,399.4,84.63,172.58,64.42,368.19,137.44,513.17,137.44,166.72,0,266.32-46.69,354.19-87.88,63.43-29.73,118.21-55.41,184.68-55.41,76.82,0,127.54,14.51,181.23,29.87,57.22,16.37,116.2,33.24,213.05,36.3v.49s178.09,0,178.09,0v-2.69s-146.06,0-146.06,0c-116.1,0-181.29-18.65-244.33-36.68-53.88-15.42-104.78-29.97-181.97-29.97-67.08,0-122.11,25.8-185.83,55.67-87.62,41.07-186.93,87.63-353.05,87.63-144.49,0-339.86-72.93-512.23-137.27C155.47,252.32,28.79,205.04-48.06,205.04Z"/>
          <path class="cls-21" d="M-88.17,193.62c-25.06,0-45.2,5.14-59.32,16.89-66.31,55.19-9.41,214.32,45.63,368.22,47.7,133.39,97.03,271.33,61.18,332.82-10.39,17.82-27.06,28.5-50.96,32.64-72.52,18.07-242.24-148.27-421.93-324.38-89.8-88.01-182.37-178.77-269.99-254.08l-2.03,1.8c87.55,75.24,180.37,166.22,270.14,254.2,180.23,176.65,350.45,343.48,424.36,325.09,24.29-4.21,42.06-15.62,52.72-33.91,36.48-62.57-10.86-194.93-60.97-335.08-54.72-153.02-111.31-311.26-46.44-365.24,56.74-47.23,215.58,15.66,399.5,88.49,176.89,70.04,377.38,149.42,534.33,149.42,178.63,0,276.84-50.03,363.49-94.17,62.52-31.85,116.52-59.36,187.75-59.36,82.3,0,132.31,15.54,185.25,32,55.22,17.16,112.09,34.84,210.88,38.66v.76s184.8,0,184.8,0v-2.69s-144.08,0-144.08,0c-124.37,0-188.65-19.98-250.8-39.3-53.14-16.52-103.33-32.12-186.04-32.12-71.87,0-126.14,27.64-188.97,59.65-86.38,44-184.28,93.88-362.27,93.88-156.43,0-356.67-79.28-533.34-149.23C114.99,243.24-10.33,193.62-88.17,193.62Z"/>
          <path class="cls-14" d="M-128.28,182.2c-25.58,0-46.39,5.46-61.39,17.94-71.24,59.29.18,230.65,69.25,396.37C-61.47,737.95-.52,884.21-36,948.84c-10.14,18.47-27.26,29.56-52.35,33.91-77.12,19.2-245.8-157.75-424.4-345.09-89.91-94.32-182.19-191.15-270.63-271.83l-2.51,1.29c88.36,80.62,181.3,178.11,271.18,272.39,179.16,187.93,348.36,365.41,426.9,345.87,25.49-4.42,43.74-16.28,54.15-35.24,36.11-65.76-22.38-206.09-84.3-354.66-68.69-164.82-139.72-335.24-70.01-393.26,60-49.93,217.56,15.96,400,92.26,180.98,75.69,386.12,161.49,555.09,161.49,190.55,0,287.36-53.37,372.79-100.46,61.62-33.97,114.84-63.31,190.81-63.31,87.79,0,137.08,16.58,189.26,34.13,53.3,17.93,108.18,36.38,208.4,40.97v1.08s191.82,0,191.82,0v-2.69s-142.1,0-142.1,0c-132.65,0-196-21.31-257.27-41.91-52.4-17.62-101.89-34.27-190.12-34.27-76.66,0-130.16,29.49-192.11,63.64-85.14,46.93-181.63,100.12-371.49,100.12-168.43,0-373.3-85.68-554.05-161.28C74.71,234.12-49.41,182.2-128.28,182.2Z"/>
          <path class="cls-24" d="M-168.39,170.79c-26.1,0-47.58,5.77-63.46,18.99-76.14,63.37,9.94,246.89,93.18,424.36C-65.28,770.61,4.04,918.41-31.26,986.17c-9.95,19.09-27.54,30.58-53.8,35.13-81.73,20.39-248.04-165.51-424.12-362.3-90.73-101.4-184.54-206.25-274.88-292.95l-1.86,1.94c90.26,86.63,184.04,191.44,274.73,292.8,184.3,205.98,343.45,383.88,426.68,363.13,26.67-4.62,45.42-16.91,55.63-36.52,35.92-68.95-33.68-217.32-107.36-374.42-82.81-176.55-168.44-359.11-93.9-421.15,63.25-52.64,219.69,16.22,400.84,95.96,184.89,81.38,394.46,173.63,575.52,173.63,202.46,0,297.89-56.71,382.08-106.75,60.72-36.09,113.16-67.25,193.88-67.25,93.27,0,141.84,17.61,193.27,36.25,51.47,18.66,104.43,37.86,205.69,43.22v1.47s199.08,0,199.08,0v-2.69s-140.11,0-140.11,0c-140.92,0-203.36-22.63-263.74-44.52-51.65-18.73-100.44-36.41-194.19-36.41-81.46,0-134.19,31.34-195.26,67.63-83.9,49.86-178.99,106.37-380.71,106.37-180.49,0-389.78-92.12-574.43-173.4C34.62,224.97-88.47,170.79-168.39,170.79Z"/>
          <path class="cls-18" d="M-208.49,159.38c-26.61,0-48.78,6.09-65.54,20.04-81.02,67.43,19.83,263.06,117.36,452.24C-71.57,796.72,8.8,952.62-26.47,1023.53c-9.8,19.7-27.89,31.59-55.3,36.34-90.31,16.08-255.88-180.17-431.17-387.96-89.25-105.79-181.53-215.18-271.09-306l-1.91,1.89c89.48,90.75,181.73,200.1,270.95,305.85,89.78,106.42,174.58,206.94,249.05,279.69,83.93,81.98,142.58,116.68,184.64,109.18,27.91-4.84,47.17-17.55,57.24-37.79,35.88-72.13-44.8-228.63-130.21-394.31-97.04-188.24-197.39-382.89-118.03-448.94,66.47-55.32,221.94,16.47,401.96,99.6,188.64,87.1,402.45,185.83,595.65,185.83,214.37,0,308.4-60.05,391.37-113.04,59.82-38.2,111.49-71.2,196.95-71.2,98.75,0,146.61,18.64,197.28,38.38,49.72,19.37,100.84,39.28,202.79,45.41v1.91s206.53,0,206.53,0v-2.69s-138.13,0-138.13,0c-149.2,0-210.72-23.96-270.21-47.14-50.91-19.83-99-38.56-198.26-38.56-86.25,0-138.22,33.19-198.4,71.62-82.66,52.78-176.35,112.61-389.93,112.61-192.61,0-406.13-98.59-594.52-185.58C-5.34,215.78-127.5,159.38-208.49,159.38Z"/>
          <path class="cls-13" d="M-247.87,147.46c-27.33,0-50.31,6.59-68.33,21.59-85.89,71.48,29.83,279.18,141.74,480.03C-77.69,822.78,13.72,986.84-21.64,1060.9c-9.7,20.31-28.29,32.59-56.84,37.54-93.48,15.93-258.85-191.2-433.87-410.5-88.55-110.96-180.11-225.69-269.32-321.14l-1.96,1.84c89.13,95.37,180.66,210.07,269.18,320.98,89.61,112.29,174.25,218.35,249.04,295.27,84.3,86.7,143.82,123.63,187.38,116.21,29.07-5.04,48.86-18.17,58.81-39.03,35.96-75.31-55.78-239.97-152.91-414.3-111.37-199.89-226.54-406.6-142.37-476.65,31.88-26.53,82.29-27.63,158.67-3.45C-86.45,189.61-1.29,230.75,88.87,274.29c192.24,92.85,410.14,198.09,615.52,198.09,226.28,0,318.93-63.4,400.67-119.33,58.92-40.32,109.81-75.14,200.02-75.14,104.24,0,151.38,19.67,201.29,40.5,48.04,20.05,97.42,40.65,199.74,47.55v2.41s214.12,0,214.12,0v-2.69s-136.14,0-136.14,0c-157.47,0-218.08-25.29-276.68-49.75-50.17-20.94-97.55-40.71-202.33-40.71-91.04,0-142.25,35.04-201.54,75.61-81.42,55.71-173.7,118.86-399.15,118.86-204.76,0-422.36-105.1-614.35-197.82C-49.7,204.38-167.55,147.46-247.87,147.46Z"/>
          <path class="cls-20" d="M-287.44,135.83c-27.88,0-51.57,6.92-70.51,22.68-91.06,75.79,40.48,297.74,167.69,512.39C-82.12,853.38,20.02,1025.73-15.79,1101.03c-9.7,20.39-28.87,32.46-58.62,36.89-106.45,11.87-270.34-206.66-443.84-438.03-86.42-115.25-175.79-234.41-264.08-333.97l-2.02,1.79c88.22,99.47,177.56,218.6,263.95,333.8,88.72,118.31,172.52,230.07,248.44,311.91,85.6,92.29,148.49,132.7,197.91,127.18,30.32-4.52,50.73-17.44,60.71-38.4,36.43-76.59-66.07-249.54-174.59-432.65-126.63-213.68-257.58-434.62-168.28-508.95,72.94-60.71,219.67,13.22,405.43,106.83,186.24,93.84,418.01,210.63,635.86,210.63,238.45,0,329.81-66.81,410.41-125.76,58.09-42.48,108.25-79.17,203.31-79.17,109.84,0,156.32,20.73,205.53,42.68,58.04,25.88,118.06,52.65,284.3,52.65l.03-.92.07.91c.34-.02,6.94.11,131.29.11v-2.69c-64.25,0-97.09-.25-113.88-.21-10.91.03-15.5.04-17.43.31v-.21s0,.21,0,.21c-.02,0-.04,0-.07,0v-.22c-165.67,0-225.42-26.65-283.2-52.42-49.48-22.07-96.21-42.91-206.63-42.91-95.94,0-146.44,36.93-204.9,79.69-80.27,58.7-171.25,125.24-408.82,125.24-217.2,0-448.66-116.63-634.65-210.35C-88.65,194.94-205.94,135.84-287.44,135.83Z"/>
        </g>
      </g>
    </g>
  </g>
</svg>