<svg width="104" height="20" viewBox="0 0 104 20" fill="none" xmlns="http://www.w3.org/2000/svg">
<path d="M4.20739 1.54545V19H0.517045V1.54545H4.20739ZM10.8061 11.4318V19H7.17543V5.90909H10.6357V8.21875H10.7891C11.0788 7.45739 11.5646 6.85511 12.2464 6.41193C12.9283 5.96307 13.755 5.73864 14.7266 5.73864C15.6357 5.73864 16.4283 5.9375 17.1044 6.33523C17.7805 6.73295 18.3061 7.30114 18.6811 8.03977C19.0561 8.77273 19.2436 9.64773 19.2436 10.6648V19H15.6129V11.3125C15.6186 10.5114 15.4141 9.88636 14.9993 9.4375C14.5845 8.98295 14.0135 8.75568 13.2862 8.75568C12.7976 8.75568 12.3658 8.8608 11.9908 9.07102C11.6214 9.28125 11.3317 9.58807 11.1214 9.99148C10.9169 10.3892 10.8118 10.8693 10.8061 11.4318ZM29.0682 5.90909V8.63636H21.1847V5.90909H29.0682ZM22.9744 2.77273H26.6051V14.9773C26.6051 15.3125 26.6563 15.5739 26.7585 15.7614C26.8608 15.9432 27.0028 16.071 27.1847 16.1449C27.3722 16.2187 27.5881 16.2557 27.8324 16.2557C28.0028 16.2557 28.1733 16.2415 28.3438 16.2131C28.5142 16.179 28.6449 16.1534 28.7358 16.1364L29.3068 18.8381C29.125 18.8949 28.8693 18.9602 28.5398 19.0341C28.2102 19.1136 27.8097 19.1619 27.3381 19.179C26.4631 19.2131 25.696 19.0966 25.0369 18.8295C24.3835 18.5625 23.875 18.1477 23.5114 17.5852C23.1477 17.0227 22.9688 16.3125 22.9744 15.4545V2.77273ZM37.2585 19.2557C35.9119 19.2557 34.7528 18.983 33.7812 18.4375C32.8153 17.8864 32.071 17.108 31.5483 16.1023C31.0256 15.0909 30.7642 13.8949 30.7642 12.5142C30.7642 11.1676 31.0256 9.9858 31.5483 8.96875C32.071 7.9517 32.8068 7.15909 33.7557 6.59091C34.7102 6.02273 35.8295 5.73864 37.1136 5.73864C37.9773 5.73864 38.7813 5.87784 39.5256 6.15625C40.2756 6.42898 40.929 6.84091 41.4858 7.39205C42.0483 7.94318 42.4858 8.63636 42.7983 9.47159C43.1108 10.3011 43.267 11.2727 43.267 12.3864V13.3835H32.2131V11.1335H39.8494C39.8494 10.6108 39.7358 10.1477 39.5085 9.74432C39.2813 9.34091 38.9659 9.02557 38.5625 8.7983C38.1648 8.56534 37.7017 8.44886 37.1733 8.44886C36.6222 8.44886 36.1335 8.5767 35.7074 8.83239C35.2869 9.08239 34.9574 9.42045 34.7188 9.84659C34.4801 10.267 34.358 10.7358 34.3523 11.2528V13.392C34.3523 14.0398 34.4716 14.5994 34.7102 15.071C34.9545 15.5426 35.2983 15.9062 35.7415 16.1619C36.1847 16.4176 36.7102 16.5455 37.3182 16.5455C37.7216 16.5455 38.0909 16.4886 38.4261 16.375C38.7614 16.2614 39.0483 16.0909 39.2869 15.8636C39.5256 15.6364 39.7074 15.358 39.8324 15.0284L43.1903 15.25C43.0199 16.0568 42.6705 16.7614 42.142 17.3636C41.6193 17.9602 40.9432 18.4261 40.1136 18.7614C39.2898 19.0909 38.3381 19.2557 37.2585 19.2557ZM49.267 1.54545V19H45.6364V1.54545H49.267ZM55.8061 1.54545V19H52.1754V1.54545H55.8061ZM58.7145 19V5.90909H62.3452V19H58.7145ZM60.5384 4.22159C59.9986 4.22159 59.5355 4.04261 59.1491 3.68466C58.7685 3.32102 58.5781 2.88636 58.5781 2.38068C58.5781 1.88068 58.7685 1.4517 59.1491 1.09375C59.5355 0.730113 59.9986 0.548295 60.5384 0.548295C61.0781 0.548295 61.5384 0.730113 61.919 1.09375C62.3054 1.4517 62.4986 1.88068 62.4986 2.38068C62.4986 2.88636 62.3054 3.32102 61.919 3.68466C61.5384 4.04261 61.0781 4.22159 60.5384 4.22159ZM65.3217 19V1.54545H72.3104C73.5945 1.54545 74.6655 1.7358 75.5234 2.11648C76.3814 2.49716 77.0263 3.02557 77.4581 3.7017C77.8899 4.37216 78.1058 5.14489 78.1058 6.01989C78.1058 6.7017 77.9695 7.30114 77.6967 7.81818C77.424 8.32955 77.049 8.75 76.5717 9.07955C76.1001 9.40341 75.5604 9.63352 74.9524 9.76989V9.94034C75.6172 9.96875 76.2393 10.1562 76.8189 10.5028C77.4041 10.8494 77.8786 11.3352 78.2422 11.9602C78.6058 12.5795 78.7876 13.3182 78.7876 14.1761C78.7876 15.1023 78.5575 15.929 78.0973 16.6562C77.6428 17.3778 76.9695 17.9489 76.0774 18.3693C75.1854 18.7898 74.0859 19 72.7791 19H65.3217ZM69.0121 15.983H72.0206C73.049 15.983 73.799 15.7869 74.2706 15.3949C74.7422 14.9972 74.978 14.4687 74.978 13.8097C74.978 13.3267 74.8615 12.9006 74.6286 12.5312C74.3956 12.1619 74.0632 11.8722 73.6314 11.6619C73.2053 11.4517 72.6967 11.3466 72.1058 11.3466H69.0121V15.983ZM69.0121 8.84943H71.7479C72.2536 8.84943 72.7024 8.76136 73.0945 8.58523C73.4922 8.40341 73.8047 8.14773 74.032 7.81818C74.2649 7.48864 74.3814 7.09375 74.3814 6.63352C74.3814 6.00284 74.157 5.49432 73.7081 5.10795C73.2649 4.72159 72.6342 4.52841 71.8161 4.52841H69.0121V8.84943ZM87.0355 19.2557C85.7116 19.2557 84.5668 18.9744 83.6009 18.4119C82.6406 17.8437 81.8991 17.054 81.3764 16.0426C80.8537 15.0256 80.5923 13.8466 80.5923 12.5057C80.5923 11.1534 80.8537 9.97159 81.3764 8.96023C81.8991 7.94318 82.6406 7.15341 83.6009 6.59091C84.5668 6.02273 85.7116 5.73864 87.0355 5.73864C88.3594 5.73864 89.5014 6.02273 90.4616 6.59091C91.4276 7.15341 92.1719 7.94318 92.6946 8.96023C93.2173 9.97159 93.4787 11.1534 93.4787 12.5057C93.4787 13.8466 93.2173 15.0256 92.6946 16.0426C92.1719 17.054 91.4276 17.8437 90.4616 18.4119C89.5014 18.9744 88.3594 19.2557 87.0355 19.2557ZM87.0526 16.4432C87.6548 16.4432 88.1577 16.2727 88.5611 15.9318C88.9645 15.5852 89.2685 15.1136 89.473 14.517C89.6832 13.9205 89.7884 13.2415 89.7884 12.4801C89.7884 11.7188 89.6832 11.0398 89.473 10.4432C89.2685 9.84659 88.9645 9.375 88.5611 9.02841C88.1577 8.68182 87.6548 8.50852 87.0526 8.50852C86.4446 8.50852 85.9332 8.68182 85.5185 9.02841C85.1094 9.375 84.7997 9.84659 84.5895 10.4432C84.3849 11.0398 84.2827 11.7188 84.2827 12.4801C84.2827 13.2415 84.3849 13.9205 84.5895 14.517C84.7997 15.1136 85.1094 15.5852 85.5185 15.9318C85.9332 16.2727 86.4446 16.4432 87.0526 16.4432ZM102.803 5.90909V8.63636H94.919V5.90909H102.803ZM96.7088 2.77273H100.339V14.9773C100.339 15.3125 100.391 15.5739 100.493 15.7614C100.595 15.9432 100.737 16.071 100.919 16.1449C101.107 16.2187 101.322 16.2557 101.567 16.2557C101.737 16.2557 101.908 16.2415 102.078 16.2131C102.249 16.179 102.379 16.1534 102.47 16.1364L103.041 18.8381C102.859 18.8949 102.604 18.9602 102.274 19.0341C101.945 19.1136 101.544 19.1619 101.072 19.179C100.197 19.2131 99.4304 19.0966 98.7713 18.8295C98.1179 18.5625 97.6094 18.1477 97.2457 17.5852C96.8821 17.0227 96.7031 16.3125 96.7088 15.4545V2.77273Z" fill="#A1A1AA"/>
</svg>
