<?xml version="1.0" encoding="UTF-8"?>
<svg id="Layer_2" xmlns="http://www.w3.org/2000/svg" xmlns:xlink="http://www.w3.org/1999/xlink" viewBox="0 0 592.45 147.98">
  <defs>
    <style>
      .cls-1 {
        fill: #0096d4;
      }

      .cls-2 {
        fill: url(#linear-gradient-15);
      }

      .cls-3 {
        fill: url(#linear-gradient-13);
      }

      .cls-4 {
        fill: url(#linear-gradient-2);
      }

      .cls-5 {
        fill: url(#linear-gradient-10);
      }

      .cls-6 {
        fill: url(#linear-gradient-12);
      }

      .cls-7 {
        fill: #fff;
      }

      .cls-8 {
        fill: url(#linear-gradient-4);
      }

      .cls-9 {
        fill: url(#linear-gradient-3);
      }

      .cls-10 {
        fill: url(#linear-gradient-5);
      }

      .cls-11 {
        fill: #40defa;
      }

      .cls-12 {
        fill: url(#linear-gradient-8);
      }

      .cls-13 {
        fill: url(#linear-gradient-14);
      }

      .cls-14 {
        fill: url(#linear-gradient-20);
      }

      .cls-15 {
        fill: url(#linear-gradient-17);
      }

      .cls-16 {
        fill: url(#linear-gradient-7);
      }

      .cls-17 {
        fill: url(#linear-gradient-9);
      }

      .cls-18 {
        fill: url(#linear-gradient-11);
      }

      .cls-19 {
        fill: url(#linear-gradient-19);
      }

      .cls-20 {
        fill: url(#linear-gradient-6);
      }

      .cls-21 {
        fill: url(#linear-gradient-21);
      }

      .cls-22 {
        fill: url(#linear-gradient-16);
      }

      .cls-23 {
        fill: url(#linear-gradient);
      }

      .cls-24 {
        fill: url(#linear-gradient-18);
      }
    </style>
    <linearGradient id="linear-gradient" x1="20.08" y1="114.46" x2="389.71" y2="114.46" gradientUnits="userSpaceOnUse">
      <stop offset="0" stop-color="#4759f5"/>
      <stop offset=".7" stop-color="#0096d6"/>
      <stop offset="1" stop-color="#40defa"/>
    </linearGradient>
    <linearGradient id="linear-gradient-2" x1="20.08" y1="112.47" x2="389.71" y2="112.47" xlink:href="#linear-gradient"/>
    <linearGradient id="linear-gradient-3" x1="20.08" y1="110.49" x2="389.71" y2="110.49" xlink:href="#linear-gradient"/>
    <linearGradient id="linear-gradient-4" x1="20.08" y1="108.54" x2="389.71" y2="108.54" xlink:href="#linear-gradient"/>
    <linearGradient id="linear-gradient-5" x1="20.08" y1="106.52" x2="389.71" y2="106.52" xlink:href="#linear-gradient"/>
    <linearGradient id="linear-gradient-6" x1="20.08" y1="104.54" x2="389.71" y2="104.54" xlink:href="#linear-gradient"/>
    <linearGradient id="linear-gradient-7" x1="20.08" y1="102.57" x2="389.71" y2="102.57" xlink:href="#linear-gradient"/>
    <linearGradient id="linear-gradient-8" x1="20.08" y1="100.65" x2="389.71" y2="100.65" xlink:href="#linear-gradient"/>
    <linearGradient id="linear-gradient-9" x1="20.08" y1="98.69" x2="389.71" y2="98.69" xlink:href="#linear-gradient"/>
    <linearGradient id="linear-gradient-10" x1="20.08" y1="96.72" y2="96.72" xlink:href="#linear-gradient"/>
    <linearGradient id="linear-gradient-11" x1="20.08" y1="94.74" x2="389.71" y2="94.74" xlink:href="#linear-gradient"/>
    <linearGradient id="linear-gradient-12" x1="20.08" y1="92.77" x2="389.71" y2="92.77" xlink:href="#linear-gradient"/>
    <linearGradient id="linear-gradient-13" x1="20.08" y1="90.81" x2="389.71" y2="90.81" xlink:href="#linear-gradient"/>
    <linearGradient id="linear-gradient-14" x1="20.08" y1="88.84" x2="389.71" y2="88.84" xlink:href="#linear-gradient"/>
    <linearGradient id="linear-gradient-15" x1="20.08" y1="86.87" x2="389.71" y2="86.87" xlink:href="#linear-gradient"/>
    <linearGradient id="linear-gradient-16" x1="20.08" y1="84.89" x2="389.71" y2="84.89" xlink:href="#linear-gradient"/>
    <linearGradient id="linear-gradient-17" x1="20.08" y1="82.92" x2="389.71" y2="82.92" xlink:href="#linear-gradient"/>
    <linearGradient id="linear-gradient-18" x1="20.08" y1="80.94" x2="389.71" y2="80.94" xlink:href="#linear-gradient"/>
    <linearGradient id="linear-gradient-19" x1="20.08" y1="79.01" x2="389.71" y2="79.01" xlink:href="#linear-gradient"/>
    <linearGradient id="linear-gradient-20" x1="20.08" y1="77.09" x2="389.71" y2="77.09" xlink:href="#linear-gradient"/>
    <linearGradient id="linear-gradient-21" x1=".29" y1="75.1" x2="392.46" y2="75.1" xlink:href="#linear-gradient"/>
  </defs>
  <g id="Logo">
    <g>
      <path class="cls-23" d="M392.49,114.65H.2c-.11,0-.2-.09-.2-.2s.09-.2.2-.2h392.3c.11,0,.2.09.2.2s-.09.2-.2.2Z"/>
      <path class="cls-4" d="M183.11,116.29c-2.88,0-4.46-.06-4.63-.2-1.25-.76-40.69-3.72-64.26-5.49-11.2-.84-19.3-1.45-19.96-1.56-1.2-.22-49.08,2.79-84.04,4.99l-9.81.62-.02-.39,9.81-.62c45.5-2.86,83.23-5.21,84.14-4.98.63.11,9.13.75,19.91,1.55,33.46,2.51,63.57,4.83,64.48,5.58,1.45.61,52.44-1.06,76.94-1.87,8.45-.28,14.55-.48,15.32-.48,1.73,0,18.79.48,33.84.91,10.9.31,20.32.58,21.01.58.8,0,9.5-.15,18.71-.31,10.82-.19,22-.38,23.2-.38h24.96v.39h-24.96c-1.2,0-12.38.19-23.2.38-9.22.16-17.92.31-18.72.31-.69,0-10.11-.27-21.02-.58-15.05-.43-32.1-.91-33.82-.91-.76,0-6.86.2-15.31.48-36.62,1.2-62.51,1.97-72.57,1.97Z"/>
      <path class="cls-9" d="M177.06,117.95c-2.76,0-4.4-.11-4.7-.36-1.52-1.26-25.91-5.74-72.48-13.31-2.75-.45-4.56-.74-5.14-.84-1.72-.43-41.9,4.63-74.18,8.69-7.09.89-13.94,1.75-20.14,2.53l-.05-.39c6.2-.77,13.04-1.63,20.14-2.53,34-4.28,72.54-9.12,74.31-8.68.56.1,2.37.39,5.12.84,17.39,2.82,70.3,11.42,72.67,13.39,1.44,1.2,45.1-1.57,71.18-3.23,12.42-.79,22.23-1.41,24.16-1.41,3.45,0,20.31.97,35.18,1.82,10.77.62,20.07,1.15,21.45,1.15,1.59,0,10.19-.3,19.3-.62,10.69-.37,21.74-.76,24.15-.76h24.67v.39h-24.67c-2.4,0-13.45.39-24.14.76-9.11.32-17.71.62-19.31.62-1.39,0-10.7-.53-21.47-1.15-14.87-.85-31.72-1.82-35.16-1.82-1.91,0-11.72.62-24.13,1.41-29.23,1.86-56.16,3.5-66.75,3.5Z"/>
      <path class="cls-8" d="M170.97,119.64c-2.78,0-4.5-.16-4.93-.52-4.16-3.46-65.31-20.25-71.03-21.24-2.44-.61-37.91,6.09-69.2,12.01-9.14,1.73-17.59,3.32-25.41,4.77l-.24-.35c7.81-1.45,16.44-3.08,25.58-4.81,32.86-6.21,66.85-12.63,69.36-12,5.72.99,67.01,17.85,71.2,21.33,2.06,1.71,41.43-1.94,67.49-4.36,14.86-1.38,27.69-2.57,30.93-2.57,5.18,0,21.84,1.45,36.53,2.73,10.64.93,19.83,1.73,21.89,1.73,2.39,0,10.88-.45,19.88-.93,10.56-.56,21.48-1.14,25.1-1.14h24.38v.39h-24.38c-3.6,0-14.52.58-25.07,1.14-9,.48-17.5.93-19.9.93-2.08,0-11.28-.8-21.93-1.73-14.69-1.28-31.33-2.73-36.5-2.73-3.23,0-16.05,1.19-30.9,2.57-28.19,2.62-52.66,4.8-62.84,4.8Z"/>
      <path class="cls-10" d="M165.35,121.25c-2.83,0-4.67-.21-5.24-.68-5.6-4.66-56.18-26.91-64.43-28.34-3.14-.78-35.23,7.32-66.26,15.15-9.9,2.5-20.14,5.08-28.99,7.26l-.09-.38c8.85-2.18,19.09-4.76,28.99-7.26,31.08-7.85,63.22-15.95,66.44-15.16,8.26,1.43,58.98,23.75,64.6,28.42,2.65,2.2,37.17-1.99,64.91-5.36,17.13-2.08,31.93-3.88,36.6-3.88,6.91,0,23.36,1.93,37.88,3.64,10.51,1.23,19.58,2.3,22.34,2.3,3.18,0,11.58-.6,20.46-1.24,10.44-.75,21.23-1.52,26.04-1.52h24.09v.39h-24.09c-4.8,0-15.58.77-26.01,1.52-8.89.64-17.29,1.24-20.49,1.24-2.78,0-11.86-1.07-22.39-2.3-14.51-1.7-30.95-3.63-37.83-3.63-4.64,0-19.43,1.8-36.55,3.87-23.27,2.82-49,5.95-59.97,5.95Z"/>
      <path class="cls-20" d="M159.48,122.9c-2.87,0-4.79-.25-5.49-.83-7.32-6.09-47.46-33.64-57.84-35.44-3.83-.96-34.61,8.79-64.38,18.2-10.69,3.38-21.74,6.88-31.33,9.81l-.11-.37c9.59-2.93,20.64-6.43,31.33-9.81,31.19-9.87,60.66-19.19,64.58-18.21,10.42,1.81,50.67,29.41,58.01,35.52,3.21,2.67,36.37-2.28,63.01-6.25,18.21-2.72,35.42-5.28,41.57-5.28,8.63,0,24.89,2.42,39.23,4.55,10.38,1.54,19.34,2.87,22.78,2.87,3.98,0,12.27-.75,21.04-1.55,10.31-.94,20.97-1.9,26.99-1.9h23.81v.39h-23.81c-6,0-16.65.97-26.95,1.9-8.78.8-17.08,1.55-21.08,1.55-3.47,0-12.45-1.33-22.84-2.88-14.33-2.13-30.57-4.54-39.17-4.54-6.13,0-23.32,2.56-41.52,5.28-22.27,3.32-46.9,6.99-57.83,6.99Z"/>
      <path class="cls-16" d="M153.69,124.57c-2.95,0-4.98-.31-5.82-1-2.09-1.74-5.59-5.18-10.04-9.55-12.71-12.49-31.92-31.37-41.21-32.98-4.51-1.12-34.27,10.21-63.05,21.16-11.28,4.3-22.95,8.74-33.14,12.45l-.13-.37c10.18-3.71,21.85-8.15,33.13-12.45,30.16-11.48,58.65-22.33,63.27-21.18,9.4,1.63,28.66,20.56,41.4,33.09,4.43,4.36,7.94,7.8,10.01,9.53,3.75,3.12,34.48-2.29,61.6-7.07,19.73-3.48,38.38-6.76,46.08-6.76,10.36,0,26.41,2.9,40.58,5.46,10.25,1.85,19.1,3.45,23.23,3.45,4.78,0,12.96-.9,21.63-1.86,10.18-1.12,20.71-2.28,27.93-2.28h23.52v.39h-23.52c-7.2,0-17.72,1.16-27.89,2.28-8.68.96-16.87,1.86-21.67,1.86-4.17,0-13.03-1.6-23.3-3.45-14.15-2.56-30.18-5.45-40.51-5.45-7.67,0-26.29,3.28-46.01,6.75-22.37,3.94-45.34,7.99-56.09,7.99Z"/>
      <path class="cls-12" d="M147.68,126.28c-3.01,0-5.14-.35-6.1-1.15-3.37-2.81-8.09-9.49-13.54-17.22-9.67-13.71-21.71-30.77-31.11-32.4-5.19-1.29-34.22,11.64-62.29,24.15-11.68,5.2-23.59,10.51-34.21,15l-.31-.29c10.61-4.48,22.68-9.86,34.36-15.06,29.43-13.11,57.22-25.5,62.53-24.17,9.54,1.65,21.63,18.79,31.34,32.56,5.44,7.71,10.14,14.38,13.48,17.15,4.28,3.56,32.87-2.23,60.52-7.83,21.06-4.27,40.95-8.29,50.23-8.29,12.09,0,27.94,3.38,41.92,6.37,10.12,2.16,18.85,4.02,23.67,4.02,5.57,0,13.65-1.05,22.21-2.17,10.05-1.31,20.45-2.67,28.88-2.67h23.23v.39h-23.23c-8.4,0-18.79,1.35-28.83,2.66-8.57,1.12-16.66,2.17-22.26,2.17-4.86,0-13.62-1.87-23.75-4.03-13.97-2.98-29.8-6.36-41.84-6.36-9.24,0-29.12,4.03-50.16,8.29-21.69,4.39-43.95,8.9-54.75,8.9Z"/>
      <path class="cls-17" d="M141.91,127.97c-3.11,0-5.34-.41-6.46-1.34-4.31-3.59-8.62-12.92-13.18-22.81-6.96-15.08-14.85-32.18-24.88-33.92-5.87-1.46-33.03,12.4-61.79,27.07-11.98,6.11-24.31,12.4-35.29,17.66l-.22-.32c10.97-5.26,23.35-11.58,35.33-17.69,28.82-14.71,56.05-28.6,62.04-27.1,10.22,1.77,18.15,18.96,25.15,34.13,4.54,9.84,8.83,19.14,13.07,22.67,4.8,3.99,32.71-2.38,59.7-8.55,21.26-4.85,43.23-9.87,54.13-9.87,13.81,0,29.47,3.87,43.27,7.28,9.98,2.47,18.61,4.6,24.12,4.6,6.37,0,14.34-1.2,22.79-2.48,9.93-1.5,20.19-3.05,29.83-3.05h22.94v.39h-22.94c-9.6,0-19.85,1.55-29.77,3.04-8.46,1.28-16.45,2.48-22.85,2.48-5.56,0-14.2-2.14-24.21-4.61-13.79-3.41-29.41-7.27-43.18-7.27-10.85,0-32.81,5.01-54.05,9.86-21.93,5.01-42.93,9.8-53.59,9.8Z"/>
      <path class="cls-5" d="M136.09,129.63c-3.18,0-5.5-.45-6.74-1.49-5.15-4.28-8.2-15.66-11.44-27.7-4.52-16.83-9.2-34.24-20.03-36.12-6.53-1.63-33.06,13.67-61.15,29.87-12.31,7.09-24.9,14.34-36.27,20.43-.1.05-.28.03-.33-.07-.05-.09-.08-.14.01-.19,11.36-6.09,24.09-13.42,36.39-20.51,28.16-16.24,54.77-31.57,61.43-29.91,11.06,1.92,15.77,19.45,20.32,36.4,3.22,11.98,6.26,23.3,11.31,27.5,5.31,4.42,32.65-2.52,59.09-9.23,22.27-5.65,45.29-11.49,57.83-11.49,15.54,0,30.99,4.35,44.62,8.19,9.85,2.77,18.36,5.17,24.56,5.17,7.16,0,15.04-1.35,23.37-2.79,9.8-1.69,19.94-3.43,30.77-3.43h22.66c.11,0,.2.09.2.2s-.09.2-.2.2h-22.66c-10.8,0-20.92,1.74-30.71,3.42-8.35,1.44-16.24,2.79-23.44,2.79-6.25,0-14.79-2.4-24.67-5.18-13.61-3.83-29.03-8.17-44.52-8.17-12.49,0-35.49,5.83-57.74,11.48-21.43,5.44-41.94,10.64-52.69,10.64Z"/>
      <path class="cls-18" d="M130.26,131.28c-3.24,0-5.66-.5-7.03-1.64-5.93-4.94-7.44-18.22-9.03-32.27-2.04-18-4.14-36.62-15.84-38.64-7.2-1.8-33.4,15.04-61.15,32.87-12.45,8-25.19,16.19-36.78,23.05l-.33-.25c11.59-6.86,24.46-15.13,36.9-23.12,27.82-17.87,54.09-34.75,61.44-32.92,11.97,2.08,14.1,20.84,16.15,38.98,1.58,13.98,3.07,27.18,8.89,32.02,5.81,4.83,31.47-2.31,58.63-9.88,23.19-6.46,47.16-13.14,61.37-13.14,17.27,0,32.52,4.83,45.97,9.1,9.72,3.08,18.12,5.74,25,5.74,7.96,0,15.73-1.5,23.95-3.1,9.55-1.85,19.41-3.76,31.24-3.81h0s22.85,0,22.85,0v.39h-22.37c-12,0-21.99,1.93-31.64,3.8-8.25,1.6-16.03,3.1-24.03,3.1-6.95,0-15.37-2.67-25.12-5.76-13.43-4.26-28.64-9.08-45.85-9.08-14.15,0-38.1,6.67-61.26,13.12-21,5.85-41.1,11.45-51.95,11.45Z"/>
      <path class="cls-6" d="M124.44,132.93c-3.31,0-5.83-.54-7.33-1.79-6.7-5.57-6.47-20.67-6.24-36.66.28-19.25.58-39.16-12.04-41.35-7.86-1.96-33.6,16.3-60.86,35.63-12.67,8.98-25.65,18.19-37.56,25.88l-.33-.25c11.9-7.69,25-16.98,37.66-25.96,27.33-19.38,53.14-37.69,61.17-35.69,12.93,2.24,12.63,22.32,12.35,41.74-.23,15.89-.45,30.9,6.1,36.35,6.3,5.24,31.56-2.41,58.31-10.51,24.03-7.28,48.89-14.81,64.78-14.81,19,0,34.04,5.32,47.32,10.01,9.59,3.39,17.87,6.32,25.45,6.32,8.75,0,16.42-1.65,24.54-3.4,9.23-1.99,18.77-4.05,31.37-4.18h0s23.37,0,23.37,0v.39h-22.08c-13.2,0-23.05,2.13-32.58,4.18-8.14,1.76-15.82,3.41-24.62,3.41-7.64,0-15.95-2.94-25.58-6.34-13.25-4.68-28.26-9.99-47.19-9.99-15.83,0-40.66,7.52-64.66,14.79-20.62,6.25-40.37,12.22-51.35,12.23Z"/>
      <path class="cls-3" d="M118.7,134.64c-3.42,0-6.04-.61-7.7-1.99-7.44-6.19-5.39-23.07-3.22-40.94,2.5-20.56,5.08-41.82-8.47-44.17-8.55-2.13-34.07,17.65-61.09,38.59-12.71,9.85-25.85,20.04-37.91,28.48l-.22-.32c12.05-8.44,25.19-18.63,37.89-28.47,27.1-21,52.7-40.84,61.41-38.67,13.9,2.41,11.29,23.86,8.77,44.6-2.06,16.98-4.2,34.53,3.08,40.59,6.79,5.65,31.71-2.49,58.09-11.11,23.67-7.73,50.49-16.5,68.08-16.5,20.72,0,35.57,5.8,48.67,10.92,9.46,3.7,17.63,6.89,25.89,6.89,9.55,0,17.11-1.8,25.12-3.71,8.91-2.13,18.12-4.32,31.32-4.55v-.02h24.08v.39h-21.75c-14.44,0-24.16,2.32-33.56,4.56-8.03,1.92-15.61,3.72-25.21,3.72-8.34,0-16.54-3.21-26.04-6.92-13.07-5.11-27.88-10.89-48.53-10.89-17.52,0-44.32,8.75-67.95,16.48-21.03,6.87-39.89,13.03-50.76,13.03Z"/>
      <path class="cls-13" d="M112.88,136.29c-3.49,0-6.21-.65-8-2.14-8.17-6.8-4.04-26.29-.04-45.14,3.62-17.07,7.37-34.73,1.95-42.73-1.61-2.38-3.9-3.79-7-4.33-9.19-2.29-34.4,18.97-61.08,41.48-12.84,10.83-26,21.94-38.28,31.22l-.35-.23c12.27-9.27,25.54-20.46,38.37-31.29,26.76-22.58,52.04-43.9,61.41-41.57,3.15.55,5.6,2.06,7.25,4.49,5.51,8.14,1.75,25.88-1.89,43.03-3.98,18.73-8.09,38.11-.09,44.76,7.27,6.05,30.77-2.17,57.97-11.7,24.37-8.53,51.98-18.21,71.28-18.21,22.45,0,37.09,6.29,50.02,11.83,9.33,4,17.39,7.46,26.34,7.46,10.34,0,17.8-1.95,25.7-4.02,8.6-2.25,17.47-4.58,31.15-4.91v-.04h24.91v.39h-21.47c-15.64,0-25.22,2.51-34.49,4.94-7.92,2.08-15.4,4.04-25.8,4.04-9.03,0-17.12-3.47-26.49-7.49-12.89-5.53-27.49-11.8-49.86-11.8-19.23,0-46.82,9.66-71.16,18.18-20.74,7.26-39.34,13.78-50.34,13.78Z"/>
      <path class="cls-2" d="M107.06,137.95c-3.56,0-6.38-.7-8.3-2.3-8.9-7.41-2.72-28.7,3.25-49.29,5.28-18.2,10.73-37.01,5.45-45.47-1.55-2.48-3.91-3.97-7.19-4.54-9.86-2.46-34.76,20.23-61.12,44.25C26.21,92.4,12.88,104.54.37,114.64l-.3-.26c12.5-10.09,25.88-22.28,38.81-34.07,26.44-24.09,51.41-46.84,61.46-44.34,3.34.58,5.85,2.17,7.44,4.71,5.38,8.61-.1,27.51-5.41,45.79-5.94,20.47-12.08,41.64-3.38,48.88,7.75,6.45,31-2.22,57.92-12.27,25.03-9.34,53.39-19.93,74.42-19.93,24.18,0,38.62,6.77,51.36,12.74,9.2,4.31,17.14,8.04,26.78,8.04,11.14,0,18.49-2.1,26.28-4.33,8.3-2.37,16.85-4.82,30.9-5.26v-.07h25.83v.39h-21.18c-16.84,0-26.29,2.7-35.43,5.32-7.81,2.24-15.19,4.35-26.39,4.35-9.73,0-17.71-3.74-26.95-8.07-12.71-5.96-27.11-12.71-51.2-12.71-20.95,0-49.29,10.58-74.28,19.91-20.49,7.65-38.86,14.5-50,14.5Z"/>
      <path class="cls-22" d="M101.24,139.6c-3.63,0-6.55-.75-8.6-2.45-9.62-8-1.36-31.08,6.62-53.4,6.92-19.34,14.07-39.35,8.87-48.26-1.51-2.58-3.92-4.13-7.39-4.73-10.52-2.62-35.13,21.5-61.19,47.04C26.53,90.56,13.11,103.73.4,114.65l-.29-.26c12.7-10.91,26.16-24.1,39.17-36.86,26.14-25.62,50.82-49.81,61.54-47.14,3.52.61,6.1,2.27,7.65,4.92,5.29,9.07-1.57,28.27-8.84,48.59-7.94,22.19-16.14,45.14-6.73,52.97,8.23,6.85,31.26-2.27,57.93-12.83,25.65-10.16,54.73-21.67,77.49-21.67,25.9,0,40.15,7.26,52.71,13.66,9.07,4.62,16.9,8.61,27.23,8.61,11.94,0,19.19-2.25,26.86-4.64,8.01-2.49,16.25-5.05,30.58-5.61v-.11h26.8v.39h-20.89c-18.04,0-27.36,2.9-36.37,5.7-7.71,2.4-14.99,4.66-26.98,4.66-10.42,0-18.29-4.01-27.4-8.65-12.53-6.38-26.72-13.61-52.53-13.61-22.68,0-51.72,11.5-77.34,21.64-20.26,8.02-38.44,15.22-49.73,15.22Z"/>
      <path class="cls-15" d="M95.43,141.26c-3.71,0-6.73-.79-8.9-2.6-10.33-8.6.03-33.45,10.04-57.48,8.55-20.51,17.39-41.72,12.24-51.09-1.47-2.68-3.95-4.29-7.59-4.92-11.18-2.78-35.64,22.88-61.54,50.04C26.64,88.89,13.25,102.93.43,114.63l-.36-.19c12.81-11.69,26.29-25.83,39.33-39.5,25.98-27.25,50.52-52.99,61.91-50.16,3.7.64,6.34,2.36,7.85,5.11,5.24,9.54-3.25,29.89-12.22,51.43-9.96,23.9-20.26,48.62-10.15,57.03,8.7,7.24,31.55-2.31,58.01-13.38,26.25-10.98,55.99-23.42,80.5-23.42,27.63,0,41.67,7.74,54.06,14.57,8.94,4.93,16.65,9.18,27.67,9.18,12.73,0,19.88-2.4,27.45-4.95,7.73-2.6,15.69-5.28,30.22-5.94v-.16h27.82v.39h-20.61c-19.24,0-28.42,3.09-37.31,6.08-7.6,2.56-14.78,4.97-27.57,4.97-11.12,0-18.88-4.28-27.86-9.23-12.35-6.81-26.34-14.52-53.87-14.52-24.43,0-54.13,12.43-80.35,23.39-20.07,8.39-38.07,15.92-49.5,15.92Z"/>
      <path class="cls-24" d="M89.61,142.91c-3.78,0-6.9-.84-9.2-2.75-11.04-9.19,1.44-35.8,13.51-61.54,10.64-22.69,20.7-44.12,15.58-53.95-1.44-2.77-3.99-4.44-7.8-5.1-11.85-2.96-35.97,24-61.5,52.54C27.03,86.82,13.43,102.02.33,114.6l-.27-.28c13.09-12.56,26.69-27.76,39.84-42.46,26.73-29.87,49.81-55.67,61.88-52.66,3.87.67,6.59,2.45,8.07,5.3,5.21,10-4.88,31.52-15.57,54.3-12.01,25.6-24.43,52.08-13.62,61.07,9.17,7.63,31.86-2.35,58.13-13.92,26.81-11.8,57.2-25.18,83.46-25.18,29.36,0,43.2,8.22,55.41,15.48,8.81,5.23,16.41,9.75,28.12,9.75,13.53,0,20.57-2.55,28.03-5.26,7.46-2.71,15.14-5.49,29.83-6.27v-.21h28.87v.39h-20.32c-20.44,0-29.49,3.28-38.25,6.46-7.49,2.72-14.57,5.28-28.16,5.28-11.81,0-19.46-4.54-28.32-9.81-12.17-7.23-25.96-15.43-55.21-15.43-26.17,0-56.52,13.36-83.3,25.15-19.89,8.76-37.74,16.61-49.33,16.61Z"/>
      <path class="cls-19" d="M83.8,144.57c-3.86,0-7.07-.88-9.5-2.91-11.75-9.78,2.88-38.15,17.02-65.58,12.34-23.94,24-46.55,18.88-56.83-1.42-2.86-4.04-4.58-8.02-5.27-13.1-2.33-37.11,26.13-62.53,56.26C26.7,85.58,13.32,101.45.33,114.62l-.28-.27c12.98-13.16,26.35-29.02,39.29-44.35,13.02-15.43,25.32-30.01,36.12-40.56,12.17-11.89,20.68-16.92,26.78-15.83,4.05.7,6.84,2.55,8.3,5.48,5.2,10.46-6.5,33.15-18.88,57.18-14.07,27.3-28.62,55.53-17.12,65.1,9.64,8.02,32.18-2.39,58.29-14.44,27.36-12.63,58.36-26.95,86.38-26.95,31.09,0,44.72,8.71,56.76,16.39,8.68,5.54,16.17,10.32,28.56,10.32,14.32,0,21.26-2.7,28.61-5.57,7.21-2.81,14.62-5.7,29.41-6.59v-.28h29.95v.39h-20.03c-21.64,0-30.56,3.47-39.18,6.84-7.38,2.88-14.36,5.59-28.75,5.59-12.51,0-20.04-4.81-28.77-10.39-11.99-7.65-25.57-16.33-56.55-16.33-27.93,0-58.9,14.3-86.21,26.91-19.74,9.11-37.45,17.29-49.2,17.29Z"/>
      <path class="cls-14" d="M78.09,146.3c-3.96,0-7.3-.96-9.91-3.13-12.45-10.37,4.33-40.48,20.55-69.61,14.03-25.19,27.29-48.98,22.16-59.72-1.41-2.94-4.1-4.73-8.24-5.44-13.56-2.31-37.54,27.73-62.92,59.53C26.89,84.01,13.61,100.65.68,114.49l-.28-.27c12.93-13.83,26.2-30.46,39.04-46.55,13-16.28,25.27-31.66,36.12-42.82,12.22-12.57,20.86-17.93,27.17-16.85,4.22.73,7.08,2.63,8.53,5.66,5.21,10.92-8.09,34.8-22.17,60.08-16.15,28.99-32.85,58.96-20.65,69.12,4.62,3.85,11.93,4.01,23.01.5,10.06-3.18,22.41-9.15,35.48-15.46,27.88-13.46,59.48-28.73,89.26-28.73,32.81,0,46.25,9.19,58.1,17.3,8.54,5.85,15.92,10.9,29.01,10.9,15.12,0,21.95-2.85,29.19-5.87,6.97-2.91,14.13-5.9,28.97-6.9v-.35h31.05v.39h-19.74c-22.84,0-31.62,3.67-40.12,7.21-7.28,3.04-14.15,5.9-29.34,5.9-13.2,0-20.63-5.08-29.23-10.96-11.81-8.08-25.19-17.24-57.88-17.24-29.69,0-61.25,15.24-89.09,28.69-20.27,9.79-37.36,18.04-49,18.04Z"/>
      <g>
        <path d="M141.74,88.41c0,.41-.3.71-.71.71h-8.23c-.41,0-.71-.3-.71-.71l.41-35.56-.41-34.14c0-.41.3-.71.71-.71h8.23c.41,0,.71.3.71.71l-.3,34.14.3,35.56Z"/>
        <path d="M222.2,88.41c0,.41-.3.71-.71.71h-8.03c-.41,0-.71-.3-.71-.71l.2-19.91v-11.78c0-10.06-3.96-14.12-10.06-14.12-5.59,0-10.16,5.08-12.39,13.61v12.29l.2,19.91c0,.41-.3.71-.71.71h-8.13c-.41,0-.71-.3-.71-.71l.2-19.91v-11.78c0-10.06-3.86-14.12-9.96-14.12s-10.97,5.89-12.9,15.75v10.16l.2,19.91c0,.41-.3.71-.71.71h-8.23c-.41,0-.71-.3-.71-.71l.3-19.91-.2-30.99c0-.41.3-.71.71-.71h7.72c.41,0,.71.3.71.71l-.3,8.43c3.25-5.69,8.33-10.36,16.15-10.36s12.8,3.45,15.14,10.97c3.66-6.91,9.04-10.97,16.46-10.97,10.26,0,16.36,6.5,16.36,20.83v12.09l.1,19.91Z"/>
        <path d="M264.57,37.52c0-.41.3-.71.71-.71h7.92c.41,0,.71.3.71.71l-.2,24.89.2,26.01c0,.41-.3.71-.71.71h-7.82c-.41,0-.71-.3-.71-.71l.2-7.72c-3.56,5.89-9.14,9.45-16.76,9.45-14.12,0-21.64-11.89-21.64-27.02s8.03-27.33,21.84-27.33c7.31,0,13,3.15,16.46,8.94l-.2-7.21ZM265.07,63.42c.1-13.41-5.18-21.13-14.43-21.23-10.06-.1-14.73,8.33-14.73,20.22,0,12.6,4.67,21.33,14.53,21.23,9.04,0,14.53-6.81,14.63-20.22Z"/>
        <path d="M317.39,36.81h7.92c.41,0,.71.3.71.71l-.3,19.71.1,28.14c.1,15.24-8.33,23.67-23.26,23.67-11.99.1-21.64-4.98-22.55-16.36,0-.41.3-.71.71-.71h7.82c.41,0,.71.2.81.71.71,6.81,5.99,9.96,13.41,9.96,8.53,0,14.43-5.28,14.43-17.37v-5.59c-3.35,5.79-8.94,9.14-16.25,9.14-14.63,0-22.35-11.07-22.35-26.01s7.92-26.82,22.05-26.82c7.31,0,12.9,3.05,16.36,8.84l-.3-7.32c0-.41.3-.71.71-.71ZM317.19,63.22c.1-13.21-5.18-20.93-14.43-21.03-9.85-.1-14.73,8.03-14.73,20.32s4.98,20.22,14.93,20.12c8.53-.1,14.12-6.3,14.22-19.4Z"/>
        <path d="M342.18,88.41c0,.41-.3.71-.71.71h-8.13c-.41,0-.71-.3-.71-.71l.2-26.31-.2-24.59c0-.41.3-.71.71-.71h8.13c.41,0,.71.3.71.71l-.2,24.59.2,26.31ZM342.18,21.87v8.43c0,.41-.3.71-.71.71h-8.03c-.41,0-.71-.3-.71-.71v-8.43c0-.41.3-.71.71-.71h8.03c.41,0,.71.3.71.71Z"/>
        <path d="M358.43,88.41c0,.41-.3.71-.71.71h-8.13c-.41,0-.71-.3-.71-.71l.3-23.06-.2-27.84c0-.41.3-.71.71-.71h7.72c.41,0,.71.3.71.71l-.3,8.43c3.25-5.38,9.14-10.36,17.47-10.36,10.77,0,17.58,7.11,17.58,20.83v10.36l.1,21.64c0,.41-.3.71-.71.71h-8.03c-.41,0-.71-.3-.71-.71l.2-21.64v-10.06c0-9.75-4.47-14.12-10.97-14.12-6.91,0-12.39,5.59-14.43,15.75v8.43l.1,21.64Z"/>
        <path d="M436.25,71.55c.1-.41.3-.61.71-.61h7.52c.41,0,.81.31.71.71-1.63,10.87-9.45,18.69-22.96,18.69-16.25,0-24.99-11.28-24.99-27.23s9.24-27.53,24.48-27.53,24.18,10.46,24.38,27.84c0,.41-.31.71-.71.71h-38.81c.3,12.9,5.49,19.71,15.75,19.71,7.82,0,12.5-4.37,13.92-12.29ZM406.89,57.84h29.16c-.3-8.64-4.98-15.85-14.22-15.85-8.64,0-13.71,5.79-14.93,15.85Z"/>
      </g>
      <path class="cls-11" d="M392.47,114.2h.35c.08,0,.15.07.15.15v.15c0,.08-.07.15-.15.15h-.35v-.45h0Z"/>
      <path class="cls-21" d="M72.35,147.98c-4.04,0-7.48-1-10.23-3.29-13.21-10.99,5.87-43.18,24.32-74.3,15.68-26.46,30.5-51.46,25.3-62.37-1.41-2.96-4.19-4.71-8.5-5.35-15.44-1.72-39.2,29.97-64.36,63.52C26.34,82.9,13.38,100.18.58,114.62l-.29-.26c12.79-14.43,25.75-31.7,38.28-48.41,12.87-17.16,25.02-33.36,36.03-45.23C87,7.34,96.12,1.48,103.29,2.28c4.4.66,7.36,2.53,8.8,5.57,5.28,11.11-9.58,36.19-25.32,62.74-18.36,30.99-37.35,63.03-24.4,73.81,10.58,8.8,31.86-1.92,58.79-15.49,27.01-13.61,60.62-30.55,92.21-30.55,34.58,0,47.83,9.69,59.52,18.24,8.42,6.16,15.7,11.48,29.48,11.48,15.93,0,22.67-3.01,29.81-6.19,8.42-3.75,17.12-7.64,41.23-7.64v.13s.01-.13.01-.13c.05,0,1.01-.02,19.04-.02v.39c-9.32,0-14.08.04-16.51.03-1.58,0-2.25,0-2.53-.05v.03s0-.03,0-.03c0,0,0,0,0,0v.03c-24.02,0-32.69,3.86-41.07,7.6-7.18,3.2-13.95,6.22-29.96,6.22-13.91,0-21.24-5.36-29.71-11.56-11.64-8.51-24.83-18.16-59.29-18.16-31.5,0-65.06,16.91-92.03,30.5-20.17,10.16-37.18,18.73-48.99,18.73Z"/>
      <g>
        <ellipse class="cls-7" cx="531.27" cy="61.62" rx="61.18" ry="61.62"/>
        <path class="cls-1" d="M531.27,118.28c-.56,0-1.13-.01-1.68-.03l11.58-31.83h15.94c2.8,0,5.87-2.15,6.82-4.78l12.56-34.51c2.05-5.65-1.18-10.27-7.19-10.27h-22.11l-18.55,50.98h0l-10.52,28.9c-24.95-5.93-43.51-28.36-43.51-55.13s17.5-47.9,41.37-54.57l-10.85,29.83h0l-18.04,49.56h12.01l15.34-42.11h9.02l-15.34,42.11h12l14.3-39.29c2.06-5.65-1.18-10.27-7.19-10.27h-10.09l11.59-31.85c.84-.04,1.69-.06,2.55-.06,31.29,0,56.67,25.37,56.67,56.67s-25.37,56.67-56.67,56.67ZM565.55,44.29h-9.02l-12.64,34.67h9.02l12.64-34.67h0Z"/>
      </g>
    </g>
  </g>
</svg>