<?xml version="1.0" encoding="UTF-8"?>
<svg id="Layer_2" xmlns="http://www.w3.org/2000/svg" xmlns:xlink="http://www.w3.org/1999/xlink" viewBox="0 0 703.64 1080.65">
  <defs>
    <style>
      .cls-1 {
        fill: url(#linear-gradient-15);
      }

      .cls-2 {
        fill: url(#linear-gradient-13);
      }

      .cls-3 {
        fill: url(#linear-gradient-2);
      }

      .cls-4 {
        fill: url(#linear-gradient-10);
      }

      .cls-5 {
        fill: url(#linear-gradient-12);
      }

      .cls-6 {
        fill: none;
      }

      .cls-7 {
        fill: url(#linear-gradient-4);
      }

      .cls-8 {
        fill: url(#linear-gradient-3);
      }

      .cls-9 {
        fill: url(#linear-gradient-5);
      }

      .cls-10 {
        fill: url(#linear-gradient-8);
      }

      .cls-11 {
        fill: url(#linear-gradient-14);
      }

      .cls-12 {
        fill: url(#linear-gradient-20);
      }

      .cls-13 {
        fill: url(#linear-gradient-17);
      }

      .cls-14 {
        fill: url(#linear-gradient-7);
      }

      .cls-15 {
        fill: url(#linear-gradient-9);
      }

      .cls-16 {
        fill: url(#linear-gradient-11);
      }

      .cls-17 {
        fill: url(#linear-gradient-19);
      }

      .cls-18 {
        fill: url(#linear-gradient-6);
      }

      .cls-19 {
        fill: url(#linear-gradient-21);
      }

      .cls-20 {
        fill: url(#linear-gradient-16);
      }

      .cls-21 {
        fill: url(#linear-gradient);
      }

      .cls-22 {
        clip-path: url(#clippath);
      }

      .cls-23 {
        fill: url(#linear-gradient-18);
      }
    </style>
    <clipPath id="clippath">
      <rect class="cls-6" x="0" width="703.64" height="1080.65"/>
    </clipPath>
    <linearGradient id="linear-gradient" x1="-733.23" y1="-893.16" x2="836.54" y2="-893.16" gradientTransform="translate(-679.09 818.15) rotate(90)" gradientUnits="userSpaceOnUse">
      <stop offset="0" stop-color="#4759f5"/>
      <stop offset=".7" stop-color="#0096d6"/>
      <stop offset="1" stop-color="#40defa"/>
    </linearGradient>
    <linearGradient id="linear-gradient-2" x1="-733.23" y1="-901.6" x2="836.54" y2="-901.6" xlink:href="#linear-gradient"/>
    <linearGradient id="linear-gradient-3" x1="-733.23" y1="-910.01" x2="836.54" y2="-910.01" xlink:href="#linear-gradient"/>
    <linearGradient id="linear-gradient-4" x1="-733.23" y1="-918.27" x2="836.54" y2="-918.27" xlink:href="#linear-gradient"/>
    <linearGradient id="linear-gradient-5" x1="-733.23" y1="-926.86" x2="836.54" y2="-926.86" xlink:href="#linear-gradient"/>
    <linearGradient id="linear-gradient-6" x1="-733.23" y1="-935.27" x2="836.54" y2="-935.27" xlink:href="#linear-gradient"/>
    <linearGradient id="linear-gradient-7" x1="-733.23" y1="-943.65" x2="836.54" y2="-943.65" xlink:href="#linear-gradient"/>
    <linearGradient id="linear-gradient-8" x1="-733.23" y1="-951.78" x2="836.54" y2="-951.78" xlink:href="#linear-gradient"/>
    <linearGradient id="linear-gradient-9" x1="-733.23" y1="-960.11" x2="836.54" y2="-960.11" xlink:href="#linear-gradient"/>
    <linearGradient id="linear-gradient-10" x1="-733.23" y1="-968.49" x2="836.54" y2="-968.49" xlink:href="#linear-gradient"/>
    <linearGradient id="linear-gradient-11" x1="-733.23" y1="-976.88" x2="836.54" y2="-976.88" xlink:href="#linear-gradient"/>
    <linearGradient id="linear-gradient-12" x1="-733.23" y1="-985.27" x2="836.54" y2="-985.27" xlink:href="#linear-gradient"/>
    <linearGradient id="linear-gradient-13" x1="-733.23" y1="-993.56" x2="836.54" y2="-993.56" xlink:href="#linear-gradient"/>
    <linearGradient id="linear-gradient-14" x1="-733.23" y1="-1001.95" x2="836.54" y2="-1001.95" xlink:href="#linear-gradient"/>
    <linearGradient id="linear-gradient-15" x1="-733.23" y1="-1010.33" x2="836.54" y2="-1010.33" xlink:href="#linear-gradient"/>
    <linearGradient id="linear-gradient-16" x1="-733.23" y1="-1018.72" x2="836.54" y2="-1018.72" xlink:href="#linear-gradient"/>
    <linearGradient id="linear-gradient-17" x1="-733.23" y1="-1027.11" x2="836.54" y2="-1027.11" xlink:href="#linear-gradient"/>
    <linearGradient id="linear-gradient-18" x1="-733.23" y1="-1035.52" x2="836.54" y2="-1035.52" xlink:href="#linear-gradient"/>
    <linearGradient id="linear-gradient-19" x1="-733.23" y1="-1043.69" x2="836.54" y2="-1043.69" xlink:href="#linear-gradient"/>
    <linearGradient id="linear-gradient-20" x1="-733.23" y1="-1051.87" x2="836.54" y2="-1051.87" xlink:href="#linear-gradient"/>
    <linearGradient id="linear-gradient-21" x1="-817.28" y1="-1060.32" x2="848.22" y2="-1060.32" xlink:href="#linear-gradient"/>
  </defs>
  <g id="Graphic_Overlay">
    <g class="cls-22">
      <g>
        <path class="cls-21" d="M213.25,1666.5V.48c0-.46.37-.83.83-.83s.83.37.83.83v1666.03c0,.46-.37.83-.83.83s-.83-.37-.83-.83Z"/>
        <path class="cls-3" d="M206.27,777.3c0-12.24.27-18.96.84-19.65,3.24-5.29,15.81-172.8,23.32-272.89,3.57-47.58,6.15-81.95,6.64-84.75.94-5.08-11.86-208.42-21.2-356.9l-2.62-41.68,1.65-.1,2.62,41.68c12.15,193.21,22.13,353.47,21.16,357.35-.46,2.66-3.17,38.79-6.6,84.53-10.66,142.11-20.5,269.99-23.7,273.83-2.59,6.17,4.51,222.68,7.92,326.73,1.18,35.87,2.03,61.8,2.03,65.06,0,7.33-2.05,79.78-3.86,143.69-1.31,46.3-2.44,86.28-2.44,89.21,0,3.38.64,40.34,1.32,79.47.79,45.93,1.62,93.43,1.62,98.54v105.98s-1.66,0-1.66,0v-105.98c0-5.1-.82-52.59-1.62-98.51-.68-39.14-1.32-76.11-1.32-79.5,0-2.95,1.13-42.95,2.44-89.26,1.81-63.91,3.86-136.34,3.86-143.65,0-3.24-.85-29.15-2.03-65.01-5.1-155.53-8.38-265.48-8.38-308.2Z"/>
        <path class="cls-8" d="M199.25,751.58c0-11.7.47-18.7,1.52-19.96,5.37-6.45,24.38-110.02,56.52-307.83,1.89-11.66,3.15-19.37,3.57-21.81,1.82-7.3-19.64-177.93-36.89-315.04-3.79-30.12-7.44-59.19-10.73-85.51l1.64-.21c3.28,26.32,6.94,55.4,10.73,85.51,18.16,144.4,38.73,308.06,36.86,315.59-.41,2.38-1.66,10.08-3.56,21.74-12,73.84-48.5,298.56-56.88,308.62-5.09,6.11,6.68,191.51,13.71,302.28,3.35,52.76,5.99,94.42,5.99,102.6,0,14.67-4.1,86.26-7.72,149.42-2.62,45.74-4.89,85.25-4.89,91.1,0,6.76,1.28,43.28,2.63,81.95,1.59,45.39,3.23,92.34,3.23,102.56v104.76s-1.66,0-1.66,0v-104.76c0-10.19-1.64-57.12-3.23-102.5-1.35-38.68-2.63-75.22-2.63-82.01,0-5.9,2.26-45.42,4.89-91.19,3.62-63.14,7.72-134.71,7.72-149.32,0-8.12-2.64-49.77-5.99-102.5-7.88-124.14-14.85-238.51-14.85-283.49Z"/>
        <path class="cls-7" d="M192.06,725.73c0-11.81.69-19.1,2.22-20.94,14.7-17.66,86.01-277.34,90.22-301.64,2.59-10.36-25.88-161-50.98-293.9-7.33-38.8-14.09-74.71-20.26-107.9l1.47-1.03c6.17,33.18,13.09,69.83,20.42,108.62,26.37,139.57,53.64,283.89,50.98,294.55-4.21,24.28-75.79,284.59-90.57,302.35-7.28,8.75,8.25,175.97,18.53,286.62,5.86,63.09,10.92,117.58,10.92,131.36,0,22-6.15,92.74-11.58,155.15-3.93,45.19-7.33,84.21-7.33,92.98,0,10.14,1.92,46.22,3.95,84.42,2.38,44.86,4.85,91.24,4.85,106.58v103.54s-1.66,0-1.66,0v-103.54c0-15.29-2.46-61.65-4.85-106.49-2.03-38.22-3.95-74.32-3.95-84.51,0-8.85,3.4-47.9,7.33-93.13,5.43-62.38,11.58-133.07,11.58-155,0-13.71-5.06-68.16-10.92-131.21-11.12-119.7-20.38-223.64-20.38-266.89Z"/>
        <path class="cls-9" d="M185.22,701.85c0-12,.88-19.82,2.89-22.24,19.8-23.79,114.29-238.61,120.36-273.63,3.32-13.34-31.08-149.61-64.35-281.4-10.61-42.05-21.59-85.52-30.84-123.11l1.61-.4c9.25,37.58,20.23,81.06,30.84,123.1,33.32,131.99,67.76,268.46,64.36,282.15-6.08,35.06-100.84,250.49-120.7,274.35-9.35,11.24,8.45,157.85,22.75,275.64,8.84,72.77,16.47,135.61,16.47,155.43,0,29.33-8.21,99.21-15.45,160.87-5.24,44.63-9.77,83.17-9.77,94.87,0,13.52,2.56,49.16,5.26,86.89,3.18,44.32,6.47,90.15,6.47,110.59v102.32s-1.66,0-1.66,0v-102.32c0-20.39-3.28-66.19-6.46-110.48-2.71-37.76-5.27-73.43-5.27-87.01,0-11.8,4.53-50.39,9.78-95.07,7.24-61.61,15.44-131.44,15.44-160.68,0-19.72-7.62-82.51-16.45-155.23-12-98.81-25.26-208.1-25.27-254.66Z"/>
        <path class="cls-18" d="M178.22,676.95c0-12.18,1.07-20.36,3.53-23.31,25.88-31.1,142.85-201.54,150.49-245.63,4.07-16.27-37.31-147-77.31-273.42-14.36-45.4-29.22-92.34-41.67-133.07l1.58-.48c12.45,40.72,27.3,87.66,41.66,133.06,41.91,132.48,81.49,257.6,77.35,274.26-7.67,44.27-124.9,215.18-150.84,246.35-11.33,13.62,9.66,154.45,26.54,267.61,11.53,77.35,22.43,150.41,22.43,176.56,0,36.67-10.26,105.69-19.31,166.6-6.55,44.07-12.21,82.13-12.21,96.76,0,16.9,3.2,52.1,6.58,89.37,3.97,43.78,8.08,89.05,8.08,114.61v101.1s-1.66,0-1.66,0v-101.1c0-25.49-4.11-70.72-8.08-114.46-3.39-37.31-6.58-72.54-6.58-89.52,0-14.75,5.67-52.87,12.22-97,9.04-60.85,19.29-129.81,19.29-166.35,0-26.02-10.89-99.03-22.41-176.31-14.1-94.58-29.7-199.16-29.7-245.6Z"/>
        <path class="cls-14" d="M171.13,652.35c0-12.55,1.3-21.17,4.27-24.73,7.38-8.86,22.02-23.76,40.55-42.62,53.06-53.98,133.23-135.55,140.07-175.01,4.77-19.15-43.35-145.54-89.88-267.76-18.25-47.92-37.12-97.48-52.87-140.72l1.56-.57c15.75,43.23,34.62,92.78,52.86,140.7,48.77,128.1,94.83,249.08,89.96,268.69-6.92,39.91-87.31,121.7-140.51,175.83-18.51,18.83-33.13,33.71-40.46,42.52-13.26,15.93,9.73,146.44,30.01,261.59,14.76,83.81,28.71,162.97,28.71,195.67,0,44-12.31,112.17-23.17,172.32-7.86,43.51-14.65,81.1-14.65,98.65,0,20.28,3.83,55.04,7.89,91.84,4.77,43.24,9.7,87.95,9.7,118.63v99.88s-1.66,0-1.66,0v-99.88c0-30.58-4.93-75.25-9.69-118.45-4.06-36.85-7.9-71.65-7.9-92.02,0-17.7,6.8-55.35,14.67-98.94,10.85-60.08,23.15-128.18,23.15-172.03,0-32.55-13.93-111.65-28.68-195.39-16.74-95.01-33.92-192.57-33.92-238.2Z"/>
        <path class="cls-10" d="M163.85,626.8c0-12.8,1.49-21.81,4.9-25.91,11.92-14.32,40.29-34.34,73.15-57.52,58.23-41.08,130.7-92.21,137.61-132.1,5.49-22.03-49.44-145.31-102.55-264.54-22.09-49.59-44.65-100.2-63.68-145.27l1.23-1.31c19.03,45.05,41.87,96.32,63.96,145.9,55.68,124.98,108.27,243.02,102.66,265.55-7.02,40.51-79.8,91.86-138.27,133.12-32.76,23.12-61.06,43.08-72.83,57.23-15.13,18.18,9.47,139.6,33.25,257.02,18.12,89.43,35.23,173.91,35.23,213.33,0,51.33-14.37,118.65-27.04,178.05-9.17,42.96-17.08,80.06-17.08,100.53,0,23.66,4.47,57.98,9.21,94.31,5.56,42.7,11.32,86.86,11.32,122.64v98.66s-1.66,0-1.66,0v-98.66c0-35.68-5.75-79.78-11.3-122.43-4.74-36.39-9.22-70.76-9.22-94.53,0-20.65,7.93-57.83,17.12-100.88,12.66-59.32,27-126.54,27-177.7,0-39.26-17.09-123.65-35.19-213-18.65-92.09-37.8-186.64-37.81-232.5Z"/>
        <path class="cls-15" d="M156.69,602.33c0-13.21,1.73-22.67,5.68-27.42,15.24-18.31,54.89-36.6,96.86-55.97,64.05-29.55,136.65-63.05,144.03-105.65,6.21-24.94-52.65-140.28-114.96-262.39-25.96-50.87-52.68-103.26-75.02-149.86l1.38-.92c22.33,46.58,49.16,99.17,75.11,150.03,62.46,122.4,121.46,238.02,115.1,263.49-7.52,43.4-80.54,77.09-144.96,106.82-41.8,19.29-81.28,37.51-96.28,55.53-16.96,20.37,10.12,138.92,36.3,253.56,20.62,90.27,41.93,183.61,41.93,229.89,0,58.67-16.42,125.13-30.91,183.78-10.47,42.4-19.52,79.02-19.52,102.42,0,27.04,5.11,60.92,10.52,96.79,6.36,42.16,12.94,85.76,12.94,126.66v97.43s-1.66,0-1.66,0v-97.43c0-40.78-6.57-84.31-12.92-126.42-5.42-35.93-10.54-69.87-10.54-97.03,0-23.6,9.07-60.31,19.57-102.82,14.46-58.55,30.86-124.91,30.86-183.38,0-46.1-21.3-139.35-41.89-229.52-21.27-93.15-41.63-182.3-41.64-227.57Z"/>
        <path class="cls-4" d="M149.66,577.58c0-13.49,1.93-23.35,6.33-28.64,18.19-21.86,66.5-34.83,117.64-48.57,71.49-19.2,145.41-39.06,153.39-85.05,6.9-27.72-58.06-140.4-126.85-259.7-30.13-52.26-60.92-105.73-86.78-154.01-.22-.4-.11-1.2.3-1.41.4-.22.58-.34.8.06,25.85,48.26,57,102.29,87.12,154.54,68.95,119.6,134.08,232.58,127.03,260.87-8.14,46.97-82.58,66.97-154.58,86.31-50.88,13.67-98.95,26.58-116.8,48.03-18.75,22.53,10.7,138.65,39.19,250.94,23.99,94.56,48.8,192.34,48.8,245.6,0,66-18.47,131.61-34.77,189.5-11.78,41.84-21.96,77.98-21.96,104.31,0,30.42,5.75,63.85,11.83,99.26,7.16,41.63,14.56,84.67,14.56,130.68v96.21c0,.46-.37.83-.83.83s-.83-.37-.83-.83v-96.21c0-45.87-7.39-88.84-14.53-130.4-6.1-35.47-11.86-68.98-11.86-99.54,0-26.55,10.2-62.79,22.02-104.76,16.27-57.78,34.71-123.28,34.71-189.05,0-53.05-24.78-150.73-48.75-245.19-23.09-91-45.19-178.11-45.19-223.77Z"/>
        <path class="cls-16" d="M142.63,552.84c0-13.78,2.12-24.05,6.97-29.88,20.98-25.2,77.36-31.58,137.05-38.34,76.45-8.65,155.5-17.59,164.11-67.28,7.63-30.56-63.89-141.85-139.59-259.68C277.2,104.8,242.42,50.7,213.28,1.47l1.08-1.41c29.13,49.21,64.25,103.87,98.21,156.72,75.9,118.13,147.59,229.71,139.82,260.91-8.81,50.85-88.49,59.87-165.55,68.59-59.35,6.72-115.41,13.06-135.96,37.75-20.53,24.66,9.83,133.64,41.96,249.01,27.42,98.47,55.78,200.3,55.78,260.62,0,73.34-20.53,138.09-38.64,195.23-13.09,41.29-24.39,76.94-24.39,106.19,0,33.79,6.39,66.79,13.15,101.73,7.85,40.54,15.95,82.44,16.17,132.66h0s0,97.03,0,97.03h-1.66s0-94.99,0-94.99c0-50.97-8.21-93.37-16.14-134.39-6.78-35.02-13.18-68.09-13.18-102.04,0-29.5,11.34-65.27,24.47-106.69,18.08-57.02,38.56-121.65,38.56-194.73,0-60.1-28.33-161.82-55.72-260.18-24.83-89.17-48.61-174.53-48.61-220.64Z"/>
        <path class="cls-5" d="M135.6,528.11c0-14.08,2.31-24.75,7.61-31.12,23.67-28.43,87.79-27.49,155.69-26.5,81.77,1.2,166.33,2.44,175.61-51.12,8.32-33.38-69.21-142.71-151.3-258.46C285.07,107.12,245.97,51.99,213.29,1.42l1.05-1.39c32.66,50.54,72.09,106.15,110.23,159.93,82.31,116.07,160.05,225.68,151.56,259.76-9.51,54.9-94.79,53.65-177.25,52.44-67.49-.99-131.23-1.93-154.39,25.9-22.27,26.76,10.22,134.05,44.62,247.64,30.91,102.07,62.88,207.62,62.88,275.09,0,80.67-22.58,144.58-42.51,200.96-14.4,40.73-26.83,75.91-26.83,108.08,0,37.17,7.02,69.73,14.46,104.2,8.46,39.22,17.2,79.73,17.77,133.22h.03s0,99.27,0,99.27h-1.66s0-93.77,0-93.77c0-56.06-9.03-97.9-17.76-138.37-7.46-34.56-14.5-67.2-14.5-104.55,0-32.46,12.48-67.76,26.92-108.63,19.88-56.25,42.42-120.02,42.42-200.4,0-67.23-31.93-172.66-62.81-274.61-26.52-87.58-51.92-171.44-51.92-218.06Z"/>
        <path class="cls-2" d="M128.38,503.73c0-14.51,2.58-25.66,8.45-32.72,26.3-31.59,97.97-22.88,173.85-13.66,87.32,10.61,177.61,21.59,187.58-35.95,9.04-36.29-74.96-144.69-163.9-259.45C292.53,107.97,249.27,52.15,213.4.95l1.36-.95c35.86,51.17,79.1,106.97,120.92,160.93,89.19,115.09,173.44,223.79,164.21,260.81-10.23,59.04-101.32,47.96-189.4,37.26-72.1-8.76-146.66-17.83-172.38,13.07-24,28.83,10.58,134.67,47.19,246.72,32.84,100.5,70.06,214.42,70.06,289.1,0,88.01-24.64,151.06-46.38,206.68-15.7,40.17-29.26,74.87-29.26,109.96,0,40.55,7.66,72.67,15.77,106.67,9.03,37.86,18.35,76.94,19.33,133.01h.08s0,102.28,0,102.28h-1.66s0-92.39,0-92.39c0-61.32-9.85-102.6-19.37-142.52-8.13-34.1-15.82-66.31-15.82-107.06,0-35.41,13.61-70.24,29.37-110.57,21.69-55.49,46.27-118.38,46.27-206.08,0-74.43-37.18-188.2-69.98-288.59-29.19-89.33-55.34-169.39-55.35-215.57Z"/>
        <path class="cls-11" d="M121.34,479.02c0-14.81,2.78-26.38,9.11-33.99,28.89-34.71,111.65-17.14,191.69-.16,72.51,15.39,147.49,31.3,181.48,8.29,10.09-6.83,16.11-16.56,18.4-29.74,9.72-39.05-80.57-146.07-176.17-259.4C299.85,109.51,252.66,53.62,213.28,1.47l.96-1.48c39.36,52.12,86.9,108.47,132.87,162.97,95.88,113.66,186.44,221.01,176.53,260.81-2.32,13.4-8.75,23.77-19.09,30.77-34.58,23.4-109.91,7.42-182.75-8.04-79.56-16.88-161.83-34.34-190.07-.4-25.71,30.89,9.23,130.66,49.69,246.18,36.24,103.48,77.32,220.77,77.32,302.73,0,95.34-26.7,157.54-50.25,212.41-17.01,39.62-31.69,73.83-31.69,111.85,0,43.93,8.3,75.61,17.08,109.14,9.57,36.53,19.44,74.2,20.86,132.29h.17s0,105.8,0,105.8h-1.66s0-91.17,0-91.17c0-66.41-10.67-107.12-20.98-146.49-8.81-33.64-17.14-65.42-17.14-109.56,0-38.36,14.75-72.72,31.83-112.5,23.49-54.72,50.12-116.75,50.12-211.75,0-81.68-41.03-198.83-77.22-302.19-30.85-88.09-58.51-167.06-58.51-213.8Z"/>
        <path class="cls-1" d="M114.31,454.32c0-15.12,2.97-27.11,9.75-35.26,31.45-37.79,121.87-11.56,209.31,13.8,77.27,22.41,157.18,45.59,193.11,23.14,10.55-6.59,16.86-16.59,19.28-30.55,10.43-41.88-85.91-147.61-187.92-259.55C307.76,110.94,256.17,54.34,213.3,1.23l1.1-1.28c42.84,53.07,94.61,109.89,144.68,164.83,102.31,112.28,198.93,218.32,188.31,261.01-2.46,14.2-9.2,24.85-20.02,31.61-36.56,22.84-116.82-.44-194.45-22.95-86.93-25.21-176.82-51.29-207.58-14.33-27.4,32.92,9.45,131.65,52.12,245.97,39.67,106.29,84.64,226.75,84.64,316.04,0,102.68-28.75,164.02-54.12,218.13-18.31,39.06-34.13,72.8-34.13,113.74,0,47.31,8.94,78.54,18.4,111.61,10.08,35.24,20.47,71.56,22.35,131.21h.3s0,109.68,0,109.68h-1.66s0-89.95,0-89.95c0-71.5-11.48-111.65-22.59-150.47-9.49-33.18-18.46-64.53-18.46-112.07,0-41.31,15.89-75.2,34.28-114.44,25.3-53.96,53.97-115.12,53.97-217.43,0-88.99-44.91-209.31-84.54-315.46-32.48-87-61.6-165.02-61.6-212.35Z"/>
        <path class="cls-20" d="M107.28,429.62c0-15.43,3.17-27.84,10.4-36.53,33.99-40.84,131.99-5.79,226.77,28.1,82.15,29.38,167.1,59.76,204.97,37.68,10.97-6.4,17.55-16.66,20.1-31.38,11.13-44.66-91.31-149.19-199.77-259.85C315.54,112.33,259.64,55.32,213.27,1.36l1.11-1.25c46.34,53.92,102.37,111.08,156.55,166.37,108.79,111,211.53,215.83,200.21,261.35-2.59,14.96-9.62,25.9-20.89,32.47-38.53,22.47-120.05-6.69-206.36-37.55-94.24-33.7-191.69-68.55-224.94-28.6-29.09,34.95,9.65,132.77,54.5,246.04,43.13,108.94,92.02,232.41,92.02,329.07,0,110.01-30.81,170.5-57.99,223.86-19.62,38.51-36.56,71.76-36.56,115.63,0,50.69,9.57,81.48,19.71,114.09,10.57,34.01,21.46,69.03,23.81,129.87h.47s0,113.81,0,113.81h-1.66s0-88.73,0-88.73c0-76.6-12.3-116.18-24.2-154.46-10.17-32.73-19.78-63.64-19.78-114.58,0-44.26,17.02-77.68,36.74-116.38,27.1-53.2,57.81-113.49,57.81-223.11,0-96.34-48.83-219.66-91.91-328.46-34.07-86.06-64.63-163.23-64.63-211.17Z"/>
        <path class="cls-13" d="M100.25,404.91c0-15.75,3.36-28.57,11.05-37.81,36.52-43.87,142.05.11,244.11,42.65,87.11,36.31,177.18,73.85,216.98,51.99,11.37-6.24,18.2-16.79,20.88-32.24,11.83-47.49-97.15-151.38-212.53-261.37C322.65,112.76,263.02,55.93,213.33,1.47l.8-1.54c49.65,54.42,109.69,111.66,167.75,167.01,115.74,110.33,225.04,214.54,213,262.91-2.72,15.7-10.03,26.94-21.7,33.35-40.5,22.24-126.92-13.78-218.42-51.92-101.5-42.3-206.46-86.05-242.19-43.12-30.75,36.95,9.83,133.99,56.82,246.34,46.62,111.46,99.45,237.79,99.45,341.86,0,117.35-32.87,176.98-61.87,229.58-20.92,37.95-38.99,70.73-38.99,117.51,0,54.06,10.21,84.42,21.02,116.56,11.04,32.82,22.4,66.62,25.23,128.35h.67s0,118.14,0,118.14h-1.66s0-87.51,0-87.51c0-81.69-13.12-120.71-25.81-158.44-10.85-32.27-21.1-62.75-21.1-117.08,0-47.21,18.16-80.16,39.19-118.31,28.9-52.43,61.66-111.86,61.66-228.78,0-103.73-52.77-229.9-99.33-341.22-35.64-85.22-67.61-161.66-67.61-210.23Z"/>
        <path class="cls-23" d="M93.22,380.22c0-16.07,3.55-29.3,11.7-39.08,39.03-46.89,152.05,6.12,261.35,57.39,96.36,45.2,187.38,87.89,229.12,66.15,11.76-6.13,18.84-16.96,21.64-33.13,12.56-50.33-101.93-152.76-223.12-261.2C331.44,114.46,266.87,56.68,213.48,1.05l1.2-1.15c53.35,55.59,117.9,113.34,180.33,169.2,126.85,113.5,236.42,211.52,223.64,262.78-2.84,16.42-10.42,27.97-22.49,34.26-42.46,22.12-133.84-20.74-230.59-66.12-108.73-51-221.16-103.73-259.37-57.83-32.42,38.95,9.99,135.3,59.1,246.86,50.12,113.87,106.93,242.93,106.93,354.44,0,124.68-34.93,183.46-65.74,235.31-22.22,37.4-41.42,69.69-41.42,119.4,0,57.44,10.85,87.36,22.33,119.03,11.49,31.7,23.31,64.31,26.62,126.67h.9s0,122.61,0,122.61h-1.66s0-86.29,0-86.29c0-86.79-13.94-125.24-27.42-162.42-11.53-31.81-22.43-61.86-22.43-119.59,0-50.17,19.3-82.64,41.65-120.25,30.71-51.67,65.51-110.23,65.51-234.46,0-111.16-56.73-240.05-106.79-353.77-37.18-84.48-70.55-160.28-70.55-209.5Z"/>
        <path class="cls-17" d="M86.19,355.52c0-16.39,3.75-30.04,12.34-40.36,41.53-49.9,162.01,12.21,278.52,72.28,101.65,52.41,197.67,101.9,241.34,80.18,12.13-6.04,19.45-17.18,22.38-34.06,9.9-55.62-110.96-157.59-238.93-265.54C336.69,113.05,269.32,56.22,213.39,1.07l1.16-1.18c55.89,55.11,123.23,111.92,188.36,166.86,65.54,55.29,127.45,107.52,172.25,153.38,50.49,51.69,71.86,87.81,67.24,113.71-2.98,17.19-10.81,29.05-23.27,35.25-44.42,22.1-140.8-27.59-242.84-80.19-115.93-59.77-235.81-121.57-276.49-72.69-34.07,40.93,10.14,136.68,61.34,247.55,53.64,116.18,114.45,247.85,114.45,366.83,0,132.02-36.98,189.93-69.61,241.03-23.53,36.84-43.85,68.66-43.85,121.29,0,60.82,11.48,90.29,23.64,121.5,11.93,30.62,24.19,62.1,27.97,124.89h1.18s0,127.19,0,127.19h-1.66s0-85.07,0-85.07c0-91.88-14.76-129.77-29.03-166.41-12.21-31.35-23.75-60.97-23.75-122.1,0-53.12,20.44-85.12,44.11-122.18,32.51-50.91,69.35-108.6,69.35-240.14,0-118.62-60.72-250.12-114.29-366.14-38.71-83.83-73.45-159.06-73.45-208.94Z"/>
        <path class="cls-12" d="M78.85,331.26c0-16.83,4.06-30.98,13.3-42.08,44.02-52.89,171.93,18.37,295.63,87.29,106.98,59.6,208.02,115.9,253.63,94.12,12.51-5.97,20.07-17.42,23.12-35.01,9.81-57.57-117.75-159.41-252.81-267.2C343.37,113.85,272.72,57.46,213.93,2.52l1.13-1.21c58.74,54.89,129.37,111.26,197.68,165.78,69.15,55.19,134.47,107.32,181.84,153.38,53.39,51.92,76.14,88.57,71.57,115.4-3.1,17.9-11.19,30.09-24.04,36.22-46.38,22.14-147.79-34.35-255.15-94.17-123.11-68.59-250.41-139.51-293.55-87.68-16.34,19.63-17.01,50.68-2.13,97.72,13.52,42.72,38.85,95.17,65.67,150.69,57.18,118.39,122,252.59,122,379.07,0,139.35-39.04,196.41-73.49,246.75-24.83,36.29-46.27,67.63-46.27,123.18,0,64.2,12.12,93.23,24.94,123.97,12.35,29.58,25.04,59.99,29.28,123.01h1.48s0,131.87,0,131.87h-1.66s0-83.84,0-83.84c0-96.98-15.58-134.3-30.64-170.4-12.89-30.9-25.07-60.08-25.07-124.61,0-56.07,21.58-87.6,46.56-124.12,34.31-50.14,73.2-106.98,73.2-245.82,0-126.11-64.72-260.12-121.83-378.35-41.57-86.06-76.62-158.64-76.62-208.11Z"/>
        <path class="cls-19" d="M71.69,306.9c0-17.17,4.26-31.76,13.97-43.43,46.68-56.08,183.37,24.93,315.56,103.27,112.38,66.6,218.52,129.51,264.89,107.45,12.56-5.97,19.99-17.78,22.72-36.1,7.31-65.56-127.27-166.49-269.77-273.34C348.09,111.52,274.7,56.49,213.39,2.11l1.1-1.24c61.26,54.33,134.63,109.35,205.57,162.55,72.86,54.64,141.69,106.25,192.09,153,56.84,52.72,81.72,91.45,78.32,121.88-2.78,18.68-10.74,31.24-23.65,37.39-47.17,22.43-153.68-40.69-266.45-107.52-131.59-77.99-267.67-158.63-313.44-103.64-37.39,44.92,8.14,135.28,65.79,249.69,57.79,114.69,129.72,257.44,129.72,391.6,0,146.85-41.15,203.12-77.45,252.76-26.16,35.77-48.76,66.67-48.76,125.21,0,67.65,12.77,96.27,26.28,126.58,15.94,35.75,32.43,72.71,32.43,175.09l-.57.02.56.04c-.01.21.07,4.27.07,80.85h-1.66c0-39.57-.16-59.8-.13-70.14.02-6.72.03-9.54.19-10.73h-.13s.13,0,.13,0c0-.01,0-.03,0-.04h-.14c0-102.03-16.41-138.83-32.28-174.41-13.59-30.47-26.43-59.25-26.43-127.25,0-59.09,22.74-90.18,49.08-126.19,36.15-49.43,77.13-105.47,77.13-251.78,0-133.77-71.83-276.31-129.54-390.85-43.15-85.64-79.55-157.88-79.55-208.07Z"/>
      </g>
    </g>
  </g>
</svg>