<svg width="1691" height="423" viewBox="0 0 1691 423" fill="none" xmlns="http://www.w3.org/2000/svg">
<path d="M1120 327.2H0.600006C0.300006 327.2 0 327 0 326.6C0 326.2 0.200006 326 0.600006 326H1120C1120.3 326 1120.6 326.2 1120.6 326.6C1120.6 327 1120.3 327.2 1120 327.2Z" fill="url(#paint0_linear_201_178)"/>
<path d="M522.5 331.9C514.3 331.9 509.8 331.7 509.3 331.3C505.7 329.1 393.2 320.7 325.9 315.6C293.9 313.2 270.8 311.5 269 311.1C265.6 310.5 129 319.1 29.1996 325.3L1.19961 327.1L1.09961 326L29.0996 324.2C158.9 316 266.6 309.3 269.2 310C271 310.3 295.3 312.1 326 314.4C421.5 321.6 507.4 328.2 510 330.3C514.1 332 659.6 327.3 729.5 325C753.6 324.2 771 323.6 773.2 323.6C778.1 323.6 826.8 325 869.8 326.2C900.9 327.1 927.8 327.8 929.7 327.8C932 327.8 956.8 327.4 983.1 326.9C1014 326.4 1045.9 325.8 1049.3 325.8H1120.5V326.9H1049.3C1045.9 326.9 1014 327.5 983.1 328C956.8 328.5 932 328.9 929.7 328.9C927.7 328.9 900.8 328.1 869.7 327.3C826.8 326.1 778.1 324.7 773.2 324.7C771 324.7 753.6 325.3 729.5 326.1C625.1 329.7 551.2 331.9 522.5 331.9Z" fill="url(#paint1_linear_201_178)"/>
<path d="M505.2 336.6C497.3 336.6 492.6 336.3 491.8 335.6C487.5 332 417.9 319.2 285 297.6C277.2 296.3 272 295.5 270.3 295.2C265.4 294 150.7 308.4 58.6 320C38.4 322.5 18.8 325 1.10001 327.2L1 326.1C18.7 323.9 38.2 321.4 58.5 318.9C155.5 306.7 265.5 292.9 270.6 294.1C272.2 294.4 277.4 295.2 285.2 296.5C334.8 304.6 485.8 329.1 492.6 334.7C496.7 338.1 621.3 330.2 695.7 325.5C731.1 323.2 759.1 321.5 764.6 321.5C774.5 321.5 822.6 324.3 865 326.7C895.7 328.5 922.3 330 926.2 330C930.7 330 955.3 329.1 981.3 328.2C1011.8 327.1 1043.3 326 1050.2 326H1120.6V327.1H1050.2C1043.3 327.1 1011.8 328.2 981.3 329.3C955.3 330.2 930.8 331.1 926.2 331.1C922.2 331.1 895.7 329.6 864.9 327.8C822.5 325.4 774.4 322.6 764.6 322.6C759.1 322.6 731.2 324.4 695.7 326.6C612.3 331.9 535.5 336.6 505.2 336.6Z" fill="url(#paint2_linear_201_178)"/>
<path d="M487.9 341.4C480 341.4 475.1 340.9 473.8 339.9C461.9 330 287.4 282.1 271.1 279.3C264.1 277.6 162.9 296.7 73.5999 313.6C47.4999 318.5 23.3999 323.1 1.09991 327.2L0.399902 326.2C22.6999 322.1 47.2999 317.4 73.3999 312.5C167.2 294.8 264.2 276.5 271.3 278.2C287.6 281 462.5 329.1 474.5 339.1C480.4 344 592.7 333.6 667.1 326.6C709.5 322.7 746.1 319.3 755.4 319.3C770.2 319.3 817.7 323.4 859.6 327.1C890 329.7 916.2 332 922.1 332C928.9 332 953.2 330.7 978.8 329.3C1008.9 327.7 1040.1 326 1050.4 326H1120V327.1H1050.4C1040.1 327.1 1009 328.8 978.8 330.4C953.1 331.8 928.9 333.1 922 333.1C916.1 333.1 889.8 330.8 859.4 328.2C817.5 324.6 770 320.4 755.2 320.4C746 320.4 709.4 323.8 667 327.7C586.8 335.2 516.9 341.4 487.9 341.4Z" fill="url(#paint3_linear_201_178)"/>
<path d="M471.8 346C463.7 346 458.5 345.4 456.9 344.1C440.9 330.8 296.6 267.3 273 263.2C264 261 172.5 284.1 83.8999 306.4C55.5999 313.5 26.3999 320.9 1.19991 327.1L0.899902 326C26.1999 319.8 55.3999 312.4 83.5999 305.3C172.3 282.9 264 259.8 273.2 262.1C296.8 266.2 441.5 329.9 457.5 343.2C465.1 349.5 563.6 337.5 642.7 327.9C691.6 322 733.8 316.8 747.1 316.8C766.8 316.8 813.8 322.3 855.2 327.2C885.2 330.7 911.1 333.8 918.9 333.8C928 333.8 951.9 332.1 977.3 330.3C1007.1 328.2 1037.9 326 1051.6 326H1120.4V327.1H1051.6C1037.9 327.1 1007.1 329.3 977.4 331.4C952 333.2 928.1 334.9 918.9 334.9C911 334.9 885 331.9 855 328.3C813.6 323.4 766.7 317.9 747 317.9C733.8 317.9 691.6 323 642.7 329C576.6 337.1 503.1 346 471.8 346Z" fill="url(#paint4_linear_201_178)"/>
<path d="M455.1 350.7C446.9 350.7 441.4 350 439.4 348.3C418.5 330.9 304 252.3 274.4 247.2C263.5 244.5 175.6 272.3 90.7 299.1C60.2 308.8 28.7 318.7 1.3 327.1L1 326C28.4 317.6 59.9 307.7 90.4 298C179.4 269.8 263.5 243.2 274.7 246C304.4 251.2 419.3 329.9 440.2 347.4C449.4 355 544 340.9 620 329.6C672 321.8 721.1 314.5 738.6 314.5C763.2 314.5 809.6 321.4 850.5 327.5C880.1 331.9 905.7 335.7 915.5 335.7C926.9 335.7 950.5 333.6 975.5 331.3C1004.9 328.6 1035.3 325.9 1052.5 325.9H1120.4V327H1052.5C1035.4 327 1005 329.8 975.6 332.4C950.5 334.7 926.9 336.8 915.5 336.8C905.6 336.8 880 333 850.3 328.6C809.4 322.5 763.1 315.6 738.5 315.6C721 315.6 672 322.9 620 330.7C556.6 340.2 486.3 350.7 455.1 350.7Z" fill="url(#paint5_linear_201_178)"/>
<path d="M438.6 355.5C430.2 355.5 424.4 354.6 422 352.6C416 347.6 406 337.8 393.4 325.4C357.1 289.8 302.3 235.9 275.8 231.3C262.9 228.1 178 260.4 95.8999 291.7C63.6999 304 30.3999 316.6 1.2999 327.2L0.899902 326.2C29.8999 315.6 63.1999 302.9 95.3999 290.7C181.5 257.9 262.8 227 275.9 230.3C302.7 234.9 357.7 289 394 324.7C406.7 337.1 416.6 347 422.6 351.9C433.3 360.8 521 345.4 598.4 331.7C654.7 321.8 707.9 312.4 729.9 312.4C759.5 312.4 805.3 320.7 845.7 328C874.9 333.3 900.2 337.8 912 337.8C925.6 337.8 949 335.2 973.7 332.5C1002.8 329.3 1032.8 326 1053.4 326H1120.5V327.1H1053.4C1032.9 327.1 1002.8 330.4 973.8 333.6C949 336.3 925.7 338.9 912 338.9C900.1 338.9 874.8 334.3 845.5 329C805.1 321.7 759.4 313.4 729.9 313.4C708 313.4 654.9 322.8 598.6 332.7C534.8 343.9 469.2 355.5 438.6 355.5Z" fill="url(#paint6_linear_201_178)"/>
<path d="M421.4 360.4C412.8 360.4 406.7 359.4 404 357.1C394.4 349.1 380.9 330 365.3 307.9C337.7 268.8 303.3 220.1 276.5 215.4C261.7 211.7 178.9 248.6 98.7998 284.3C65.4998 299.1 31.4998 314.3 1.19981 327.1L0.299805 326.3C30.5998 313.5 64.9998 298.2 98.2998 283.3C182.3 245.9 261.6 210.5 276.7 214.3C303.9 219 338.4 267.9 366.1 307.2C381.6 329.2 395 348.2 404.6 356.1C416.8 366.3 498.4 349.7 577.3 333.8C637.4 321.6 694.2 310.1 720.6 310.1C755.1 310.1 800.3 319.8 840.2 328.3C869.1 334.5 894 339.8 907.8 339.8C923.7 339.8 946.8 336.8 971.2 333.6C999.9 329.9 1029.6 326 1053.6 326H1119.9V327.1H1053.6C1029.6 327.1 1000 331 971.3 334.7C946.8 337.9 923.8 340.9 907.8 340.9C893.9 340.9 868.9 335.6 840 329.4C800.1 320.9 755 311.3 720.6 311.3C694.2 311.3 637.5 322.8 577.5 334.9C515.7 347.5 452.2 360.4 421.4 360.4Z" fill="url(#paint7_linear_201_178)"/>
<path d="M405 365.2C396.1 365.2 389.8 364 386.6 361.4C374.3 351.2 362 324.5 349 296.3C329.1 253.3 306.6 204.5 278 199.5C261.2 195.3 183.7 234.9 101.7 276.7C67.4999 294.1 32.2999 312.1 0.999901 327.1L0.399902 326.2C31.6999 311.2 66.9999 293.2 101.2 275.7C183.4 233.7 261.1 194.1 278.2 198.4C307.4 203.5 330 252.5 350 295.8C363 323.9 375.2 350.4 387.3 360.5C401 371.9 480.6 353.7 557.7 336.1C618.4 322.2 681.1 307.9 712.2 307.9C751.6 307.9 796.3 318.9 835.7 328.7C864.2 335.7 888.8 341.8 904.5 341.8C922.7 341.8 945.4 338.4 969.5 334.7C997.8 330.4 1027.1 326 1054.6 326H1120.1V327.1H1054.6C1027.2 327.1 997.9 331.5 969.7 335.8C945.6 339.4 922.8 342.9 904.5 342.9C888.6 342.9 864 336.8 835.4 329.8C796.1 320.1 751.5 309.1 712.2 309.1C681.2 309.1 618.6 323.4 558 337.2C495.3 351.5 435.4 365.2 405 365.2Z" fill="url(#paint8_linear_201_178)"/>
<path d="M388.3 369.9C379.2 369.9 372.6 368.6 369.1 365.6C354.4 353.4 345.7 320.9 336.5 286.6C323.6 238.6 310.3 188.9 279.4 183.5C260.8 178.9 185.1 222.5 104.9 268.7C69.7998 288.9 33.8997 309.6 1.39975 327C1.09975 327.1 0.599747 327.1 0.499747 326.8C0.399747 326.5 0.299747 326.4 0.499747 326.3C32.8997 308.9 69.1998 288 104.3 267.8C184.7 221.5 260.6 177.7 279.6 182.4C311.2 187.9 324.6 237.9 337.6 286.3C346.8 320.5 355.5 352.8 369.9 364.8C385 377.4 463.1 357.6 538.5 338.5C602 322.4 667.7 305.7 703.5 305.7C747.8 305.7 791.9 318.1 830.8 329.1C858.9 337 883.2 343.9 900.9 343.9C921.3 343.9 943.8 340 967.6 335.9C995.6 331.1 1024.5 326.1 1055.4 326.1H1120C1120.3 326.1 1120.6 326.3 1120.6 326.7C1120.6 327.1 1120.4 327.3 1120 327.3H1055.4C1024.6 327.3 995.7 332.3 967.8 337.1C944 341.2 921.5 345.1 900.9 345.1C883.1 345.1 858.7 338.2 830.5 330.3C791.7 319.4 747.7 307 703.5 307C667.9 307 602.2 323.7 538.7 339.8C477.5 355.1 419 369.9 388.3 369.9Z" fill="url(#paint9_linear_201_178)"/>
<path d="M371.7 374.6C362.4 374.6 355.5 373.2 351.6 369.9C334.7 355.8 330.4 317.9 325.8 277.8C320 226.4 314 173.3 280.6 167.5C260.1 162.4 185.3 210.4 106.1 261.3C70.5997 284.1 34.1997 307.5 1.09971 327.1L0.199707 326.4C33.2997 306.8 69.9997 283.2 105.5 260.4C184.9 209.4 259.8 161.2 280.8 166.5C315 172.4 321 226 326.9 277.7C331.4 317.6 335.7 355.2 352.3 369.1C368.9 382.9 442.1 362.5 519.6 340.9C585.8 322.5 654.2 303.4 694.7 303.4C744 303.4 787.5 317.2 825.9 329.4C853.6 338.2 877.6 345.8 897.3 345.8C920 345.8 942.2 341.5 965.7 337C992.9 331.7 1021.1 326.3 1054.8 326.1H1120V327.2H1056.2C1022 327.2 993.5 332.7 965.9 338C942.4 342.6 920.1 346.9 897.3 346.9C877.5 346.9 853.4 339.3 825.6 330.5C787.3 318.4 743.9 304.6 694.8 304.6C654.4 304.6 586.1 323.6 520 342C460 358.7 402.7 374.6 371.7 374.6Z" fill="url(#paint10_linear_201_178)"/>
<path d="M355.1 379.3C345.6 379.3 338.5 377.7 334.2 374.2C315.1 358.3 315.7 315.2 316.4 269.6C317.2 214.7 318 157.8 282.1 151.6C259.7 146 186.2 198.1 108.4 253.3C72.2998 278.9 35.1998 305.2 1.19981 327.2L0.299805 326.5C34.2998 304.6 71.5998 278.1 107.8 252.4C185.8 197.1 259.4 144.9 282.3 150.6C319.2 157 318.3 214.3 317.5 269.7C316.8 315 316.2 357.9 334.9 373.4C352.9 388.4 425 366.5 501.3 343.4C569.9 322.6 640.8 301.2 686.1 301.2C740.3 301.2 783.2 316.4 821.1 329.8C848.5 339.5 872.1 347.8 893.7 347.8C918.7 347.8 940.6 343.1 963.7 338.1C990.1 332.4 1017.3 326.5 1053.2 326.2H1119.9V327.3H1056.9C1019.2 327.3 991.1 333.4 963.9 339.2C940.7 344.2 918.7 348.9 893.6 348.9C871.8 348.9 848.1 340.5 820.6 330.8C782.8 317.4 740 302.3 685.9 302.3C640.7 302.3 569.9 323.8 501.4 344.5C442.8 362.3 386.4 379.3 355.1 379.3Z" fill="url(#paint11_linear_201_178)"/>
<path d="M338.7 384.2C329 384.2 321.5 382.5 316.7 378.5C295.5 360.8 301.3 312.7 307.5 261.7C314.6 203 322 142.4 283.3 135.7C258.9 129.6 186.1 186.1 109 245.8C72.6997 273.9 35.1997 303 0.799706 327.1L0.199707 326.2C34.5997 302.1 72.0997 273.1 108.3 245C185.6 185.1 258.7 128.5 283.5 134.7C323.2 141.6 315.7 202.8 308.5 262C302.6 310.4 296.5 360.5 317.3 377.8C336.7 393.9 407.8 370.7 483.1 346.1C550.6 324 627.2 299 677.4 299C736.5 299 778.9 315.6 816.3 330.2C843.3 340.8 866.6 349.9 890.2 349.9C917.4 349.9 939 344.8 961.9 339.3C987.3 333.2 1013.6 327 1051.3 326.3V326.2H1120V327.3H1057.9C1016.7 327.3 989 333.9 962.1 340.3C939.2 345.8 917.5 350.9 890.2 350.9C866.4 350.9 843 341.8 815.9 331.2C778.6 316.6 736.4 300.1 677.4 300.1C627.4 300.1 550.9 325.1 483.5 347.1C423.5 366.6 369.7 384.2 338.7 384.2Z" fill="url(#paint12_linear_201_178)"/>
<path d="M322.1 388.9C312.1 388.9 304.4 387 299.3 382.8C276 363.4 287.8 307.8 299.2 254C309.5 205.3 320.2 154.9 304.8 132.1C300.2 125.3 293.7 121.3 284.8 119.7C258.6 113.2 186.6 173.8 110.5 238.1C73.8998 269 36.2998 300.7 1.2998 327.2L0.299805 326.6C35.2998 300.2 73.1998 268.2 109.8 237.3C186.2 172.9 258.3 112 285 118.7C294 120.3 301 124.6 305.7 131.5C321.4 154.7 310.7 205.3 300.3 254.3C289 307.8 277.2 363 300 382C320.8 399.3 387.8 375.8 465.4 348.6C534.9 324.2 613.7 296.6 668.8 296.6C732.9 296.6 774.7 314.5 811.5 330.4C838.1 341.8 861.1 351.7 886.7 351.7C916.2 351.7 937.5 346.1 960 340.2C984.5 333.8 1009.9 327.1 1048.9 326.2V326.1H1120V327.2H1058.7C1014.1 327.2 986.7 334.4 960.3 341.3C937.7 347.2 916.3 352.8 886.7 352.8C860.9 352.8 837.8 342.9 811.1 331.4C774.3 315.6 732.7 297.7 668.8 297.7C613.9 297.7 535.2 325.3 465.8 349.6C406.6 370.3 353.5 388.9 322.1 388.9Z" fill="url(#paint13_linear_201_178)"/>
<path d="M305.5 393.7C295.3 393.7 287.3 391.7 281.8 387.1C256.4 366 274 305.2 291.1 246.5C306.2 194.6 321.7 140.9 306.6 116.7C302.2 109.6 295.5 105.4 286.1 103.7C258 96.7001 186.9 161.4 111.7 230C74.7997 263.7 36.6997 298.3 1.09971 327.1L0.199707 326.4C35.8997 297.6 73.9997 262.8 111 229.2C186.4 160.5 257.7 95.5001 286.4 102.7C295.9 104.4 303.1 108.9 307.6 116.2C322.9 140.8 307.3 194.7 292.2 246.9C275.3 305.3 257.7 365.7 282.6 386.4C304.7 404.8 371.1 380.1 447.9 351.4C519.3 324.7 600.3 294.5 660.3 294.5C729.3 294.5 770.5 313.8 806.9 330.9C833.1 343.2 855.8 353.8 883.3 353.8C915.1 353.8 936.1 347.8 958.3 341.4C982 334.6 1006.4 327.6 1046.5 326.4V326.2H1120.2V327.3H1059.8C1011.8 327.3 984.8 335 958.7 342.5C936.4 348.9 915.3 354.9 883.4 354.9C855.6 354.9 832.9 344.2 806.5 331.9C770.2 314.9 729.1 295.6 660.4 295.6C600.6 295.6 519.8 325.8 448.4 352.4C389.7 374.1 337.3 393.7 305.5 393.7Z" fill="url(#paint14_linear_201_178)"/>
<path d="M288.9 398.4C278.5 398.4 270.2 396.3 264.4 391.4C237 368.6 260.5 302.7 283.3 239C303 183.8 323.5 126.7 308.6 101.3C304.3 93.9002 297.4 89.5002 287.5 87.8002C257.5 80.3002 187.3 149.2 112.9 222C75.6999 258.4 37.3999 296 1.19991 327.1L0.399902 326.4C36.5999 295.3 74.9999 257.6 112.2 221.2C186.8 148.1 257.2 79.1002 287.8 86.7002C297.9 88.4002 305.2 93.2002 309.6 100.7C324.7 126.6 305.1 181.4 284.4 239.4C261.8 302.7 238.3 368.2 265.2 390.5C288.7 410 354.4 384 430.5 353.9C503.7 324.9 586.7 292.1 651.6 292.1C725.5 292.1 766.2 312.8 802 331.1C827.9 344.3 850.2 355.7 879.7 355.7C913.8 355.7 934.4 349.3 956.4 342.5C979.2 335.4 1002.8 328.1 1043.7 326.5V326.2H1120.2V327.3H1060.6C1009.1 327.3 982.5 335.6 956.8 343.6C934.8 350.4 914 356.9 879.8 356.9C850.1 356.9 827.6 345.5 801.6 332.2C765.9 314 725.3 293.4 651.7 293.4C587 293.4 504.1 326.2 431 355.2C373 377.8 321.1 398.4 288.9 398.4Z" fill="url(#paint15_linear_201_178)"/>
<path d="M272.3 403.1C261.7 403.1 253.1 400.8 246.9 395.7C217.4 371.2 247 300.3 275.6 231.7C300 173.2 325.2 112.6 310.5 85.9002C306.3 78.3002 299.2 73.7002 288.8 71.9002C256.9 64.0002 187.1 137.2 113.2 214.7C75.9997 253.7 37.7997 293.8 1.19971 327.2L0.199707 326.7C36.7997 293.3 75.1997 253 112.4 214C186.5 136.2 256.6 62.8002 289.1 70.9002C299.6 72.7002 307.2 77.6002 311.5 85.5002C326.4 112.7 302.2 170.8 276.6 232.3C248.2 300.5 218.8 371 247.6 395C272.4 415.7 337.6 388.4 413.1 356.8C488 325.5 572.9 290 642.8 290C721.6 290 761.7 312.1 797.1 331.6C822.6 345.7 844.6 357.8 876.1 357.8C912.4 357.8 932.8 350.9 954.4 343.7C976.5 336.3 999.2 328.6 1040.6 326.7V326.3H1120V327.4H1061.2C1006.3 327.4 980.1 336.2 954.7 344.7C933 352 912.5 358.9 876 358.9C844.3 358.9 822.1 346.7 796.5 332.6C761.3 313.2 721.3 291.2 642.8 291.2C573.1 291.2 488.3 326.7 413.5 357.9C356.3 381.6 304.9 403.1 272.3 403.1Z" fill="url(#paint16_linear_201_178)"/>
<path d="M255.7 407.8C244.9 407.8 236 405.4 229.4 399.9C197.9 373.7 233.5 297.7 268 224.3C298.4 159.6 327.1 98.4 312.4 70.3C308.3 62.4 301 57.6 290.1 55.8C256.3 47.4 187.5 124.3 114.6 205.7C77.0996 247.7 38.1996 291 0.899605 326.9L0.0996094 326.1C37.3996 290.3 76.2996 246.9 113.8 204.9C190.1 119.7 255.9 46 290.4 54.6C301.4 56.5 309.2 61.6 313.4 69.7C328.3 98.2 299.5 159.6 269 224.6C234.7 297.7 199.3 373.2 230.1 398.9C256.3 420.7 321 392.2 396 359.2C472.5 325.5 559.2 287.4 634.2 287.4C718 287.4 757.5 310.9 792.3 331.6C817.4 346.5 839.1 359.4 872.5 359.4C911.1 359.4 931.2 352.1 952.5 344.4C973.8 336.7 995.7 328.7 1037.6 326.5V325.9H1120V327H1062C1003.7 327 977.8 336.4 952.9 345.4C931.5 353.1 911.3 360.5 872.5 360.5C838.8 360.5 817 347.5 791.7 332.5C757 311.9 717.6 288.5 634.2 288.5C559.5 288.5 472.9 326.6 396.5 360.3C339.7 385.4 288.8 407.8 255.7 407.8Z" fill="url(#paint17_linear_201_178)"/>
<path d="M239.1 412.5C228.1 412.5 218.9 410 212 404.2C178.5 376.3 220.2 295.3 260.6 217.1C295.8 148.8 329.1 84.3 314.5 54.9C310.4 46.7 303 41.8 291.6 39.9C254.2 33.2 185.7 114.5 113.2 200.4C76.2997 244.2 38.0997 289.4 0.999702 327L0.199707 326.2C37.1997 288.6 75.3997 243.4 112.3 199.6C149.5 155.6 184.5 114 215.4 83.9C250.1 50 274.4 35.6 291.8 38.7C303.4 40.7 311.3 46 315.5 54.3C330.3 84.1 297 148.9 261.6 217.5C221.4 295.4 179.9 375.9 212.8 403.3C240.3 426.2 304.6 396.5 379.1 362.1C457.2 326.1 545.6 285.2 625.6 285.2C714.3 285.2 753.2 310.1 787.6 332C812.4 347.8 833.7 361.5 869.1 361.5C910 361.5 929.8 353.8 950.7 345.6C971.3 337.6 992.4 329.3 1034.6 326.8V326H1120.1V327.1H1062.9C1001.2 327.1 975.7 337 951.1 346.6C930 354.8 910.1 362.6 869.1 362.6C833.4 362.6 811.9 348.9 787 333C752.8 311.2 714 286.4 625.6 286.4C545.9 286.4 457.5 327.2 379.6 363.2C323.2 389.2 272.6 412.5 239.1 412.5Z" fill="url(#paint18_linear_201_178)"/>
<path d="M222.8 417.5C211.5 417.5 202 414.8 194.5 408.6C159 379 206.8 293.1 253.2 210C293.2 138.1 331.1 70.2 316.4 39.6C312.4 31.2 304.7 26.1 292.9 24.1C254.2 17.5 185.8 103.2 113.4 194C76.7997 239.9 38.8997 287.4 1.9997 326.9L1.19971 326.1C38.0997 286.6 75.9997 239.2 112.6 193.3C149.7 146.8 184.7 102.9 215.7 71.1C250.6 35.2 275.2 19.9 293.2 23C305.2 25.1 313.4 30.5 317.5 39.1C332.4 70.3 294.4 138.4 254.2 210.5C208.1 293.2 160.5 378.8 195.3 407.7C208.5 418.7 229.4 419.1 261 409.1C289.7 400 324.9 383 362.3 365C441.9 326.6 532 283 617 283C710.6 283 749 309.2 782.8 332.4C807.2 349.1 828.2 363.5 865.6 363.5C908.7 363.5 928.2 355.4 948.9 346.7C968.8 338.4 989.2 329.9 1031.6 327V326H1120.2V327.1H1063.9C998.7 327.1 973.7 337.6 949.4 347.7C928.6 356.4 909 364.5 865.7 364.5C828 364.5 806.8 350 782.3 333.2C748.6 310.1 710.4 284 617.1 284C532.4 284 442.3 327.5 362.9 365.9C304.8 393.9 256.1 417.5 222.8 417.5Z" fill="url(#paint19_linear_201_178)"/>
<path d="M404.5 252.3C404.5 253.5 403.6 254.3 402.5 254.3H379C377.8 254.3 377 253.4 377 252.3L378.2 150.8L377 53.3999C377 52.1999 377.9 51.3999 379 51.3999H402.5C403.7 51.3999 404.5 52.2999 404.5 53.3999L403.6 150.8L404.5 252.3Z" fill="white"/>
<path d="M634.1 252.3C634.1 253.5 633.2 254.3 632.1 254.3H609.2C608 254.3 607.2 253.4 607.2 252.3L607.8 195.5V161.9C607.8 133.2 596.5 121.6 579.1 121.6C563.2 121.6 550.1 136.1 543.7 160.4V195.5L544.3 252.3C544.3 253.5 543.4 254.3 542.3 254.3H519.1C517.9 254.3 517.1 253.4 517.1 252.3L517.7 195.5V161.9C517.7 133.2 506.7 121.6 489.3 121.6C471.9 121.6 458 138.4 452.5 166.5V195.5L453.1 252.3C453.1 253.5 452.2 254.3 451.1 254.3H427.6C426.4 254.3 425.6 253.4 425.6 252.3L426.5 195.5L425.9 107.1C425.9 105.9 426.8 105.1 427.9 105.1H449.9C451.1 105.1 451.9 106 451.9 107.1L451 131.2C460.3 115 474.8 101.6 497.1 101.6C518.6 101.6 533.6 111.5 540.3 132.9C550.7 113.2 566.1 101.6 587.3 101.6C616.6 101.6 634 120.2 634 161V195.5L634.1 252.3Z" fill="white"/>
<path d="M755 107.1C755 105.9 755.9 105.1 757 105.1H779.6C780.8 105.1 781.6 106 781.6 107.1L781 178.1L781.6 252.3C781.6 253.5 780.7 254.3 779.6 254.3H757.3C756.1 254.3 755.3 253.4 755.3 252.3L755.9 230.3C745.8 247.1 729.8 257.3 708.1 257.3C667.8 257.3 646.4 223.4 646.4 180.2C646.4 137 669.3 102.2 708.7 102.2C729.6 102.2 745.8 111.2 755.7 127.7L755 107.1ZM756.4 181C756.7 142.7 741.6 120.7 715.2 120.4C686.5 120.1 673.2 144.2 673.2 178.1C673.2 214 686.5 239 714.7 238.7C740.5 238.7 756.1 219.3 756.4 181Z" fill="white"/>
<path d="M905.7 105H928.3C929.5 105 930.3 105.9 930.3 107L929.4 163.2L929.7 243.5C930 287 905.9 311 863.3 311C829.1 311.3 801.6 296.8 798.9 264.3C798.9 263.1 799.8 262.3 800.9 262.3H823.2C824.4 262.3 825.2 262.9 825.5 264.3C827.5 283.7 842.6 292.7 863.8 292.7C888.2 292.7 905 277.6 905 243.1V227.2C895.4 243.7 879.5 253.3 858.6 253.3C816.9 253.3 794.8 221.7 794.8 179.1C794.8 136.8 817.4 102.6 857.7 102.6C878.6 102.6 894.5 111.3 904.4 127.8L903.5 106.9C903.7 105.9 904.5 105 905.7 105ZM905.1 180.4C905.4 142.7 890.3 120.7 863.9 120.4C835.8 120.1 821.9 143.3 821.9 178.4C821.9 214.9 836.1 236.1 864.5 235.8C888.9 235.5 904.8 217.8 905.1 180.4Z" fill="white"/>
<path d="M976.4 252.3C976.4 253.5 975.5 254.3 974.4 254.3H951.2C950 254.3 949.2 253.4 949.2 252.3L949.8 177.2L949.2 107C949.2 105.8 950.1 105 951.2 105H974.4C975.6 105 976.4 105.9 976.4 107L975.8 177.2L976.4 252.3ZM976.4 62.3999V86.4999C976.4 87.6999 975.5 88.4999 974.4 88.4999H951.5C950.3 88.4999 949.5 87.5999 949.5 86.4999V62.3999C949.5 61.1999 950.4 60.3999 951.5 60.3999H974.4C975.6 60.3999 976.4 61.2999 976.4 62.3999Z" fill="white"/>
<path d="M1022.8 252.3C1022.8 253.5 1021.9 254.3 1020.8 254.3H997.6C996.4 254.3 995.6 253.4 995.6 252.3L996.5 186.5L995.9 107.1C995.9 105.9 996.8 105.1 997.9 105.1H1019.9C1021.1 105.1 1021.9 106 1021.9 107.1L1021 131.2C1030.3 115.8 1047.1 101.6 1070.9 101.6C1101.6 101.6 1121.1 121.9 1121.1 161V190.6L1121.4 252.3C1121.4 253.5 1120.5 254.3 1119.4 254.3H1096.5C1095.3 254.3 1094.5 253.4 1094.5 252.3L1095.1 190.6V161.9C1095.1 134.1 1082.3 121.6 1063.8 121.6C1044.1 121.6 1028.4 137.5 1022.6 166.5V190.6L1022.8 252.3Z" fill="white"/>
<path d="M1244.9 204.2C1245.2 203 1245.8 202.5 1246.9 202.5H1268.4C1269.6 202.5 1270.7 203.4 1270.4 204.5C1265.8 235.5 1243.4 257.8 1204.9 257.8C1158.5 257.8 1133.6 225.6 1133.6 180.1C1133.6 133.4 1160 101.5 1203.5 101.5C1247 101.5 1272.5 131.4 1273.1 180.9C1273.1 182.1 1272.2 182.9 1271.1 182.9H1160.4C1161.3 219.7 1176.1 239.1 1205.3 239.1C1227.5 239.3 1240.8 226.8 1244.9 204.2ZM1161.1 165H1244.3C1243.4 140.4 1230.1 119.8 1203.7 119.8C1179.1 119.8 1164.6 136.3 1161.1 165Z" fill="white"/>
<path d="M1120.8 327.2H1119.9V325.9H1120.7C1121 325.9 1121.3 326.2 1121.3 326.5V326.6C1121.4 326.9 1121.1 327.2 1120.8 327.2Z" fill="#40DEFA"/>
<path d="M206.4 422.3C194.9 422.3 185.1 419.4 177.2 412.9C139.5 381.5 194 289.7 246.6 200.9C291.4 125.4 333.6 54.1001 318.8 22.9001C314.8 14.5001 306.9 9.50011 294.5 7.60011C250.4 2.70011 182.6 93.1001 110.8 188.9C74.9997 236.6 38.0997 285.9 1.4997 327.1L0.699707 326.4C37.1997 285.2 74.1997 235.9 109.9 188.3C146.6 139.3 181.3 93.1001 212.7 59.2001C248.1 21.0001 274.1 4.30011 294.6 6.60011C307.1 8.50011 315.6 13.8001 319.7 22.5001C334.8 54.2001 292.4 125.8 247.5 201.5C195.1 289.9 140.9 381.4 177.9 412.1C208.1 437.2 268.8 406.6 345.7 367.9C422.8 329.1 518.7 280.7 608.8 280.7C707.5 280.7 745.3 308.3 778.6 332.7C802.6 350.3 823.4 365.5 862.7 365.5C908.2 365.5 927.4 356.9 947.8 347.8C971.8 337.1 996.7 326 1065.4 326C1065.5 326 1068.3 326 1119.7 326V327.1C1093.1 327.1 1079.5 327.2 1072.6 327.2C1068.1 327.2 1066.2 327.2 1065.4 327.1V327.2C996.8 327.2 972.1 338.2 948.2 348.9C927.7 358 908.4 366.7 862.7 366.7C823 366.7 802.1 351.4 777.9 333.7C744.7 309.4 707 281.9 608.7 281.9C518.8 281.9 423 330.2 346.1 368.9C288.7 397.8 240.2 422.3 206.4 422.3Z" fill="url(#paint20_linear_201_178)"/>
<path d="M1516 351.6C1612.43 351.6 1690.6 272.892 1690.6 175.8C1690.6 78.7083 1612.43 0 1516 0C1419.57 0 1341.4 78.7083 1341.4 175.8C1341.4 272.892 1419.57 351.6 1516 351.6Z" fill="white"/>
<path d="M1516 337.5C1514.4 337.5 1512.8 337.5 1511.2 337.4L1544.2 246.6H1589.7C1597.7 246.6 1606.4 240.5 1609.2 233L1645.1 134.5C1651 118.4 1641.7 105.2 1624.6 105.2H1561.5L1508.6 250.7L1478.6 333.2C1407.3 316.2 1354.3 252.2 1354.3 175.8C1354.3 99.4001 1404.2 39.1001 1472.3 20.1001L1441.3 105.2L1389.8 246.6H1424.1L1467.9 126.4H1493.7L1449.9 246.6H1484.2L1525 134.5C1530.9 118.4 1521.6 105.2 1504.5 105.2H1475.7L1508.8 14.3001C1511.2 14.2001 1513.6 14.1001 1516.1 14.1001C1605.4 14.1001 1677.8 86.5001 1677.8 175.8C1677.8 265.1 1605.3 337.5 1516 337.5ZM1613.8 126.4H1588.1L1552 225.3H1577.8L1613.8 126.4Z" fill="#0096D4"/>
<defs>
<linearGradient id="paint0_linear_201_178" x1="57.2913" y1="326.62" x2="1112.06" y2="326.62" gradientUnits="userSpaceOnUse">
<stop stop-color="#4759F5"/>
<stop offset="0.696" stop-color="#0096D6"/>
<stop offset="0.9993" stop-color="#40DEFA"/>
</linearGradient>
<linearGradient id="paint1_linear_201_178" x1="57.2909" y1="320.95" x2="1112.06" y2="320.95" gradientUnits="userSpaceOnUse">
<stop stop-color="#4759F5"/>
<stop offset="0.696" stop-color="#0096D6"/>
<stop offset="0.9993" stop-color="#40DEFA"/>
</linearGradient>
<linearGradient id="paint2_linear_201_178" x1="57.2913" y1="315.295" x2="1112.06" y2="315.295" gradientUnits="userSpaceOnUse">
<stop stop-color="#4759F5"/>
<stop offset="0.696" stop-color="#0096D6"/>
<stop offset="0.9993" stop-color="#40DEFA"/>
</linearGradient>
<linearGradient id="paint3_linear_201_178" x1="57.2912" y1="309.746" x2="1112.06" y2="309.746" gradientUnits="userSpaceOnUse">
<stop stop-color="#4759F5"/>
<stop offset="0.696" stop-color="#0096D6"/>
<stop offset="0.9993" stop-color="#40DEFA"/>
</linearGradient>
<linearGradient id="paint4_linear_201_178" x1="57.2912" y1="303.977" x2="1112.06" y2="303.977" gradientUnits="userSpaceOnUse">
<stop stop-color="#4759F5"/>
<stop offset="0.696" stop-color="#0096D6"/>
<stop offset="0.9993" stop-color="#40DEFA"/>
</linearGradient>
<linearGradient id="paint5_linear_201_178" x1="57.2913" y1="298.321" x2="1112.06" y2="298.321" gradientUnits="userSpaceOnUse">
<stop stop-color="#4759F5"/>
<stop offset="0.696" stop-color="#0096D6"/>
<stop offset="0.9993" stop-color="#40DEFA"/>
</linearGradient>
<linearGradient id="paint6_linear_201_178" x1="57.2912" y1="292.697" x2="1112.06" y2="292.697" gradientUnits="userSpaceOnUse">
<stop stop-color="#4759F5"/>
<stop offset="0.696" stop-color="#0096D6"/>
<stop offset="0.9993" stop-color="#40DEFA"/>
</linearGradient>
<linearGradient id="paint7_linear_201_178" x1="57.2911" y1="287.231" x2="1112.06" y2="287.231" gradientUnits="userSpaceOnUse">
<stop stop-color="#4759F5"/>
<stop offset="0.696" stop-color="#0096D6"/>
<stop offset="0.9993" stop-color="#40DEFA"/>
</linearGradient>
<linearGradient id="paint8_linear_201_178" x1="57.2912" y1="281.637" x2="1112.06" y2="281.637" gradientUnits="userSpaceOnUse">
<stop stop-color="#4759F5"/>
<stop offset="0.696" stop-color="#0096D6"/>
<stop offset="0.9993" stop-color="#40DEFA"/>
</linearGradient>
<linearGradient id="paint9_linear_201_178" x1="57.2911" y1="276.002" x2="1112.06" y2="276.002" gradientUnits="userSpaceOnUse">
<stop stop-color="#4759F5"/>
<stop offset="0.696" stop-color="#0096D6"/>
<stop offset="0.9993" stop-color="#40DEFA"/>
</linearGradient>
<linearGradient id="paint10_linear_201_178" x1="57.291" y1="270.365" x2="1112.06" y2="270.365" gradientUnits="userSpaceOnUse">
<stop stop-color="#4759F5"/>
<stop offset="0.696" stop-color="#0096D6"/>
<stop offset="0.9993" stop-color="#40DEFA"/>
</linearGradient>
<linearGradient id="paint11_linear_201_178" x1="57.2911" y1="264.727" x2="1112.06" y2="264.727" gradientUnits="userSpaceOnUse">
<stop stop-color="#4759F5"/>
<stop offset="0.696" stop-color="#0096D6"/>
<stop offset="0.9993" stop-color="#40DEFA"/>
</linearGradient>
<linearGradient id="paint12_linear_201_178" x1="57.291" y1="259.156" x2="1112.06" y2="259.156" gradientUnits="userSpaceOnUse">
<stop stop-color="#4759F5"/>
<stop offset="0.696" stop-color="#0096D6"/>
<stop offset="0.9993" stop-color="#40DEFA"/>
</linearGradient>
<linearGradient id="paint13_linear_201_178" x1="57.2911" y1="253.523" x2="1112.06" y2="253.523" gradientUnits="userSpaceOnUse">
<stop stop-color="#4759F5"/>
<stop offset="0.696" stop-color="#0096D6"/>
<stop offset="0.9993" stop-color="#40DEFA"/>
</linearGradient>
<linearGradient id="paint14_linear_201_178" x1="57.291" y1="247.887" x2="1112.06" y2="247.887" gradientUnits="userSpaceOnUse">
<stop stop-color="#4759F5"/>
<stop offset="0.696" stop-color="#0096D6"/>
<stop offset="0.9993" stop-color="#40DEFA"/>
</linearGradient>
<linearGradient id="paint15_linear_201_178" x1="57.2912" y1="242.252" x2="1112.06" y2="242.252" gradientUnits="userSpaceOnUse">
<stop stop-color="#4759F5"/>
<stop offset="0.696" stop-color="#0096D6"/>
<stop offset="0.9993" stop-color="#40DEFA"/>
</linearGradient>
<linearGradient id="paint16_linear_201_178" x1="57.291" y1="236.617" x2="1112.06" y2="236.617" gradientUnits="userSpaceOnUse">
<stop stop-color="#4759F5"/>
<stop offset="0.696" stop-color="#0096D6"/>
<stop offset="0.9993" stop-color="#40DEFA"/>
</linearGradient>
<linearGradient id="paint17_linear_201_178" x1="57.2909" y1="230.963" x2="1112.06" y2="230.963" gradientUnits="userSpaceOnUse">
<stop stop-color="#4759F5"/>
<stop offset="0.696" stop-color="#0096D6"/>
<stop offset="0.9993" stop-color="#40DEFA"/>
</linearGradient>
<linearGradient id="paint18_linear_201_178" x1="57.291" y1="225.477" x2="1112.06" y2="225.477" gradientUnits="userSpaceOnUse">
<stop stop-color="#4759F5"/>
<stop offset="0.696" stop-color="#0096D6"/>
<stop offset="0.9993" stop-color="#40DEFA"/>
</linearGradient>
<linearGradient id="paint19_linear_201_178" x1="57.291" y1="219.977" x2="1112.06" y2="219.977" gradientUnits="userSpaceOnUse">
<stop stop-color="#4759F5"/>
<stop offset="0.696" stop-color="#0096D6"/>
<stop offset="0.9993" stop-color="#40DEFA"/>
</linearGradient>
<linearGradient id="paint20_linear_201_178" x1="0.818707" y1="214.3" x2="1119.91" y2="214.3" gradientUnits="userSpaceOnUse">
<stop stop-color="#4759F5"/>
<stop offset="0.696" stop-color="#0096D6"/>
<stop offset="0.9993" stop-color="#40DEFA"/>
</linearGradient>
</defs>
</svg>
