<?xml version="1.0" encoding="utf-8"?>
<!-- Generator: Adobe Illustrator 28.2.0, SVG Export Plug-In . SVG Version: 6.00 Build 0)  -->
<svg version="1.1" id="Layer_1" xmlns="http://www.w3.org/2000/svg" xmlns:xlink="http://www.w3.org/1999/xlink" x="0px" y="0px"
	 viewBox="0 0 1920 1080" style="enable-background:new 0 0 1920 1080;" xml:space="preserve">
<style type="text/css">
	.st0{fill:url(#SVGID_1_);}
	.st1{fill:url(#SVGID_00000029744344669582118630000008673105751828968378_);}
	.st2{fill:url(#SVGID_00000100344351436003264920000011919870191833686946_);}
	.st3{fill:url(#SVGID_00000101076542734514639810000010188054669881471930_);}
	.st4{fill:url(#SVGID_00000025412448170879256020000015303591381908926361_);}
	.st5{fill:url(#SVGID_00000092417184069996075440000000165058872816247178_);}
	.st6{fill:url(#SVGID_00000028317758997490553930000010444213485545750919_);}
	.st7{fill:url(#SVGID_00000170986408670878957440000015075752100001492143_);}
	.st8{fill:url(#SVGID_00000183217083350312192840000001139582825107990704_);}
	.st9{fill:url(#SVGID_00000029037460531851558550000010775663450304534955_);}
	.st10{fill:url(#SVGID_00000047033644251187333750000008685358917059893146_);}
	.st11{fill:url(#SVGID_00000098938545379113350870000008195310265983912347_);}
	.st12{fill:url(#SVGID_00000015319871573620288660000018138520971871025341_);}
	.st13{fill:url(#SVGID_00000181071290279586987710000008840344573540291460_);}
	.st14{fill:url(#SVGID_00000035490885339408534750000015783912126755963033_);}
	.st15{fill:url(#SVGID_00000067232508543043955510000010927321901113722015_);}
	.st16{fill:url(#SVGID_00000119100068121023348260000016145081758285200797_);}
	.st17{fill:url(#SVGID_00000046332236804526730900000012157999079486108297_);}
	.st18{fill:url(#SVGID_00000050636676179155363920000014889138283228636314_);}
	.st19{fill:url(#SVGID_00000140006064165383240910000006476224454017996932_);}
	.st20{fill:#40DEFA;}
	.st21{fill:url(#SVGID_00000013160530047216714000000016071891036209442992_);}
	.st22{fill:url(#SVGID_00000103944737298489660260000017045585030895967914_);}
	.st23{fill:url(#SVGID_00000010282247125031489020000016186882887747575426_);}
	.st24{fill:url(#SVGID_00000078750954702376491350000002530051678569830071_);}
	.st25{fill:url(#SVGID_00000054966374667749937780000017987415367645233556_);}
	.st26{fill:url(#SVGID_00000101796376523764649170000015730025122472913834_);}
	.st27{fill:url(#SVGID_00000153696163742057410690000015642226769242323359_);}
	.st28{fill:url(#SVGID_00000063629326199622268430000015281391149751949719_);}
	.st29{fill:url(#SVGID_00000036230298190876357210000009872679695510704063_);}
	.st30{fill:url(#SVGID_00000006699297549690922480000015163252375773280672_);}
	.st31{fill:url(#SVGID_00000148637021694150929360000017523095751192322451_);}
	.st32{fill:url(#SVGID_00000039828550852314044660000009367805521948745913_);}
	.st33{fill:url(#SVGID_00000026122191785754132280000004047695800068693129_);}
	.st34{fill:url(#SVGID_00000017480139570536115590000009134365205082339213_);}
	.st35{fill:url(#SVGID_00000174593130796227945410000016791927440358715551_);}
	.st36{fill:url(#SVGID_00000102518671478571731140000000809066370831372212_);}
	.st37{fill:url(#SVGID_00000106830300800998991840000006261587742615143086_);}
	.st38{fill:url(#SVGID_00000125579124396155238530000015558975197236095908_);}
	.st39{fill:url(#SVGID_00000132806702652794737880000017994207264983813561_);}
	.st40{fill:url(#SVGID_00000111152637126817145680000000890046209365267610_);}
	.st41{fill:url(#SVGID_00000148639717183807198740000015223829717780388007_);}
	.st42{fill:#FFFFFF;}
	.st43{fill:url(#SVGID_00000052826588792306004710000014656633038179931030_);}
	.st44{fill:#0096D4;}
</style>
<g>
	<linearGradient id="SVGID_1_" gradientUnits="userSpaceOnUse" x1="176.9913" y1="652.3195" x2="1231.7626" y2="652.3195">
		<stop  offset="0" style="stop-color:#4759F5"/>
		<stop  offset="0.696" style="stop-color:#0096D6"/>
		<stop  offset="0.9993" style="stop-color:#40DEFA"/>
	</linearGradient>
	<path class="st0" d="M1239.7,652.9H120.3c-0.3,0-0.6-0.2-0.6-0.6s0.2-0.6,0.6-0.6h1119.4c0.3,0,0.6,0.2,0.6,0.6
		S1240,652.9,1239.7,652.9z"/>
</g>
<g>
	
		<linearGradient id="SVGID_00000070106823560654833270000011252955297033287584_" gradientUnits="userSpaceOnUse" x1="176.9913" y1="646.6505" x2="1231.7626" y2="646.6505">
		<stop  offset="0" style="stop-color:#4759F5"/>
		<stop  offset="0.696" style="stop-color:#0096D6"/>
		<stop  offset="0.9993" style="stop-color:#40DEFA"/>
	</linearGradient>
	<path style="fill:url(#SVGID_00000070106823560654833270000011252955297033287584_);" d="M642.2,657.6c-8.2,0-12.7-0.2-13.2-0.6
		c-3.6-2.2-116.1-10.6-183.4-15.7c-32-2.4-55.1-4.1-56.9-4.5c-3.4-0.6-140,8-239.8,14.2l-28,1.8l-0.1-1.1l28-1.8
		c129.8-8.2,237.5-14.9,240.1-14.2c1.8,0.3,26.1,2.1,56.8,4.4c95.5,7.2,181.4,13.8,184,15.9c4.1,1.7,149.6-3,219.5-5.3
		c24.1-0.8,41.5-1.4,43.7-1.4c4.9,0,53.6,1.4,96.6,2.6c31.1,0.9,58,1.6,59.9,1.6c2.3,0,27.1-0.4,53.4-0.9
		c30.9-0.5,62.8-1.1,66.2-1.1h71.2v1.1h-71.2c-3.4,0-35.3,0.6-66.2,1.1c-26.3,0.5-51.1,0.9-53.4,0.9c-2,0-28.9-0.8-60-1.6
		c-42.9-1.2-91.6-2.6-96.5-2.6c-2.2,0-19.6,0.6-43.7,1.4C744.8,655.4,670.9,657.6,642.2,657.6z"/>
</g>
<g>
	
		<linearGradient id="SVGID_00000013897628495773850460000012414499792136028307_" gradientUnits="userSpaceOnUse" x1="176.9913" y1="640.9946" x2="1231.7626" y2="640.9946">
		<stop  offset="0" style="stop-color:#4759F5"/>
		<stop  offset="0.696" style="stop-color:#0096D6"/>
		<stop  offset="0.9993" style="stop-color:#40DEFA"/>
	</linearGradient>
	<path style="fill:url(#SVGID_00000013897628495773850460000012414499792136028307_);" d="M624.9,662.3c-7.9,0-12.6-0.3-13.4-1
		c-4.3-3.6-73.9-16.4-206.8-38c-7.8-1.3-13-2.1-14.7-2.4c-4.9-1.2-119.6,13.2-211.7,24.8c-20.2,2.5-39.8,5-57.5,7.2l-0.1-1.1
		c17.7-2.2,37.2-4.7,57.5-7.2c97-12.2,207-26,212.1-24.8c1.6,0.3,6.8,1.1,14.6,2.4c49.6,8.1,200.6,32.6,207.4,38.2
		c4.1,3.4,128.7-4.5,203.1-9.2c35.4-2.3,63.4-4,68.9-4c9.9,0,58,2.8,100.4,5.2c30.7,1.8,57.3,3.3,61.2,3.3c4.5,0,29.1-0.9,55.1-1.8
		c30.5-1.1,62-2.2,68.9-2.2h70.4v1.1h-70.4c-6.9,0-38.4,1.1-68.9,2.2c-26,0.9-50.5,1.8-55.1,1.8c-4,0-30.5-1.5-61.3-3.3
		c-42.4-2.4-90.5-5.2-100.3-5.2c-5.5,0-33.4,1.8-68.9,4C732,657.6,655.2,662.3,624.9,662.3z"/>
</g>
<g>
	
		<linearGradient id="SVGID_00000053525345083819492440000004016530317120899771_" gradientUnits="userSpaceOnUse" x1="176.9913" y1="635.446" x2="1231.7626" y2="635.446">
		<stop  offset="0" style="stop-color:#4759F5"/>
		<stop  offset="0.696" style="stop-color:#0096D6"/>
		<stop  offset="0.9993" style="stop-color:#40DEFA"/>
	</linearGradient>
	<path style="fill:url(#SVGID_00000053525345083819492440000004016530317120899771_);" d="M607.6,667.1c-7.9,0-12.8-0.5-14.1-1.5
		c-11.9-9.9-186.4-57.8-202.7-60.6c-7-1.7-108.2,17.4-197.5,34.3c-26.1,4.9-50.2,9.5-72.5,13.6l-0.7-1c22.3-4.1,46.9-8.8,73-13.7
		c93.8-17.7,190.8-36,197.9-34.3c16.3,2.8,191.2,50.9,203.2,60.9c5.9,4.9,118.2-5.5,192.6-12.5c42.4-3.9,79-7.3,88.3-7.3
		c14.8,0,62.3,4.1,104.2,7.8c30.4,2.6,56.6,4.9,62.5,4.9c6.8,0,31.1-1.3,56.7-2.7c30.1-1.6,61.3-3.3,71.6-3.3h69.6v1.1h-69.6
		c-10.3,0-41.4,1.7-71.6,3.3c-25.7,1.4-49.9,2.7-56.8,2.7c-5.9,0-32.2-2.3-62.6-4.9c-41.9-3.6-89.4-7.8-104.2-7.8
		c-9.2,0-45.8,3.4-88.2,7.3C706.5,660.9,636.6,667.1,607.6,667.1z"/>
</g>
<g>
	
		<linearGradient id="SVGID_00000034070074772355351520000001441570206096379568_" gradientUnits="userSpaceOnUse" x1="176.9913" y1="629.6773" x2="1231.7626" y2="629.6773">
		<stop  offset="0" style="stop-color:#4759F5"/>
		<stop  offset="0.696" style="stop-color:#0096D6"/>
		<stop  offset="0.9993" style="stop-color:#40DEFA"/>
	</linearGradient>
	<path style="fill:url(#SVGID_00000034070074772355351520000001441570206096379568_);" d="M591.5,671.7c-8.1,0-13.3-0.6-14.9-1.9
		c-16-13.3-160.3-76.8-183.9-80.9c-9-2.2-100.5,20.9-189.1,43.2c-28.3,7.1-57.5,14.5-82.7,20.7l-0.3-1.1
		c25.3-6.2,54.5-13.6,82.7-20.7c88.7-22.4,180.4-45.5,189.6-43.2c23.6,4.1,168.3,67.8,184.3,81.1c7.6,6.3,106.1-5.7,185.2-15.3
		c48.9-5.9,91.1-11.1,104.4-11.1c19.7,0,66.7,5.5,108.1,10.4c30,3.5,55.9,6.6,63.7,6.6c9.1,0,33-1.7,58.4-3.5
		c29.8-2.1,60.6-4.3,74.3-4.3h68.8v1.1h-68.8c-13.7,0-44.5,2.2-74.2,4.3c-25.4,1.8-49.3,3.5-58.5,3.5c-7.9,0-33.9-3-63.9-6.6
		c-41.4-4.9-88.3-10.4-108-10.4c-13.2,0-55.4,5.1-104.3,11.1C696.3,662.8,622.8,671.7,591.5,671.7z"/>
</g>
<g>
	
		<linearGradient id="SVGID_00000026861353146996384940000016953160533499235499_" gradientUnits="userSpaceOnUse" x1="176.9913" y1="624.0215" x2="1231.7626" y2="624.0215">
		<stop  offset="0" style="stop-color:#4759F5"/>
		<stop  offset="0.696" style="stop-color:#0096D6"/>
		<stop  offset="0.9993" style="stop-color:#40DEFA"/>
	</linearGradient>
	<path style="fill:url(#SVGID_00000026861353146996384940000016953160533499235499_);" d="M574.8,676.4c-8.2,0-13.7-0.7-15.7-2.4
		c-20.9-17.4-135.4-96-165-101.1c-10.9-2.7-98.8,25.1-183.7,51.9c-30.5,9.7-62,19.6-89.4,28l-0.3-1.1c27.4-8.4,58.9-18.3,89.4-28
		c89-28.2,173.1-54.8,184.3-52c29.7,5.2,144.6,83.9,165.5,101.4c9.2,7.6,103.8-6.5,179.8-17.8c52-7.8,101.1-15.1,118.6-15.1
		c24.6,0,71,6.9,111.9,13c29.6,4.4,55.2,8.2,65,8.2c11.4,0,35-2.1,60-4.4c29.4-2.7,59.8-5.4,77-5.4h67.9v1.1h-67.9
		c-17.1,0-47.5,2.8-76.9,5.4c-25.1,2.3-48.7,4.4-60.1,4.4c-9.9,0-35.5-3.8-65.2-8.2c-40.9-6.1-87.2-13-111.8-13
		c-17.5,0-66.5,7.3-118.5,15.1C676.3,665.9,606,676.4,574.8,676.4z"/>
</g>
<g>
	
		<linearGradient id="SVGID_00000121277849620362839640000013046520484184687010_" gradientUnits="userSpaceOnUse" x1="176.9913" y1="618.3972" x2="1231.7626" y2="618.3972">
		<stop  offset="0" style="stop-color:#4759F5"/>
		<stop  offset="0.696" style="stop-color:#0096D6"/>
		<stop  offset="0.9993" style="stop-color:#40DEFA"/>
	</linearGradient>
	<path style="fill:url(#SVGID_00000121277849620362839640000013046520484184687010_);" d="M558.3,681.2c-8.4,0-14.2-0.9-16.6-2.9
		c-6-5-16-14.8-28.6-27.2c-36.3-35.6-91.1-89.5-117.6-94.1c-12.9-3.2-97.8,29.1-179.9,60.4c-32.2,12.3-65.5,24.9-94.6,35.5l-0.4-1
		c29-10.6,62.3-23.3,94.5-35.5c86.1-32.8,167.4-63.7,180.5-60.4c26.8,4.6,81.8,58.7,118.1,94.4c12.7,12.4,22.6,22.3,28.6,27.2
		c10.7,8.9,98.4-6.5,175.8-20.2c56.3-9.9,109.5-19.3,131.5-19.3c29.6,0,75.4,8.3,115.8,15.6c29.2,5.3,54.5,9.8,66.3,9.8
		c13.6,0,37-2.6,61.7-5.3c29.1-3.2,59.1-6.5,79.7-6.5h67.1v1.1h-67.1c-20.5,0-50.6,3.3-79.6,6.5c-24.8,2.7-48.1,5.3-61.8,5.3
		c-11.9,0-37.2-4.6-66.5-9.9c-40.4-7.3-86.1-15.6-115.6-15.6c-21.9,0-75,9.4-131.3,19.3C654.5,669.6,588.9,681.2,558.3,681.2z"/>
</g>
<g>
	
		<linearGradient id="SVGID_00000147196672449232927740000005279961572048600469_" gradientUnits="userSpaceOnUse" x1="176.9913" y1="612.9307" x2="1231.7626" y2="612.9307">
		<stop  offset="0" style="stop-color:#4759F5"/>
		<stop  offset="0.696" style="stop-color:#0096D6"/>
		<stop  offset="0.9993" style="stop-color:#40DEFA"/>
	</linearGradient>
	<path style="fill:url(#SVGID_00000147196672449232927740000005279961572048600469_);" d="M541.1,686.1c-8.6,0-14.7-1-17.4-3.3
		c-9.6-8-23.1-27.1-38.7-49.2c-27.6-39.1-62-87.8-88.8-92.5c-14.8-3.7-97.6,33.2-177.7,68.9c-33.3,14.8-67.3,30-97.6,42.8L120,652
		c30.3-12.8,64.7-28.1,98-43c84-37.4,163.3-72.8,178.4-69c27.2,4.7,61.7,53.6,89.4,92.9c15.5,22,28.9,41,38.5,48.9
		c12.2,10.2,93.8-6.4,172.7-22.3c60.1-12.2,116.9-23.7,143.3-23.7c34.5,0,79.7,9.7,119.6,18.2c28.9,6.2,53.8,11.5,67.6,11.5
		c15.9,0,39-3,63.4-6.2c28.7-3.7,58.4-7.6,82.4-7.6h66.3v1.1h-66.3c-24,0-53.6,3.9-82.3,7.6c-24.5,3.2-47.5,6.2-63.5,6.2
		c-13.9,0-38.9-5.3-67.8-11.5c-39.9-8.5-85-18.1-119.4-18.1c-26.4,0-83.1,11.5-143.1,23.6C635.4,673.2,571.9,686.1,541.1,686.1z"/>
</g>
<g>
	
		<linearGradient id="SVGID_00000011018574022086537310000000840214645116899978_" gradientUnits="userSpaceOnUse" x1="176.9913" y1="607.3371" x2="1231.7626" y2="607.3371">
		<stop  offset="0" style="stop-color:#4759F5"/>
		<stop  offset="0.696" style="stop-color:#0096D6"/>
		<stop  offset="0.9993" style="stop-color:#40DEFA"/>
	</linearGradient>
	<path style="fill:url(#SVGID_00000011018574022086537310000000840214645116899978_);" d="M524.7,690.9c-8.9,0-15.2-1.2-18.4-3.8
		c-12.3-10.2-24.6-36.9-37.6-65.1c-19.9-43-42.4-91.8-71-96.8c-16.8-4.2-94.3,35.4-176.3,77.2c-34.2,17.4-69.4,35.4-100.7,50.4
		l-0.6-0.9c31.3-15,66.6-33,100.8-50.5c82.2-42,159.9-81.6,177-77.3c29.2,5.1,51.8,54.1,71.8,97.4c13,28.1,25.2,54.6,37.3,64.7
		c13.7,11.4,93.3-6.8,170.4-24.4c60.7-13.9,123.4-28.2,154.5-28.2c39.4,0,84.1,11,123.5,20.8c28.5,7,53.1,13.1,68.8,13.1
		c18.2,0,40.9-3.4,65-7.1c28.3-4.3,57.6-8.7,85.1-8.7h65.5v1.1h-65.5c-27.4,0-56.7,4.4-84.9,8.7c-24.1,3.6-46.9,7.1-65.2,7.1
		c-15.9,0-40.5-6.1-69.1-13.1c-39.3-9.7-83.9-20.7-123.2-20.7c-31,0-93.6,14.3-154.2,28.1C615,677.2,555.1,690.9,524.7,690.9z"/>
</g>
<g>
	
		<linearGradient id="SVGID_00000026885354744857843750000014597509854853626289_" gradientUnits="userSpaceOnUse" x1="176.9913" y1="601.7018" x2="1231.7626" y2="601.7018">
		<stop  offset="0" style="stop-color:#4759F5"/>
		<stop  offset="0.696" style="stop-color:#0096D6"/>
		<stop  offset="0.9993" style="stop-color:#40DEFA"/>
	</linearGradient>
	<path style="fill:url(#SVGID_00000026885354744857843750000014597509854853626289_);" d="M508,695.6c-9.1,0-15.7-1.3-19.2-4.3
		c-14.7-12.2-23.4-44.7-32.6-79c-12.9-48-26.2-97.7-57.1-103.1c-18.6-4.6-94.3,39-174.5,85.2c-35.1,20.2-71,40.9-103.5,58.3
		c-0.3,0.1-0.8,0.1-0.9-0.2c-0.1-0.3-0.2-0.4,0-0.5c32.4-17.4,68.7-38.3,103.8-58.5c80.4-46.3,156.3-90.1,175.3-85.4
		c31.6,5.5,45,55.5,58,103.9c9.2,34.2,17.9,66.5,32.3,78.5c15.1,12.6,93.2-7.2,168.6-26.3c63.5-16.1,129.2-32.8,165-32.8
		c44.3,0,88.4,12.4,127.3,23.4c28.1,7.9,52.4,14.8,70.1,14.8c20.4,0,42.9-3.9,66.7-8c28-4.8,56.9-9.8,87.8-9.8h64.6
		c0.3,0,0.6,0.2,0.6,0.6s-0.2,0.6-0.6,0.6h-64.6c-30.8,0-59.7,5-87.6,9.8c-23.8,4.1-46.3,8-66.9,8c-17.8,0-42.2-6.9-70.4-14.8
		c-38.8-10.9-82.8-23.3-127-23.3c-35.6,0-101.3,16.7-164.8,32.8C597.2,680.8,538.7,695.6,508,695.6z"/>
</g>
<g>
	
		<linearGradient id="SVGID_00000044897503424390570770000000893237575739356839_" gradientUnits="userSpaceOnUse" x1="176.9913" y1="596.0652" x2="1231.7626" y2="596.0652">
		<stop  offset="0" style="stop-color:#4759F5"/>
		<stop  offset="0.696" style="stop-color:#0096D6"/>
		<stop  offset="0.9993" style="stop-color:#40DEFA"/>
	</linearGradient>
	<path style="fill:url(#SVGID_00000044897503424390570770000000893237575739356839_);" d="M491.4,700.3c-9.3,0-16.2-1.4-20.1-4.7
		c-16.9-14.1-21.2-52-25.8-92.1c-5.8-51.4-11.8-104.5-45.2-110.3c-20.5-5.1-95.3,42.9-174.5,93.8c-35.5,22.8-71.9,46.2-105,65.8
		l-0.9-0.7c33.1-19.6,69.8-43.2,105.3-66c79.4-51,154.3-99.2,175.3-93.9c34.2,5.9,40.2,59.5,46.1,111.2c4.5,39.9,8.8,77.5,25.4,91.4
		c16.6,13.8,89.8-6.6,167.3-28.2c66.2-18.4,134.6-37.5,175.1-37.5c49.3,0,92.8,13.8,131.2,26c27.7,8.8,51.7,16.4,71.4,16.4
		c22.7,0,44.9-4.3,68.4-8.8c27.2-5.3,55.4-10.7,89.1-10.9v0h65.2v1.1h-63.8c-34.2,0-62.7,5.5-90.3,10.8c-23.5,4.6-45.8,8.9-68.6,8.9
		c-19.8,0-43.9-7.6-71.7-16.4c-38.3-12.1-81.7-25.9-130.8-25.9c-40.4,0-108.7,19-174.8,37.4C579.7,684.4,522.4,700.3,491.4,700.3z"
		/>
</g>
<g>
	
		<linearGradient id="SVGID_00000094579595029647666770000015359032142745966004_" gradientUnits="userSpaceOnUse" x1="176.9913" y1="590.4268" x2="1231.7626" y2="590.4268">
		<stop  offset="0" style="stop-color:#4759F5"/>
		<stop  offset="0.696" style="stop-color:#0096D6"/>
		<stop  offset="0.9993" style="stop-color:#40DEFA"/>
	</linearGradient>
	<path style="fill:url(#SVGID_00000094579595029647666770000015359032142745966004_);" d="M474.8,705c-9.5,0-16.6-1.6-20.9-5.1
		c-19.1-15.9-18.5-59-17.8-104.6c0.8-54.9,1.6-111.8-34.3-118c-22.4-5.6-95.9,46.5-173.7,101.7c-36.1,25.6-73.2,51.9-107.2,73.9
		l-0.9-0.7c34-21.9,71.3-48.4,107.5-74.1c78-55.3,151.6-107.5,174.5-101.8c36.9,6.4,36,63.7,35.2,119.1
		c-0.7,45.3-1.3,88.2,17.4,103.7c18,15,90.1-6.9,166.4-30c68.6-20.8,139.5-42.2,184.8-42.2c54.2,0,97.1,15.2,135,28.6
		c27.4,9.7,51,18,72.6,18c25,0,46.9-4.7,70-9.7c26.4-5.7,53.6-11.6,89.5-11.9v0h66.7v1.1h-63c-37.7,0-65.8,6.1-93,11.9
		c-23.2,5-45.2,9.7-70.3,9.7c-21.8,0-45.5-8.4-73-18.1c-37.8-13.4-80.6-28.5-134.7-28.5c-45.2,0-116,21.5-184.5,42.2
		C562.5,688,506.1,705,474.8,705z"/>
</g>
<g>
	
		<linearGradient id="SVGID_00000116197365091568361380000008128990416036816039_" gradientUnits="userSpaceOnUse" x1="176.9913" y1="584.8557" x2="1231.7626" y2="584.8557">
		<stop  offset="0" style="stop-color:#4759F5"/>
		<stop  offset="0.696" style="stop-color:#0096D6"/>
		<stop  offset="0.9993" style="stop-color:#40DEFA"/>
	</linearGradient>
	<path style="fill:url(#SVGID_00000116197365091568361380000008128990416036816039_);" d="M458.4,709.9c-9.7,0-17.2-1.7-22-5.7
		c-21.2-17.7-15.4-65.8-9.2-116.8c7.1-58.7,14.5-119.3-24.2-126c-24.4-6.1-97.2,50.4-174.3,110.1c-36.3,28.1-73.8,57.2-108.2,81.3
		l-0.6-0.9c34.4-24.1,71.9-53.1,108.1-81.2c77.3-59.9,150.4-116.5,175.2-110.3c39.7,6.9,32.2,68.1,25,127.3
		c-5.9,48.4-12,98.5,8.8,115.8c19.4,16.1,90.5-7.1,165.8-31.7c67.5-22.1,144.1-47.1,194.3-47.1c59.1,0,101.5,16.6,138.9,31.2
		c27,10.6,50.3,19.7,73.9,19.7c27.2,0,48.8-5.1,71.7-10.6c25.4-6.1,51.7-12.3,89.4-13v-0.1h68.7v1.1h-62.1c-41.2,0-68.9,6.6-95.8,13
		c-22.9,5.5-44.6,10.6-71.9,10.6c-23.8,0-47.2-9.1-74.3-19.7c-37.3-14.6-79.5-31.1-138.5-31.1c-50,0-126.5,25-193.9,47
		C543.2,692.3,489.4,709.9,458.4,709.9z"/>
</g>
<g>
	
		<linearGradient id="SVGID_00000169531542893866039050000014375319367817096354_" gradientUnits="userSpaceOnUse" x1="176.9913" y1="579.2228" x2="1231.7626" y2="579.2228">
		<stop  offset="0" style="stop-color:#4759F5"/>
		<stop  offset="0.696" style="stop-color:#0096D6"/>
		<stop  offset="0.9993" style="stop-color:#40DEFA"/>
	</linearGradient>
	<path style="fill:url(#SVGID_00000169531542893866039050000014375319367817096354_);" d="M441.8,714.6c-10,0-17.7-1.9-22.8-6.1
		c-23.3-19.4-11.5-75-0.1-128.8c10.3-48.7,21-99.1,5.6-121.9c-4.6-6.8-11.1-10.8-20-12.4c-26.2-6.5-98.2,54.1-174.3,118.4
		c-36.6,30.9-74.2,62.6-109.2,89.1l-1-0.6c35-26.4,72.9-58.4,109.5-89.3c76.4-64.4,148.5-125.3,175.2-118.6c9,1.6,16,5.9,20.7,12.8
		c15.7,23.2,5,73.8-5.4,122.8c-11.3,53.5-23.1,108.7-0.3,127.7c20.8,17.3,87.8-6.2,165.4-33.4c69.5-24.4,148.3-52,203.4-52
		c64.1,0,105.9,17.9,142.7,33.8c26.6,11.4,49.6,21.3,75.2,21.3c29.5,0,50.8-5.6,73.3-11.5c24.5-6.4,49.9-13.1,88.9-14v-0.1h71.1v1.1
		h-61.3c-44.6,0-72,7.2-98.4,14.1c-22.6,5.9-44,11.5-73.6,11.5c-25.8,0-48.9-9.9-75.6-21.4c-36.8-15.8-78.4-33.7-142.3-33.7
		c-54.9,0-133.6,27.6-203,51.9C526.3,696,473.2,714.6,441.8,714.6z"/>
</g>
<g>
	
		<linearGradient id="SVGID_00000181771254105424354250000003272327461593804979_" gradientUnits="userSpaceOnUse" x1="176.9913" y1="573.5872" x2="1231.7626" y2="573.5872">
		<stop  offset="0" style="stop-color:#4759F5"/>
		<stop  offset="0.696" style="stop-color:#0096D6"/>
		<stop  offset="0.9993" style="stop-color:#40DEFA"/>
	</linearGradient>
	<path style="fill:url(#SVGID_00000181771254105424354250000003272327461593804979_);" d="M425.2,719.4c-10.2,0-18.2-2-23.7-6.6
		c-25.4-21.1-7.8-81.9,9.3-140.6c15.1-51.9,30.6-105.6,15.5-129.8c-4.4-7.1-11.1-11.3-20.5-13c-28.1-7-99.2,57.7-174.4,126.3
		c-36.9,33.7-75,68.3-110.6,97.1l-0.9-0.7c35.7-28.8,73.8-63.6,110.8-97.2c75.4-68.7,146.7-133.7,175.4-126.5
		c9.5,1.7,16.7,6.2,21.2,13.5c15.3,24.6-0.3,78.5-15.4,130.7c-16.9,58.4-34.5,118.8-9.6,139.5c22.1,18.4,88.5-6.3,165.3-35
		c71.4-26.7,152.4-56.9,212.4-56.9c69,0,110.2,19.3,146.6,36.4c26.2,12.3,48.9,22.9,76.4,22.9c31.8,0,52.8-6,75-12.4
		c23.7-6.8,48.1-13.8,88.2-15v-0.2h73.7v1.1h-60.4c-48,0-75,7.7-101.1,15.2c-22.3,6.4-43.4,12.4-75.3,12.4
		c-27.8,0-50.5-10.7-76.9-23c-36.3-17-77.4-36.3-146.1-36.3c-59.8,0-140.6,30.2-212,56.8C509.4,699.8,457,719.4,425.2,719.4z"/>
</g>
<g>
	
		<linearGradient id="SVGID_00000148637723885924040180000010885168458266444686_" gradientUnits="userSpaceOnUse" x1="176.9913" y1="567.952" x2="1231.7626" y2="567.952">
		<stop  offset="0" style="stop-color:#4759F5"/>
		<stop  offset="0.696" style="stop-color:#0096D6"/>
		<stop  offset="0.9993" style="stop-color:#40DEFA"/>
	</linearGradient>
	<path style="fill:url(#SVGID_00000148637723885924040180000010885168458266444686_);" d="M408.6,724.1c-10.4,0-18.7-2.1-24.5-7
		c-27.4-22.8-3.9-88.7,18.9-152.4c19.7-55.2,40.2-112.3,25.3-137.7c-4.3-7.4-11.2-11.8-21.1-13.5c-30-7.5-100.2,61.4-174.6,134.2
		c-37.2,36.4-75.5,74-111.7,105.1l-0.8-0.7c36.2-31.1,74.6-68.8,111.8-105.2c74.6-73.1,145-142.1,175.6-134.5
		c10.1,1.7,17.4,6.5,21.8,14c15.1,25.9-4.5,80.7-25.2,138.7c-22.6,63.3-46.1,128.8-19.2,151.1c23.5,19.5,89.2-6.5,165.3-36.6
		c73.2-29,156.2-61.8,221.1-61.8c73.9,0,114.6,20.7,150.4,39c25.9,13.2,48.2,24.6,77.7,24.6c34.1,0,54.7-6.4,76.7-13.2
		c22.8-7.1,46.4-14.4,87.3-16v-0.3h76.5v1.1h-59.6c-51.5,0-78.1,8.3-103.8,16.3c-22,6.8-42.8,13.3-77,13.3
		c-29.7,0-52.2-11.4-78.2-24.7c-35.7-18.2-76.3-38.8-149.9-38.8c-64.7,0-147.6,32.8-220.7,61.8C492.7,703.5,440.8,724.1,408.6,724.1
		z"/>
</g>
<g>
	
		<linearGradient id="SVGID_00000102507593531601836950000000320853989419157418_" gradientUnits="userSpaceOnUse" x1="176.9913" y1="562.3168" x2="1231.7626" y2="562.3168">
		<stop  offset="0" style="stop-color:#4759F5"/>
		<stop  offset="0.696" style="stop-color:#0096D6"/>
		<stop  offset="0.9993" style="stop-color:#40DEFA"/>
	</linearGradient>
	<path style="fill:url(#SVGID_00000102507593531601836950000000320853989419157418_);" d="M392,728.8c-10.6,0-19.2-2.3-25.4-7.4
		c-29.5-24.5,0.1-95.4,28.7-164c24.4-58.5,49.6-119.1,34.9-145.8c-4.2-7.6-11.3-12.2-21.7-14c-31.9-7.9-101.7,65.3-175.6,142.8
		c-37.2,39-75.4,79.1-112,112.5l-1-0.5c36.6-33.4,75-73.7,112.2-112.7c74.1-77.8,144.2-151.2,176.7-143.1
		c10.5,1.8,18.1,6.7,22.4,14.6c14.9,27.2-9.3,85.3-34.9,146.8c-28.4,68.2-57.8,138.7-29,162.7c24.8,20.7,90-6.6,165.5-38.2
		c74.9-31.3,159.8-66.8,229.7-66.8c78.8,0,118.9,22.1,154.3,41.6c25.5,14.1,47.5,26.2,79,26.2c36.3,0,56.7-6.9,78.3-14.1
		c22.1-7.4,44.8-15.1,86.2-17v-0.4h79.4v1.1h-58.8c-54.9,0-81.1,8.8-106.5,17.3c-21.7,7.3-42.2,14.2-78.7,14.2
		c-31.7,0-53.9-12.2-79.5-26.3c-35.2-19.4-75.2-41.4-153.7-41.4c-69.7,0-154.5,35.5-229.3,66.7C476,707.3,424.6,728.8,392,728.8z"/>
</g>
<g>
	
		<linearGradient id="SVGID_00000147902978207680306630000009415916065440887708_" gradientUnits="userSpaceOnUse" x1="176.9913" y1="556.6635" x2="1231.7626" y2="556.6635">
		<stop  offset="0" style="stop-color:#4759F5"/>
		<stop  offset="0.696" style="stop-color:#0096D6"/>
		<stop  offset="0.9993" style="stop-color:#40DEFA"/>
	</linearGradient>
	<path style="fill:url(#SVGID_00000147902978207680306630000009415916065440887708_);" d="M375.4,733.5c-10.8,0-19.7-2.4-26.3-7.9
		c-31.5-26.2,4.1-102.2,38.6-175.6c30.4-64.7,59.1-125.9,44.4-154c-4.1-7.9-11.4-12.7-22.3-14.5c-33.8-8.4-102.6,68.5-175.5,149.9
		c-37.5,42-76.4,85.3-113.7,121.2l-0.8-0.8c37.3-35.8,76.2-79.2,113.7-121.2c76.3-85.2,142.1-158.9,176.6-150.3
		c11,1.9,18.8,7,23,15.1c14.9,28.5-13.9,89.9-44.4,154.9c-34.3,73.1-69.7,148.6-38.9,174.3c26.2,21.8,90.9-6.7,165.9-39.7
		c76.5-33.7,163.2-71.8,238.2-71.8c83.8,0,123.3,23.5,158.1,44.2c25.1,14.9,46.8,27.8,80.2,27.8c38.6,0,58.7-7.3,80-15
		c21.3-7.7,43.2-15.7,85.1-17.9v-0.6h82.4v1.1h-58c-58.3,0-84.2,9.4-109.1,18.4c-21.4,7.7-41.6,15.1-80.4,15.1
		c-33.7,0-55.5-13-80.8-28c-34.7-20.6-74.1-44-157.5-44c-74.7,0-161.3,38.1-237.7,71.8C459.4,711.1,408.5,733.5,375.4,733.5z"/>
</g>
<g>
	
		<linearGradient id="SVGID_00000178891490224100351080000001189193849793532074_" gradientUnits="userSpaceOnUse" x1="176.9913" y1="551.1771" x2="1231.7626" y2="551.1771">
		<stop  offset="0" style="stop-color:#4759F5"/>
		<stop  offset="0.696" style="stop-color:#0096D6"/>
		<stop  offset="0.9993" style="stop-color:#40DEFA"/>
	</linearGradient>
	<path style="fill:url(#SVGID_00000178891490224100351080000001189193849793532074_);" d="M358.8,738.2c-11,0-20.2-2.5-27.1-8.3
		c-33.5-27.9,8.2-108.9,48.6-187.1c35.2-68.3,68.5-132.8,53.9-162.2c-4.1-8.2-11.5-13.1-22.9-15c-37.4-6.7-105.9,74.6-178.4,160.5
		c-36.9,43.8-75.1,89-112.2,126.6l-0.8-0.8c37-37.6,75.2-82.8,112.1-126.6c37.2-44,72.2-85.6,103.1-115.7
		c34.7-33.9,59-48.3,76.4-45.2c11.6,2,19.5,7.3,23.7,15.6c14.8,29.8-18.5,94.6-53.9,163.2c-40.2,77.9-81.7,158.4-48.8,185.8
		c27.5,22.9,91.8-6.8,166.3-41.2c78.1-36,166.5-76.9,246.5-76.9c88.7,0,127.6,24.9,162,46.8c24.8,15.8,46.1,29.5,81.5,29.5
		c40.9,0,60.7-7.7,81.6-15.9c20.6-8,41.7-16.3,83.9-18.8v-0.8h85.5v1.1h-57.2c-61.7,0-87.2,9.9-111.8,19.5c-21.1,8.2-41,16-82,16
		c-35.7,0-57.2-13.7-82.1-29.6c-34.2-21.8-73-46.6-161.4-46.6c-79.7,0-168.1,40.8-246,76.8C442.9,714.9,392.3,738.2,358.8,738.2z"/>
</g>
<g>
	
		<linearGradient id="SVGID_00000080206702291860909300000015022528846243581360_" gradientUnits="userSpaceOnUse" x1="176.9913" y1="545.6774" x2="1231.7626" y2="545.6774">
		<stop  offset="0" style="stop-color:#4759F5"/>
		<stop  offset="0.696" style="stop-color:#0096D6"/>
		<stop  offset="0.9993" style="stop-color:#40DEFA"/>
	</linearGradient>
	<path style="fill:url(#SVGID_00000080206702291860909300000015022528846243581360_);" d="M342.5,743.2c-11.3,0-20.8-2.7-28.3-8.9
		c-35.5-29.6,12.3-115.5,58.7-198.6c40-71.9,77.9-139.8,63.2-170.4c-4-8.4-11.7-13.5-23.5-15.5c-38.7-6.6-107.1,79.1-179.5,169.9
		c-36.6,45.9-74.5,93.4-111.4,132.9l-0.8-0.8c36.9-39.5,74.8-86.9,111.4-132.8c37.1-46.5,72.1-90.4,103.1-122.2
		c34.9-35.9,59.5-51.2,77.5-48.1c12,2.1,20.2,7.5,24.3,16.1c14.9,31.2-23.1,99.3-63.3,171.4c-46.1,82.7-93.7,168.3-58.9,197.2
		c13.2,11,34.1,11.4,65.7,1.4c28.7-9.1,63.9-26.1,101.3-44.1c79.6-38.4,169.7-82,254.7-82c93.6,0,132,26.2,165.8,49.4
		c24.4,16.7,45.4,31.1,82.8,31.1c43.1,0,62.6-8.1,83.3-16.8c19.9-8.3,40.3-16.8,82.7-19.7v-1h88.6v1.1h-56.3
		c-65.2,0-90.2,10.5-114.5,20.6c-20.8,8.7-40.4,16.8-83.7,16.8c-37.7,0-58.9-14.5-83.4-31.3c-33.7-23.1-71.9-49.2-165.2-49.2
		c-84.7,0-174.8,43.5-254.2,81.9C424.5,719.6,375.8,743.2,342.5,743.2z"/>
</g>
<g>
	<path class="st42" d="M524.2,578c0,1.2-0.9,2-2,2h-23.5c-1.2,0-2-0.9-2-2l1.2-101.5l-1.2-97.4c0-1.2,0.9-2,2-2h23.5
		c1.2,0,2,0.9,2,2l-0.9,97.4L524.2,578z"/>
	<path class="st42" d="M753.8,578c0,1.2-0.9,2-2,2h-22.9c-1.2,0-2-0.9-2-2l0.6-56.8v-33.6c0-28.7-11.3-40.3-28.7-40.3
		c-15.9,0-29,14.5-35.4,38.8v35.1l0.6,56.8c0,1.2-0.9,2-2,2h-23.2c-1.2,0-2-0.9-2-2l0.6-56.8v-33.6c0-28.7-11-40.3-28.4-40.3
		c-17.4,0-31.3,16.8-36.8,44.9v29l0.6,56.8c0,1.2-0.9,2-2,2h-23.5c-1.2,0-2-0.9-2-2l0.9-56.8l-0.6-88.4c0-1.2,0.9-2,2-2h22
		c1.2,0,2,0.9,2,2l-0.9,24.1c9.3-16.2,23.8-29.6,46.1-29.6c21.5,0,36.5,9.9,43.2,31.3c10.4-19.7,25.8-31.3,47-31.3
		c29.3,0,46.7,18.6,46.7,59.4v34.5L753.8,578z"/>
	<path class="st42" d="M874.7,432.8c0-1.2,0.9-2,2-2h22.6c1.2,0,2,0.9,2,2l-0.6,71l0.6,74.2c0,1.2-0.9,2-2,2H877c-1.2,0-2-0.9-2-2
		l0.6-22c-10.1,16.8-26.1,27-47.8,27c-40.3,0-61.7-33.9-61.7-77.1s22.9-78,62.3-78c20.9,0,37.1,9,47,25.5L874.7,432.8z M876.1,506.7
		c0.3-38.3-14.8-60.3-41.2-60.6c-28.7-0.3-42,23.8-42,57.7c0,35.9,13.3,60.9,41.5,60.6C860.2,564.4,875.8,545,876.1,506.7z"/>
	<path class="st42" d="M1025.4,430.7h22.6c1.2,0,2,0.9,2,2l-0.9,56.2l0.3,80.3c0.3,43.5-23.8,67.5-66.4,67.5
		c-34.2,0.3-61.7-14.2-64.4-46.7c0-1.2,0.9-2,2-2h22.3c1.2,0,2,0.6,2.3,2c2,19.4,17.1,28.4,38.3,28.4c24.4,0,41.2-15.1,41.2-49.6
		v-15.9c-9.6,16.5-25.5,26.1-46.4,26.1c-41.7,0-63.8-31.6-63.8-74.2c0-42.3,22.6-76.5,62.9-76.5c20.9,0,36.8,8.7,46.7,25.2
		l-0.9-20.9C1023.4,431.6,1024.2,430.7,1025.4,430.7z M1024.8,506.1c0.3-37.7-14.8-59.7-41.2-60c-28.1-0.3-42,22.9-42,58
		c0,36.5,14.2,57.7,42.6,57.4C1008.6,561.2,1024.5,543.5,1024.8,506.1z"/>
	<path class="st42" d="M1096.1,578c0,1.2-0.9,2-2,2h-23.2c-1.2,0-2-0.9-2-2l0.6-75.1l-0.6-70.2c0-1.2,0.9-2,2-2h23.2
		c1.2,0,2,0.9,2,2l-0.6,70.2L1096.1,578z M1096.1,388.1v24.1c0,1.2-0.9,2-2,2h-22.9c-1.2,0-2-0.9-2-2v-24.1c0-1.2,0.9-2,2-2h22.9
		C1095.3,386.1,1096.1,387,1096.1,388.1z"/>
	<path class="st42" d="M1142.5,578c0,1.2-0.9,2-2,2h-23.2c-1.2,0-2-0.9-2-2l0.9-65.8l-0.6-79.4c0-1.2,0.9-2,2-2h22c1.2,0,2,0.9,2,2
		l-0.9,24.1c9.3-15.4,26.1-29.6,49.9-29.6c30.7,0,50.2,20.3,50.2,59.4v29.6l0.3,61.7c0,1.2-0.9,2-2,2h-22.9c-1.2,0-2-0.9-2-2
		l0.6-61.7v-28.7c0-27.8-12.8-40.3-31.3-40.3c-19.7,0-35.4,15.9-41.2,44.9v24.1L1142.5,578z"/>
	<path class="st42" d="M1364.6,529.9c0.3-1.2,0.9-1.7,2-1.7h21.5c1.2,0,2.3,0.9,2,2c-4.6,31-27,53.3-65.5,53.3
		c-46.4,0-71.3-32.2-71.3-77.7c0-46.7,26.4-78.6,69.9-78.6c43.5,0,69,29.9,69.6,79.4c0,1.2-0.9,2-2,2h-110.7
		c0.9,36.8,15.7,56.2,44.9,56.2C1347.2,565,1360.5,552.5,1364.6,529.9z M1280.8,490.7h83.2c-0.9-24.6-14.2-45.2-40.6-45.2
		C1298.8,445.5,1284.3,462,1280.8,490.7z"/>
</g>
<path class="st20" d="M1240.5,652.9h-0.9v-1.3h0.8c0.3,0,0.6,0.3,0.6,0.6v0.1C1241.1,652.6,1240.8,652.9,1240.5,652.9z"/>
<g>
	
		<linearGradient id="SVGID_00000173883066882883113920000012841098498882544774_" gradientUnits="userSpaceOnUse" x1="120.519" y1="540" x2="1239.6123" y2="540">
		<stop  offset="0" style="stop-color:#4759F5"/>
		<stop  offset="0.696" style="stop-color:#0096D6"/>
		<stop  offset="0.9993" style="stop-color:#40DEFA"/>
	</linearGradient>
	<path style="fill:url(#SVGID_00000173883066882883113920000012841098498882544774_);" d="M326.1,748c-11.5,0-21.3-2.9-29.2-9.4
		c-37.7-31.4,16.8-123.2,69.4-212c44.8-75.5,87-146.8,72.2-178c-4-8.4-11.9-13.4-24.3-15.3c-44.1-4.9-111.9,85.5-183.7,181.3
		c-35.8,47.7-72.7,97-109.3,138.2l-0.8-0.7c36.5-41.2,73.5-90.5,109.2-138.1c36.7-49,71.4-95.2,102.8-129.1
		c35.4-38.2,61.4-54.9,81.9-52.6c12.5,1.9,21,7.2,25.1,15.9c15.1,31.7-27.3,103.3-72.2,179c-52.4,88.4-106.6,179.9-69.6,210.6
		c30.2,25.1,90.9-5.5,167.8-44.2c77.1-38.8,173-87.2,263.1-87.2c98.7,0,136.5,27.6,169.8,52c24,17.6,44.8,32.8,84.1,32.8
		c45.5,0,64.7-8.6,85.1-17.7c24-10.7,48.9-21.8,117.6-21.8l0,0.4l0-0.4c0.1,0,2.9,0,54.3,0v1.1c-26.6,0-40.2,0.1-47.1,0.1
		c-4.5,0-6.4,0-7.2-0.1l0,0.1l0-0.1c0,0,0,0,0,0v0.1c-68.6,0-93.3,11-117.2,21.7c-20.5,9.1-39.8,17.8-85.5,17.8
		c-39.7,0-60.6-15.3-84.8-33c-33.2-24.3-70.9-51.8-169.2-51.8c-89.9,0-185.7,48.3-262.6,87C408.4,723.5,359.9,748,326.1,748z"/>
</g>
<g>
	<ellipse class="st42" cx="1635.7" cy="501.5" rx="174.6" ry="175.8"/>
	<path class="st44" d="M1635.7,663.2c-1.6,0-3.2,0-4.8-0.1l33-90.8h45.5c8,0,16.7-6.1,19.5-13.6l35.9-98.5
		c5.9-16.1-3.4-29.3-20.5-29.3h-63.1l-52.9,145.5h0l-30,82.5C1527,641.9,1474,577.9,1474,501.5s49.9-136.7,118-155.7l-31,85.1h0
		l-51.5,141.4h34.3l43.8-120.2h25.8l-43.8,120.2h34.3l40.8-112.1c5.9-16.1-3.4-29.3-20.5-29.3h-28.8l33.1-90.9
		c2.4-0.1,4.8-0.2,7.3-0.2c89.3,0,161.7,72.4,161.7,161.7S1725,663.2,1635.7,663.2z M1733.5,452.1h-25.7l-36.1,98.9h25.8
		L1733.5,452.1L1733.5,452.1z"/>
</g>
</svg>
